<svg xmlns="http://www.w3.org/2000/svg" viewBox="0 0 600 600" width="600" height="600" role="img" aria-label="SmartLingo beginner semantic picture sprite"><rect width="600" height="600" fill="#f8fbff"/><g transform="translate(0 0)"><rect x="2" y="2" width="96" height="96" rx="12" fill="hsl(232 75% 96%)" stroke="hsl(232 45% 84%)" stroke-width="2"/><path d="M50 18v61M24 30h52M20 72h60M31 30 18 56h26Zm38 0L56 56h26Z" fill="hsl(232 75% 93%)" stroke="hsl(232 58% 28%)" stroke-width="4" stroke-linecap="round" stroke-linejoin="round"/><circle cx="50" cy="16" r="7" fill="hsl(280 82% 56%)" stroke="hsl(232 58% 28%)" stroke-width="4" stroke-linecap="round" stroke-linejoin="round"/></g><g transform="translate(100 0)"><rect x="2" y="2" width="96" height="96" rx="12" fill="hsl(322 75% 96%)" stroke="hsl(322 45% 84%)" stroke-width="2"/><circle cx="50" cy="50" r="34" fill="hsl(322 75% 93%)" stroke="hsl(322 58% 28%)" stroke-width="4" stroke-linecap="round" stroke-linejoin="round"/><circle cx="50" cy="50" r="23" fill="hsl(322 72% 52%)" stroke="hsl(322 58% 28%)" stroke-width="4" stroke-linecap="round" stroke-linejoin="round"/><circle cx="50" cy="50" r="11" fill="hsl(10 82% 56%)" stroke="hsl(322 58% 28%)" stroke-width="4" stroke-linecap="round" stroke-linejoin="round"/><path d="m77 23 11-11m-12 1 12-1-1 12" fill="none" stroke="hsl(322 58% 28%)" stroke-width="4" stroke-linecap="round" stroke-linejoin="round"/></g><g transform="translate(200 0)"><rect x="2" y="2" width="96" height="96" rx="12" fill="hsl(320 75% 96%)" stroke="hsl(320 45% 84%)" stroke-width="2"/><circle cx="50" cy="49" r="29" fill="hsl(320 75% 93%)" stroke="hsl(320 58% 28%)" stroke-width="4" stroke-linecap="round" stroke-linejoin="round"/><circle cx="50" cy="49" r="12" fill="hsl(8 82% 56%)" stroke="hsl(320 58% 28%)" stroke-width="4" stroke-linecap="round" stroke-linejoin="round"/><path d="M50 12v10m0 54v10M13 49h10m54 0h10M24 23l8 8m36 36 8 8m0-52-8 8M32 67l-8 8" fill="none" stroke="hsl(320 58% 28%)" stroke-width="4" stroke-linecap="round" stroke-linejoin="round"/></g><g transform="translate(300 0)"><rect x="2" y="2" width="96" height="96" rx="12" fill="hsl(38 75% 96%)" stroke="hsl(38 45% 84%)" stroke-width="2"/><circle cx="50" cy="22" r="12" fill="hsl(86 82% 56%)" stroke="hsl(38 58% 28%)" stroke-width="4" stroke-linecap="round" stroke-linejoin="round"/><circle cx="24" cy="72" r="12" fill="hsl(38 72% 52%)" stroke="hsl(38 58% 28%)" stroke-width="4" stroke-linecap="round" stroke-linejoin="round"/><circle cx="76" cy="72" r="12" fill="hsl(38 72% 52%)" stroke="hsl(38 58% 28%)" stroke-width="4" stroke-linecap="round" stroke-linejoin="round"/><path d="m44 33-14 27m26-27 14 27M36 72h28" fill="none" stroke="hsl(38 58% 28%)" stroke-width="4" stroke-linecap="round" stroke-linejoin="round"/></g><g transform="translate(400 0)"><rect x="2" y="2" width="96" height="96" rx="12" fill="hsl(359 75% 96%)" stroke="hsl(359 45% 84%)" stroke-width="2"/><circle cx="75" cy="25" r="10" fill="hsl(47 82% 56%)" stroke="hsl(359 58% 28%)" stroke-width="4" stroke-linecap="round" stroke-linejoin="round"/><path d="M8 78 34 41l17 22 12-14 29 29Z" fill="hsl(359 72% 52%)" stroke="hsl(359 58% 28%)" stroke-width="4" stroke-linecap="round" stroke-linejoin="round"/><path d="M34 41 45 56l6 7" fill="none" stroke="white" stroke-width="4"/></g><g transform="translate(500 0)"><rect x="2" y="2" width="96" height="96" rx="12" fill="hsl(242 75% 96%)" stroke="hsl(242 45% 84%)" stroke-width="2"/><circle cx="22" cy="50" r="10" fill="hsl(290 82% 56%)" stroke="hsl(242 58% 28%)" stroke-width="4" stroke-linecap="round" stroke-linejoin="round"/><circle cx="78" cy="25" r="10" fill="hsl(242 72% 52%)" stroke="hsl(242 58% 28%)" stroke-width="4" stroke-linecap="round" stroke-linejoin="round"/><circle cx="78" cy="75" r="10" fill="hsl(242 72% 52%)" stroke="hsl(242 58% 28%)" stroke-width="4" stroke-linecap="round" stroke-linejoin="round"/><path d="M32 50h17m0 0 19-22M49 50l19 22" fill="none" stroke="hsl(242 58% 28%)" stroke-width="4" stroke-linecap="round" stroke-linejoin="round"/></g><g transform="translate(0 100)"><rect x="2" y="2" width="96" height="96" rx="12" fill="hsl(57 75% 96%)" stroke="hsl(57 45% 84%)" stroke-width="2"/><circle cx="75" cy="25" r="10" fill="hsl(105 82% 56%)" stroke="hsl(57 58% 28%)" stroke-width="4" stroke-linecap="round" stroke-linejoin="round"/><path d="M8 78 34 41l17 22 12-14 29 29Z" fill="hsl(57 72% 52%)" stroke="hsl(57 58% 28%)" stroke-width="4" stroke-linecap="round" stroke-linejoin="round"/><path d="M34 41 45 56l6 7" fill="none" stroke="white" stroke-width="4"/></g><g transform="translate(100 100)"><rect x="2" y="2" width="96" height="96" rx="12" fill="hsl(331 75% 96%)" stroke="hsl(331 45% 84%)" stroke-width="2"/><circle cx="50" cy="50" r="34" fill="hsl(331 75% 93%)" stroke="hsl(331 58% 28%)" stroke-width="4" stroke-linecap="round" stroke-linejoin="round"/><circle cx="50" cy="50" r="23" fill="hsl(331 72% 52%)" stroke="hsl(331 58% 28%)" stroke-width="4" stroke-linecap="round" stroke-linejoin="round"/><circle cx="50" cy="50" r="11" fill="hsl(19 82% 56%)" stroke="hsl(331 58% 28%)" stroke-width="4" stroke-linecap="round" stroke-linejoin="round"/><path d="m77 23 11-11m-12 1 12-1-1 12" fill="none" stroke="hsl(331 58% 28%)" stroke-width="4" stroke-linecap="round" stroke-linejoin="round"/></g><g transform="translate(200 100)"><rect x="2" y="2" width="96" height="96" rx="12" fill="hsl(161 75% 96%)" stroke="hsl(161 45% 84%)" stroke-width="2"/><circle cx="50" cy="49" r="29" fill="hsl(161 75% 93%)" stroke="hsl(161 58% 28%)" stroke-width="4" stroke-linecap="round" stroke-linejoin="round"/><circle cx="50" cy="49" r="12" fill="hsl(209 82% 56%)" stroke="hsl(161 58% 28%)" stroke-width="4" stroke-linecap="round" stroke-linejoin="round"/><path d="M50 12v10m0 54v10M13 49h10m54 0h10M24 23l8 8m36 36 8 8m0-52-8 8M32 67l-8 8" fill="none" stroke="hsl(161 58% 28%)" stroke-width="4" stroke-linecap="round" stroke-linejoin="round"/></g><g transform="translate(300 100)"><rect x="2" y="2" width="96" height="96" rx="12" fill="hsl(134 75% 96%)" stroke="hsl(134 45% 84%)" stroke-width="2"/><circle cx="50" cy="49" r="29" fill="hsl(134 75% 93%)" stroke="hsl(134 58% 28%)" stroke-width="4" stroke-linecap="round" stroke-linejoin="round"/><circle cx="50" cy="49" r="12" fill="hsl(182 82% 56%)" stroke="hsl(134 58% 28%)" stroke-width="4" stroke-linecap="round" stroke-linejoin="round"/><path d="M50 12v10m0 54v10M13 49h10m54 0h10M24 23l8 8m36 36 8 8m0-52-8 8M32 67l-8 8" fill="none" stroke="hsl(134 58% 28%)" stroke-width="4" stroke-linecap="round" stroke-linejoin="round"/></g><g transform="translate(400 100)"><rect x="2" y="2" width="96" height="96" rx="12" fill="hsl(275 75% 96%)" stroke="hsl(275 45% 84%)" stroke-width="2"/><circle cx="27" cy="31" r="9" fill="hsl(323 82% 56%)" stroke="hsl(275 58% 28%)" stroke-width="4" stroke-linecap="round" stroke-linejoin="round"/><path d="M27 42v24m0-14 14 8M27 51 15 62m12 4-10 15m10-15 13 14" fill="none" stroke="hsl(275 58% 28%)" stroke-width="4" stroke-linecap="round" stroke-linejoin="round"/><path d="M48 35h34m-12-10 12 10-12 10" fill="none" stroke="hsl(275 58% 28%)" stroke-width="4" stroke-linecap="round" stroke-linejoin="round"/></g><g transform="translate(500 100)"><rect x="2" y="2" width="96" height="96" rx="12" fill="hsl(131 75% 96%)" stroke="hsl(131 45% 84%)" stroke-width="2"/><circle cx="50" cy="22" r="12" fill="hsl(179 82% 56%)" stroke="hsl(131 58% 28%)" stroke-width="4" stroke-linecap="round" stroke-linejoin="round"/><circle cx="24" cy="72" r="12" fill="hsl(131 72% 52%)" stroke="hsl(131 58% 28%)" stroke-width="4" stroke-linecap="round" stroke-linejoin="round"/><circle cx="76" cy="72" r="12" fill="hsl(131 72% 52%)" stroke="hsl(131 58% 28%)" stroke-width="4" stroke-linecap="round" stroke-linejoin="round"/><path d="m44 33-14 27m26-27 14 27M36 72h28" fill="none" stroke="hsl(131 58% 28%)" stroke-width="4" stroke-linecap="round" stroke-linejoin="round"/></g><g transform="translate(0 200)"><rect x="2" y="2" width="96" height="96" rx="12" fill="hsl(76 75% 96%)" stroke="hsl(76 45% 84%)" stroke-width="2"/><circle cx="22" cy="50" r="10" fill="hsl(124 82% 56%)" stroke="hsl(76 58% 28%)" stroke-width="4" stroke-linecap="round" stroke-linejoin="round"/><circle cx="78" cy="25" r="10" fill="hsl(76 72% 52%)" stroke="hsl(76 58% 28%)" stroke-width="4" stroke-linecap="round" stroke-linejoin="round"/><circle cx="78" cy="75" r="10" fill="hsl(76 72% 52%)" stroke="hsl(76 58% 28%)" stroke-width="4" stroke-linecap="round" stroke-linejoin="round"/><path d="M32 50h17m0 0 19-22M49 50l19 22" fill="none" stroke="hsl(76 58% 28%)" stroke-width="4" stroke-linecap="round" stroke-linejoin="round"/></g><g transform="translate(100 200)"><rect x="2" y="2" width="96" height="96" rx="12" fill="hsl(269 75% 96%)" stroke="hsl(269 45% 84%)" stroke-width="2"/><path d="m50 12 10 22 24 3-18 17 5 24-21-12-21 12 5-24-18-17 24-3Z" fill="hsl(317 82% 56%)" stroke="hsl(269 58% 28%)" stroke-width="4" stroke-linecap="round" stroke-linejoin="round"/><path d="M16 19c19-11 47-11 68 0M16 81c19 11 47 11 68 0" fill="none" stroke="hsl(269 58% 28%)" stroke-width="4" stroke-linecap="round" stroke-linejoin="round"/></g><g transform="translate(200 200)"><rect x="2" y="2" width="96" height="96" rx="12" fill="hsl(184 75% 96%)" stroke="hsl(184 45% 84%)" stroke-width="2"/><path d="M35 64q-13-9-13-25a28 28 0 0 1 56 0q0 16-13 25l-4 18H39Z" fill="hsl(232 82% 56%)" stroke="hsl(184 58% 28%)" stroke-width="4" stroke-linecap="round" stroke-linejoin="round"/><path d="M39 69h22M39 77h22M50 11v-7M17 19l-6-6m72 6 6-6" fill="none" stroke="hsl(184 58% 28%)" stroke-width="4" stroke-linecap="round" stroke-linejoin="round"/></g><g transform="translate(300 200)"><rect x="2" y="2" width="96" height="96" rx="12" fill="hsl(259 75% 96%)" stroke="hsl(259 45% 84%)" stroke-width="2"/><circle cx="50" cy="50" r="34" fill="hsl(259 75% 93%)" stroke="hsl(259 58% 28%)" stroke-width="4" stroke-linecap="round" stroke-linejoin="round"/><circle cx="50" cy="50" r="23" fill="hsl(259 72% 52%)" stroke="hsl(259 58% 28%)" stroke-width="4" stroke-linecap="round" stroke-linejoin="round"/><circle cx="50" cy="50" r="11" fill="hsl(307 82% 56%)" stroke="hsl(259 58% 28%)" stroke-width="4" stroke-linecap="round" stroke-linejoin="round"/><path d="m77 23 11-11m-12 1 12-1-1 12" fill="none" stroke="hsl(259 58% 28%)" stroke-width="4" stroke-linecap="round" stroke-linejoin="round"/></g><g transform="translate(400 200)"><rect x="2" y="2" width="96" height="96" rx="12" fill="hsl(104 75% 96%)" stroke="hsl(104 45% 84%)" stroke-width="2"/><path d="M35 64q-13-9-13-25a28 28 0 0 1 56 0q0 16-13 25l-4 18H39Z" fill="hsl(152 82% 56%)" stroke="hsl(104 58% 28%)" stroke-width="4" stroke-linecap="round" stroke-linejoin="round"/><path d="M39 69h22M39 77h22M50 11v-7M17 19l-6-6m72 6 6-6" fill="none" stroke="hsl(104 58% 28%)" stroke-width="4" stroke-linecap="round" stroke-linejoin="round"/></g><g transform="translate(500 200)"><rect x="2" y="2" width="96" height="96" rx="12" fill="hsl(158 75% 96%)" stroke="hsl(158 45% 84%)" stroke-width="2"/><circle cx="50" cy="50" r="34" fill="hsl(158 75% 93%)" stroke="hsl(158 58% 28%)" stroke-width="4" stroke-linecap="round" stroke-linejoin="round"/><circle cx="50" cy="50" r="23" fill="hsl(158 72% 52%)" stroke="hsl(158 58% 28%)" stroke-width="4" stroke-linecap="round" stroke-linejoin="round"/><circle cx="50" cy="50" r="11" fill="hsl(206 82% 56%)" stroke="hsl(158 58% 28%)" stroke-width="4" stroke-linecap="round" stroke-linejoin="round"/><path d="m77 23 11-11m-12 1 12-1-1 12" fill="none" stroke="hsl(158 58% 28%)" stroke-width="4" stroke-linecap="round" stroke-linejoin="round"/></g><g transform="translate(0 300)"><rect x="2" y="2" width="96" height="96" rx="12" fill="hsl(106 75% 96%)" stroke="hsl(106 45% 84%)" stroke-width="2"/><circle cx="50" cy="49" r="29" fill="hsl(106 75% 93%)" stroke="hsl(106 58% 28%)" stroke-width="4" stroke-linecap="round" stroke-linejoin="round"/><circle cx="50" cy="49" r="12" fill="hsl(154 82% 56%)" stroke="hsl(106 58% 28%)" stroke-width="4" stroke-linecap="round" stroke-linejoin="round"/><path d="M50 12v10m0 54v10M13 49h10m54 0h10M24 23l8 8m36 36 8 8m0-52-8 8M32 67l-8 8" fill="none" stroke="hsl(106 58% 28%)" stroke-width="4" stroke-linecap="round" stroke-linejoin="round"/></g><g transform="translate(100 300)"><rect x="2" y="2" width="96" height="96" rx="12" fill="hsl(44 75% 96%)" stroke="hsl(44 45% 84%)" stroke-width="2"/><path d="M50 18v61M24 30h52M20 72h60M31 30 18 56h26Zm38 0L56 56h26Z" fill="hsl(44 75% 93%)" stroke="hsl(44 58% 28%)" stroke-width="4" stroke-linecap="round" stroke-linejoin="round"/><circle cx="50" cy="16" r="7" fill="hsl(92 82% 56%)" stroke="hsl(44 58% 28%)" stroke-width="4" stroke-linecap="round" stroke-linejoin="round"/></g><g transform="translate(200 300)"><rect x="2" y="2" width="96" height="96" rx="12" fill="hsl(296 75% 96%)" stroke="hsl(296 45% 84%)" stroke-width="2"/><circle cx="50" cy="49" r="29" fill="hsl(296 75% 93%)" stroke="hsl(296 58% 28%)" stroke-width="4" stroke-linecap="round" stroke-linejoin="round"/><circle cx="50" cy="49" r="12" fill="hsl(344 82% 56%)" stroke="hsl(296 58% 28%)" stroke-width="4" stroke-linecap="round" stroke-linejoin="round"/><path d="M50 12v10m0 54v10M13 49h10m54 0h10M24 23l8 8m36 36 8 8m0-52-8 8M32 67l-8 8" fill="none" stroke="hsl(296 58% 28%)" stroke-width="4" stroke-linecap="round" stroke-linejoin="round"/></g><g transform="translate(300 300)"><rect x="2" y="2" width="96" height="96" rx="12" fill="hsl(139 75% 96%)" stroke="hsl(139 45% 84%)" stroke-width="2"/><path d="M50 18v61M24 30h52M20 72h60M31 30 18 56h26Zm38 0L56 56h26Z" fill="hsl(139 75% 93%)" stroke="hsl(139 58% 28%)" stroke-width="4" stroke-linecap="round" stroke-linejoin="round"/><circle cx="50" cy="16" r="7" fill="hsl(187 82% 56%)" stroke="hsl(139 58% 28%)" stroke-width="4" stroke-linecap="round" stroke-linejoin="round"/></g><g transform="translate(400 300)"><rect x="2" y="2" width="96" height="96" rx="12" fill="hsl(14 75% 96%)" stroke="hsl(14 45% 84%)" stroke-width="2"/><path d="M50 13 79 24v23q0 24-29 39Q21 71 21 47V24Z" fill="hsl(14 72% 52%)" stroke="hsl(14 58% 28%)" stroke-width="4" stroke-linecap="round" stroke-linejoin="round"/><path d="m34 50 10 10 23-25" fill="none" stroke="white" stroke-width="7" stroke-linecap="round" stroke-linejoin="round"/></g><g transform="translate(500 300)"><rect x="2" y="2" width="96" height="96" rx="12" fill="hsl(196 75% 96%)" stroke="hsl(196 45% 84%)" stroke-width="2"/><circle cx="22" cy="50" r="10" fill="hsl(244 82% 56%)" stroke="hsl(196 58% 28%)" stroke-width="4" stroke-linecap="round" stroke-linejoin="round"/><circle cx="78" cy="25" r="10" fill="hsl(196 72% 52%)" stroke="hsl(196 58% 28%)" stroke-width="4" stroke-linecap="round" stroke-linejoin="round"/><circle cx="78" cy="75" r="10" fill="hsl(196 72% 52%)" stroke="hsl(196 58% 28%)" stroke-width="4" stroke-linecap="round" stroke-linejoin="round"/><path d="M32 50h17m0 0 19-22M49 50l19 22" fill="none" stroke="hsl(196 58% 28%)" stroke-width="4" stroke-linecap="round" stroke-linejoin="round"/></g><g transform="translate(0 400)"><rect x="2" y="2" width="96" height="96" rx="12" fill="hsl(351 75% 96%)" stroke="hsl(351 45% 84%)" stroke-width="2"/><circle cx="50" cy="50" r="34" fill="hsl(351 75% 93%)" stroke="hsl(351 58% 28%)" stroke-width="4" stroke-linecap="round" stroke-linejoin="round"/><circle cx="50" cy="50" r="23" fill="hsl(351 72% 52%)" stroke="hsl(351 58% 28%)" stroke-width="4" stroke-linecap="round" stroke-linejoin="round"/><circle cx="50" cy="50" r="11" fill="hsl(39 82% 56%)" stroke="hsl(351 58% 28%)" stroke-width="4" stroke-linecap="round" stroke-linejoin="round"/><path d="m77 23 11-11m-12 1 12-1-1 12" fill="none" stroke="hsl(351 58% 28%)" stroke-width="4" stroke-linecap="round" stroke-linejoin="round"/></g><g transform="translate(100 400)"><rect x="2" y="2" width="96" height="96" rx="12" fill="hsl(150 75% 96%)" stroke="hsl(150 45% 84%)" stroke-width="2"/><path d="M17 45 50 19l33 26v38H17Z" fill="hsl(150 75% 93%)" stroke="hsl(150 58% 28%)" stroke-width="4" stroke-linecap="round" stroke-linejoin="round"/><path d="M41 83V57h18v26M27 50h10v11H27m36-11h10v11H63" fill="hsl(198 82% 56%)" stroke="hsl(150 58% 28%)" stroke-width="4" stroke-linecap="round" stroke-linejoin="round"/></g><g transform="translate(200 400)"><rect x="2" y="2" width="96" height="96" rx="12" fill="hsl(359 75% 96%)" stroke="hsl(359 45% 84%)" stroke-width="2"/><circle cx="22" cy="50" r="10" fill="hsl(47 82% 56%)" stroke="hsl(359 58% 28%)" stroke-width="4" stroke-linecap="round" stroke-linejoin="round"/><circle cx="78" cy="25" r="10" fill="hsl(359 72% 52%)" stroke="hsl(359 58% 28%)" stroke-width="4" stroke-linecap="round" stroke-linejoin="round"/><circle cx="78" cy="75" r="10" fill="hsl(359 72% 52%)" stroke="hsl(359 58% 28%)" stroke-width="4" stroke-linecap="round" stroke-linejoin="round"/><path d="M32 50h17m0 0 19-22M49 50l19 22" fill="none" stroke="hsl(359 58% 28%)" stroke-width="4" stroke-linecap="round" stroke-linejoin="round"/></g><g transform="translate(300 400)"><rect x="2" y="2" width="96" height="96" rx="12" fill="hsl(215 75% 96%)" stroke="hsl(215 45% 84%)" stroke-width="2"/><path d="M50 18v61M24 30h52M20 72h60M31 30 18 56h26Zm38 0L56 56h26Z" fill="hsl(215 75% 93%)" stroke="hsl(215 58% 28%)" stroke-width="4" stroke-linecap="round" stroke-linejoin="round"/><circle cx="50" cy="16" r="7" fill="hsl(263 82% 56%)" stroke="hsl(215 58% 28%)" stroke-width="4" stroke-linecap="round" stroke-linejoin="round"/></g><g transform="translate(400 400)"><rect x="2" y="2" width="96" height="96" rx="12" fill="hsl(89 75% 96%)" stroke="hsl(89 45% 84%)" stroke-width="2"/><path d="M35 64q-13-9-13-25a28 28 0 0 1 56 0q0 16-13 25l-4 18H39Z" fill="hsl(137 82% 56%)" stroke="hsl(89 58% 28%)" stroke-width="4" stroke-linecap="round" stroke-linejoin="round"/><path d="M39 69h22M39 77h22M50 11v-7M17 19l-6-6m72 6 6-6" fill="none" stroke="hsl(89 58% 28%)" stroke-width="4" stroke-linecap="round" stroke-linejoin="round"/></g><g transform="translate(500 400)"><rect x="2" y="2" width="96" height="96" rx="12" fill="hsl(162 75% 96%)" stroke="hsl(162 45% 84%)" stroke-width="2"/><path d="m50 12 10 22 24 3-18 17 5 24-21-12-21 12 5-24-18-17 24-3Z" fill="hsl(210 82% 56%)" stroke="hsl(162 58% 28%)" stroke-width="4" stroke-linecap="round" stroke-linejoin="round"/><path d="M16 19c19-11 47-11 68 0M16 81c19 11 47 11 68 0" fill="none" stroke="hsl(162 58% 28%)" stroke-width="4" stroke-linecap="round" stroke-linejoin="round"/></g><g transform="translate(0 500)"><rect x="2" y="2" width="96" height="96" rx="12" fill="hsl(233 75% 96%)" stroke="hsl(233 45% 84%)" stroke-width="2"/><circle cx="50" cy="22" r="12" fill="hsl(281 82% 56%)" stroke="hsl(233 58% 28%)" stroke-width="4" stroke-linecap="round" stroke-linejoin="round"/><circle cx="24" cy="72" r="12" fill="hsl(233 72% 52%)" stroke="hsl(233 58% 28%)" stroke-width="4" stroke-linecap="round" stroke-linejoin="round"/><circle cx="76" cy="72" r="12" fill="hsl(233 72% 52%)" stroke="hsl(233 58% 28%)" stroke-width="4" stroke-linecap="round" stroke-linejoin="round"/><path d="m44 33-14 27m26-27 14 27M36 72h28" fill="none" stroke="hsl(233 58% 28%)" stroke-width="4" stroke-linecap="round" stroke-linejoin="round"/></g><g transform="translate(100 500)"><rect x="2" y="2" width="96" height="96" rx="12" fill="hsl(2 75% 96%)" stroke="hsl(2 45% 84%)" stroke-width="2"/><circle cx="50" cy="50" r="31" fill="hsl(50 82% 56%)" stroke="hsl(2 58% 28%)" stroke-width="4" stroke-linecap="round" stroke-linejoin="round"/><path d="M61 35q-7-8-18-3-9 4-2 12l18 8q8 7-1 14-12 8-22-3M50 24v52" fill="none" stroke="hsl(2 58% 28%)" stroke-width="4" stroke-linecap="round" stroke-linejoin="round"/></g><g transform="translate(200 500)"><rect x="2" y="2" width="96" height="96" rx="12" fill="hsl(265 75% 96%)" stroke="hsl(265 45% 84%)" stroke-width="2"/><circle cx="22" cy="50" r="10" fill="hsl(313 82% 56%)" stroke="hsl(265 58% 28%)" stroke-width="4" stroke-linecap="round" stroke-linejoin="round"/><circle cx="78" cy="25" r="10" fill="hsl(265 72% 52%)" stroke="hsl(265 58% 28%)" stroke-width="4" stroke-linecap="round" stroke-linejoin="round"/><circle cx="78" cy="75" r="10" fill="hsl(265 72% 52%)" stroke="hsl(265 58% 28%)" stroke-width="4" stroke-linecap="round" stroke-linejoin="round"/><path d="M32 50h17m0 0 19-22M49 50l19 22" fill="none" stroke="hsl(265 58% 28%)" stroke-width="4" stroke-linecap="round" stroke-linejoin="round"/></g><g transform="translate(300 500)"><rect x="2" y="2" width="96" height="96" rx="12" fill="hsl(81 75% 96%)" stroke="hsl(81 45% 84%)" stroke-width="2"/><circle cx="50" cy="49" r="29" fill="hsl(81 75% 93%)" stroke="hsl(81 58% 28%)" stroke-width="4" stroke-linecap="round" stroke-linejoin="round"/><circle cx="50" cy="49" r="12" fill="hsl(129 82% 56%)" stroke="hsl(81 58% 28%)" stroke-width="4" stroke-linecap="round" stroke-linejoin="round"/><path d="M50 12v10m0 54v10M13 49h10m54 0h10M24 23l8 8m36 36 8 8m0-52-8 8M32 67l-8 8" fill="none" stroke="hsl(81 58% 28%)" stroke-width="4" stroke-linecap="round" stroke-linejoin="round"/></g><g transform="translate(400 500)"><rect x="2" y="2" width="96" height="96" rx="12" fill="hsl(282 75% 96%)" stroke="hsl(282 45% 84%)" stroke-width="2"/><path d="M50 13 79 24v23q0 24-29 39Q21 71 21 47V24Z" fill="hsl(282 72% 52%)" stroke="hsl(282 58% 28%)" stroke-width="4" stroke-linecap="round" stroke-linejoin="round"/><path d="m34 50 10 10 23-25" fill="none" stroke="white" stroke-width="7" stroke-linecap="round" stroke-linejoin="round"/></g><g transform="translate(500 500)"><rect x="2" y="2" width="96" height="96" rx="12" fill="hsl(273 75% 96%)" stroke="hsl(273 45% 84%)" stroke-width="2"/><path d="M50 18v61M24 30h52M20 72h60M31 30 18 56h26Zm38 0L56 56h26Z" fill="hsl(273 75% 93%)" stroke="hsl(273 58% 28%)" stroke-width="4" stroke-linecap="round" stroke-linejoin="round"/><circle cx="50" cy="16" r="7" fill="hsl(321 82% 56%)" stroke="hsl(273 58% 28%)" stroke-width="4" stroke-linecap="round" stroke-linejoin="round"/></g></svg>
