<svg xmlns="http://www.w3.org/2000/svg" viewBox="0 0 600 600" width="600" height="600" role="img" aria-label="SmartLingo beginner semantic picture sprite"><rect width="600" height="600" fill="#f8fbff"/><g transform="translate(0 0)"><rect x="2" y="2" width="96" height="96" rx="12" fill="hsl(129 75% 96%)" stroke="hsl(129 45% 84%)" stroke-width="2"/><rect x="17" y="55" width="14" height="27" rx="4" fill="hsl(129 72% 52%)" stroke="hsl(129 58% 28%)" stroke-width="4" stroke-linecap="round" stroke-linejoin="round"/><rect x="43" y="39" width="14" height="43" rx="4" fill="hsl(177 82% 56%)" stroke="hsl(129 58% 28%)" stroke-width="4" stroke-linecap="round" stroke-linejoin="round"/><rect x="69" y="22" width="14" height="60" rx="4" fill="hsl(129 72% 52%)" stroke="hsl(129 58% 28%)" stroke-width="4" stroke-linecap="round" stroke-linejoin="round"/><path d="m14 28 18-12 18 8 24-14" fill="none" stroke="hsl(129 58% 28%)" stroke-width="4" stroke-linecap="round" stroke-linejoin="round"/></g><g transform="translate(100 0)"><rect x="2" y="2" width="96" height="96" rx="12" fill="hsl(357 75% 96%)" stroke="hsl(357 45% 84%)" stroke-width="2"/><circle cx="50" cy="51" r="32" fill="hsl(357 75% 93%)" stroke="hsl(357 58% 28%)" stroke-width="4" stroke-linecap="round" stroke-linejoin="round"/><path d="M50 51V31m0 20 17 10" fill="none" stroke="hsl(357 58% 28%)" stroke-width="4" stroke-linecap="round" stroke-linejoin="round"/><circle cx="50" cy="51" r="3" fill="hsl(357 58% 28%)"/></g><g transform="translate(200 0)"><rect x="2" y="2" width="96" height="96" rx="12" fill="hsl(339 75% 96%)" stroke="hsl(339 45% 84%)" stroke-width="2"/><circle cx="50" cy="22" r="12" fill="hsl(27 82% 56%)" stroke="hsl(339 58% 28%)" stroke-width="4" stroke-linecap="round" stroke-linejoin="round"/><circle cx="24" cy="72" r="12" fill="hsl(339 72% 52%)" stroke="hsl(339 58% 28%)" stroke-width="4" stroke-linecap="round" stroke-linejoin="round"/><circle cx="76" cy="72" r="12" fill="hsl(339 72% 52%)" stroke="hsl(339 58% 28%)" stroke-width="4" stroke-linecap="round" stroke-linejoin="round"/><path d="m44 33-14 27m26-27 14 27M36 72h28" fill="none" stroke="hsl(339 58% 28%)" stroke-width="4" stroke-linecap="round" stroke-linejoin="round"/></g><g transform="translate(300 0)"><rect x="2" y="2" width="96" height="96" rx="12" fill="hsl(350 75% 96%)" stroke="hsl(350 45% 84%)" stroke-width="2"/><path d="M50 13 79 24v23q0 24-29 39Q21 71 21 47V24Z" fill="hsl(350 72% 52%)" stroke="hsl(350 58% 28%)" stroke-width="4" stroke-linecap="round" stroke-linejoin="round"/><path d="m34 50 10 10 23-25" fill="none" stroke="white" stroke-width="7" stroke-linecap="round" stroke-linejoin="round"/></g><g transform="translate(400 0)"><rect x="2" y="2" width="96" height="96" rx="12" fill="hsl(289 75% 96%)" stroke="hsl(289 45% 84%)" stroke-width="2"/><circle cx="27" cy="31" r="9" fill="hsl(337 82% 56%)" stroke="hsl(289 58% 28%)" stroke-width="4" stroke-linecap="round" stroke-linejoin="round"/><path d="M27 42v24m0-14 14 8M27 51 15 62m12 4-10 15m10-15 13 14" fill="none" stroke="hsl(289 58% 28%)" stroke-width="4" stroke-linecap="round" stroke-linejoin="round"/><path d="M48 35h34m-12-10 12 10-12 10" fill="none" stroke="hsl(289 58% 28%)" stroke-width="4" stroke-linecap="round" stroke-linejoin="round"/></g><g transform="translate(500 0)"><rect x="2" y="2" width="96" height="96" rx="12" fill="hsl(198 75% 96%)" stroke="hsl(198 45% 84%)" stroke-width="2"/><circle cx="27" cy="31" r="9" fill="hsl(246 82% 56%)" stroke="hsl(198 58% 28%)" stroke-width="4" stroke-linecap="round" stroke-linejoin="round"/><path d="M27 42v24m0-14 14 8M27 51 15 62m12 4-10 15m10-15 13 14" fill="none" stroke="hsl(198 58% 28%)" stroke-width="4" stroke-linecap="round" stroke-linejoin="round"/><path d="M48 35h34m-12-10 12 10-12 10" fill="none" stroke="hsl(198 58% 28%)" stroke-width="4" stroke-linecap="round" stroke-linejoin="round"/></g><g transform="translate(0 100)"><rect x="2" y="2" width="96" height="96" rx="12" fill="hsl(277 75% 96%)" stroke="hsl(277 45% 84%)" stroke-width="2"/><circle cx="22" cy="50" r="10" fill="hsl(325 82% 56%)" stroke="hsl(277 58% 28%)" stroke-width="4" stroke-linecap="round" stroke-linejoin="round"/><circle cx="78" cy="25" r="10" fill="hsl(277 72% 52%)" stroke="hsl(277 58% 28%)" stroke-width="4" stroke-linecap="round" stroke-linejoin="round"/><circle cx="78" cy="75" r="10" fill="hsl(277 72% 52%)" stroke="hsl(277 58% 28%)" stroke-width="4" stroke-linecap="round" stroke-linejoin="round"/><path d="M32 50h17m0 0 19-22M49 50l19 22" fill="none" stroke="hsl(277 58% 28%)" stroke-width="4" stroke-linecap="round" stroke-linejoin="round"/></g><g transform="translate(100 100)"><rect x="2" y="2" width="96" height="96" rx="12" fill="hsl(326 75% 96%)" stroke="hsl(326 45% 84%)" stroke-width="2"/><path d="M50 18v61M24 30h52M20 72h60M31 30 18 56h26Zm38 0L56 56h26Z" fill="hsl(326 75% 93%)" stroke="hsl(326 58% 28%)" stroke-width="4" stroke-linecap="round" stroke-linejoin="round"/><circle cx="50" cy="16" r="7" fill="hsl(14 82% 56%)" stroke="hsl(326 58% 28%)" stroke-width="4" stroke-linecap="round" stroke-linejoin="round"/></g><g transform="translate(200 100)"><rect x="2" y="2" width="96" height="96" rx="12" fill="hsl(262 75% 96%)" stroke="hsl(262 45% 84%)" stroke-width="2"/><circle cx="50" cy="49" r="29" fill="hsl(262 75% 93%)" stroke="hsl(262 58% 28%)" stroke-width="4" stroke-linecap="round" stroke-linejoin="round"/><circle cx="50" cy="49" r="12" fill="hsl(310 82% 56%)" stroke="hsl(262 58% 28%)" stroke-width="4" stroke-linecap="round" stroke-linejoin="round"/><path d="M50 12v10m0 54v10M13 49h10m54 0h10M24 23l8 8m36 36 8 8m0-52-8 8M32 67l-8 8" fill="none" stroke="hsl(262 58% 28%)" stroke-width="4" stroke-linecap="round" stroke-linejoin="round"/></g><g transform="translate(300 100)"><rect x="2" y="2" width="96" height="96" rx="12" fill="hsl(26 75% 96%)" stroke="hsl(26 45% 84%)" stroke-width="2"/><circle cx="50" cy="50" r="34" fill="hsl(26 75% 93%)" stroke="hsl(26 58% 28%)" stroke-width="4" stroke-linecap="round" stroke-linejoin="round"/><circle cx="50" cy="50" r="23" fill="hsl(26 72% 52%)" stroke="hsl(26 58% 28%)" stroke-width="4" stroke-linecap="round" stroke-linejoin="round"/><circle cx="50" cy="50" r="11" fill="hsl(74 82% 56%)" stroke="hsl(26 58% 28%)" stroke-width="4" stroke-linecap="round" stroke-linejoin="round"/><path d="m77 23 11-11m-12 1 12-1-1 12" fill="none" stroke="hsl(26 58% 28%)" stroke-width="4" stroke-linecap="round" stroke-linejoin="round"/></g><g transform="translate(400 100)"><rect x="2" y="2" width="96" height="96" rx="12" fill="hsl(5 75% 96%)" stroke="hsl(5 45% 84%)" stroke-width="2"/><path d="M35 64q-13-9-13-25a28 28 0 0 1 56 0q0 16-13 25l-4 18H39Z" fill="hsl(53 82% 56%)" stroke="hsl(5 58% 28%)" stroke-width="4" stroke-linecap="round" stroke-linejoin="round"/><path d="M39 69h22M39 77h22M50 11v-7M17 19l-6-6m72 6 6-6" fill="none" stroke="hsl(5 58% 28%)" stroke-width="4" stroke-linecap="round" stroke-linejoin="round"/></g><g transform="translate(500 100)"><rect x="2" y="2" width="96" height="96" rx="12" fill="hsl(67 75% 96%)" stroke="hsl(67 45% 84%)" stroke-width="2"/><circle cx="22" cy="50" r="10" fill="hsl(115 82% 56%)" stroke="hsl(67 58% 28%)" stroke-width="4" stroke-linecap="round" stroke-linejoin="round"/><circle cx="78" cy="25" r="10" fill="hsl(67 72% 52%)" stroke="hsl(67 58% 28%)" stroke-width="4" stroke-linecap="round" stroke-linejoin="round"/><circle cx="78" cy="75" r="10" fill="hsl(67 72% 52%)" stroke="hsl(67 58% 28%)" stroke-width="4" stroke-linecap="round" stroke-linejoin="round"/><path d="M32 50h17m0 0 19-22M49 50l19 22" fill="none" stroke="hsl(67 58% 28%)" stroke-width="4" stroke-linecap="round" stroke-linejoin="round"/></g><g transform="translate(0 200)"><rect x="2" y="2" width="96" height="96" rx="12" fill="hsl(159 75% 96%)" stroke="hsl(159 45% 84%)" stroke-width="2"/><circle cx="27" cy="31" r="9" fill="hsl(207 82% 56%)" stroke="hsl(159 58% 28%)" stroke-width="4" stroke-linecap="round" stroke-linejoin="round"/><path d="M27 42v24m0-14 14 8M27 51 15 62m12 4-10 15m10-15 13 14" fill="none" stroke="hsl(159 58% 28%)" stroke-width="4" stroke-linecap="round" stroke-linejoin="round"/><path d="M48 35h34m-12-10 12 10-12 10" fill="none" stroke="hsl(159 58% 28%)" stroke-width="4" stroke-linecap="round" stroke-linejoin="round"/></g><g transform="translate(100 200)"><rect x="2" y="2" width="96" height="96" rx="12" fill="hsl(63 75% 96%)" stroke="hsl(63 45% 84%)" stroke-width="2"/><circle cx="50" cy="50" r="31" fill="hsl(111 82% 56%)" stroke="hsl(63 58% 28%)" stroke-width="4" stroke-linecap="round" stroke-linejoin="round"/><path d="M61 35q-7-8-18-3-9 4-2 12l18 8q8 7-1 14-12 8-22-3M50 24v52" fill="none" stroke="hsl(63 58% 28%)" stroke-width="4" stroke-linecap="round" stroke-linejoin="round"/></g><g transform="translate(200 200)"><rect x="2" y="2" width="96" height="96" rx="12" fill="hsl(28 75% 96%)" stroke="hsl(28 45% 84%)" stroke-width="2"/><circle cx="50" cy="50" r="31" fill="hsl(76 82% 56%)" stroke="hsl(28 58% 28%)" stroke-width="4" stroke-linecap="round" stroke-linejoin="round"/><path d="M61 35q-7-8-18-3-9 4-2 12l18 8q8 7-1 14-12 8-22-3M50 24v52" fill="none" stroke="hsl(28 58% 28%)" stroke-width="4" stroke-linecap="round" stroke-linejoin="round"/></g><g transform="translate(300 200)"><rect x="2" y="2" width="96" height="96" rx="12" fill="hsl(97 75% 96%)" stroke="hsl(97 45% 84%)" stroke-width="2"/><path d="m50 12 10 22 24 3-18 17 5 24-21-12-21 12 5-24-18-17 24-3Z" fill="hsl(145 82% 56%)" stroke="hsl(97 58% 28%)" stroke-width="4" stroke-linecap="round" stroke-linejoin="round"/><path d="M16 19c19-11 47-11 68 0M16 81c19 11 47 11 68 0" fill="none" stroke="hsl(97 58% 28%)" stroke-width="4" stroke-linecap="round" stroke-linejoin="round"/></g><g transform="translate(400 200)"><rect x="2" y="2" width="96" height="96" rx="12" fill="hsl(11 75% 96%)" stroke="hsl(11 45% 84%)" stroke-width="2"/><circle cx="50" cy="50" r="34" fill="hsl(11 75% 93%)" stroke="hsl(11 58% 28%)" stroke-width="4" stroke-linecap="round" stroke-linejoin="round"/><circle cx="50" cy="50" r="23" fill="hsl(11 72% 52%)" stroke="hsl(11 58% 28%)" stroke-width="4" stroke-linecap="round" stroke-linejoin="round"/><circle cx="50" cy="50" r="11" fill="hsl(59 82% 56%)" stroke="hsl(11 58% 28%)" stroke-width="4" stroke-linecap="round" stroke-linejoin="round"/><path d="m77 23 11-11m-12 1 12-1-1 12" fill="none" stroke="hsl(11 58% 28%)" stroke-width="4" stroke-linecap="round" stroke-linejoin="round"/></g><g transform="translate(500 200)"><rect x="2" y="2" width="96" height="96" rx="12" fill="hsl(4 75% 96%)" stroke="hsl(4 45% 84%)" stroke-width="2"/><path d="M35 64q-13-9-13-25a28 28 0 0 1 56 0q0 16-13 25l-4 18H39Z" fill="hsl(52 82% 56%)" stroke="hsl(4 58% 28%)" stroke-width="4" stroke-linecap="round" stroke-linejoin="round"/><path d="M39 69h22M39 77h22M50 11v-7M17 19l-6-6m72 6 6-6" fill="none" stroke="hsl(4 58% 28%)" stroke-width="4" stroke-linecap="round" stroke-linejoin="round"/></g><g transform="translate(0 300)"><rect x="2" y="2" width="96" height="96" rx="12" fill="hsl(156 75% 96%)" stroke="hsl(156 45% 84%)" stroke-width="2"/><path d="m50 12 10 22 24 3-18 17 5 24-21-12-21 12 5-24-18-17 24-3Z" fill="hsl(204 82% 56%)" stroke="hsl(156 58% 28%)" stroke-width="4" stroke-linecap="round" stroke-linejoin="round"/><path d="M16 19c19-11 47-11 68 0M16 81c19 11 47 11 68 0" fill="none" stroke="hsl(156 58% 28%)" stroke-width="4" stroke-linecap="round" stroke-linejoin="round"/></g><g transform="translate(100 300)"><rect x="2" y="2" width="96" height="96" rx="12" fill="hsl(150 75% 96%)" stroke="hsl(150 45% 84%)" stroke-width="2"/><circle cx="50" cy="50" r="34" fill="hsl(150 75% 93%)" stroke="hsl(150 58% 28%)" stroke-width="4" stroke-linecap="round" stroke-linejoin="round"/><circle cx="50" cy="50" r="23" fill="hsl(150 72% 52%)" stroke="hsl(150 58% 28%)" stroke-width="4" stroke-linecap="round" stroke-linejoin="round"/><circle cx="50" cy="50" r="11" fill="hsl(198 82% 56%)" stroke="hsl(150 58% 28%)" stroke-width="4" stroke-linecap="round" stroke-linejoin="round"/><path d="m77 23 11-11m-12 1 12-1-1 12" fill="none" stroke="hsl(150 58% 28%)" stroke-width="4" stroke-linecap="round" stroke-linejoin="round"/></g><g transform="translate(200 300)"><rect x="2" y="2" width="96" height="96" rx="12" fill="hsl(98 75% 96%)" stroke="hsl(98 45% 84%)" stroke-width="2"/><circle cx="50" cy="49" r="29" fill="hsl(98 75% 93%)" stroke="hsl(98 58% 28%)" stroke-width="4" stroke-linecap="round" stroke-linejoin="round"/><circle cx="50" cy="49" r="12" fill="hsl(146 82% 56%)" stroke="hsl(98 58% 28%)" stroke-width="4" stroke-linecap="round" stroke-linejoin="round"/><path d="M50 12v10m0 54v10M13 49h10m54 0h10M24 23l8 8m36 36 8 8m0-52-8 8M32 67l-8 8" fill="none" stroke="hsl(98 58% 28%)" stroke-width="4" stroke-linecap="round" stroke-linejoin="round"/></g><g transform="translate(300 300)"><rect x="2" y="2" width="96" height="96" rx="12" fill="hsl(355 75% 96%)" stroke="hsl(355 45% 84%)" stroke-width="2"/><path d="M17 45 50 19l33 26v38H17Z" fill="hsl(355 75% 93%)" stroke="hsl(355 58% 28%)" stroke-width="4" stroke-linecap="round" stroke-linejoin="round"/><path d="M41 83V57h18v26M27 50h10v11H27m36-11h10v11H63" fill="hsl(43 82% 56%)" stroke="hsl(355 58% 28%)" stroke-width="4" stroke-linecap="round" stroke-linejoin="round"/></g><g transform="translate(400 300)"><rect x="2" y="2" width="96" height="96" rx="12" fill="hsl(178 75% 96%)" stroke="hsl(178 45% 84%)" stroke-width="2"/><path d="m50 12 10 22 24 3-18 17 5 24-21-12-21 12 5-24-18-17 24-3Z" fill="hsl(226 82% 56%)" stroke="hsl(178 58% 28%)" stroke-width="4" stroke-linecap="round" stroke-linejoin="round"/><path d="M16 19c19-11 47-11 68 0M16 81c19 11 47 11 68 0" fill="none" stroke="hsl(178 58% 28%)" stroke-width="4" stroke-linecap="round" stroke-linejoin="round"/></g><g transform="translate(500 300)"><rect x="2" y="2" width="96" height="96" rx="12" fill="hsl(318 75% 96%)" stroke="hsl(318 45% 84%)" stroke-width="2"/><path d="M50 13 79 24v23q0 24-29 39Q21 71 21 47V24Z" fill="hsl(318 72% 52%)" stroke="hsl(318 58% 28%)" stroke-width="4" stroke-linecap="round" stroke-linejoin="round"/><path d="m34 50 10 10 23-25" fill="none" stroke="white" stroke-width="7" stroke-linecap="round" stroke-linejoin="round"/></g><g transform="translate(0 400)"><rect x="2" y="2" width="96" height="96" rx="12" fill="hsl(150 75% 96%)" stroke="hsl(150 45% 84%)" stroke-width="2"/><circle cx="50" cy="22" r="12" fill="hsl(198 82% 56%)" stroke="hsl(150 58% 28%)" stroke-width="4" stroke-linecap="round" stroke-linejoin="round"/><circle cx="24" cy="72" r="12" fill="hsl(150 72% 52%)" stroke="hsl(150 58% 28%)" stroke-width="4" stroke-linecap="round" stroke-linejoin="round"/><circle cx="76" cy="72" r="12" fill="hsl(150 72% 52%)" stroke="hsl(150 58% 28%)" stroke-width="4" stroke-linecap="round" stroke-linejoin="round"/><path d="m44 33-14 27m26-27 14 27M36 72h28" fill="none" stroke="hsl(150 58% 28%)" stroke-width="4" stroke-linecap="round" stroke-linejoin="round"/></g><g transform="translate(100 400)"><rect x="2" y="2" width="96" height="96" rx="12" fill="hsl(134 75% 96%)" stroke="hsl(134 45% 84%)" stroke-width="2"/><circle cx="50" cy="31" r="13" fill="hsl(182 82% 56%)" stroke="hsl(134 58% 28%)" stroke-width="4" stroke-linecap="round" stroke-linejoin="round"/><path d="M27 78c2-22 11-32 23-32s21 10 23 32" fill="hsl(134 72% 52%)" stroke="hsl(134 58% 28%)" stroke-width="4" stroke-linecap="round" stroke-linejoin="round"/><circle cx="26" cy="47" r="8" fill="hsl(134 75% 93%)" stroke="hsl(134 58% 28%)" stroke-width="4" stroke-linecap="round" stroke-linejoin="round"/><circle cx="74" cy="47" r="8" fill="hsl(134 75% 93%)" stroke="hsl(134 58% 28%)" stroke-width="4" stroke-linecap="round" stroke-linejoin="round"/></g><g transform="translate(200 400)"><rect x="2" y="2" width="96" height="96" rx="12" fill="hsl(153 75% 96%)" stroke="hsl(153 45% 84%)" stroke-width="2"/><path d="M50 13 79 24v23q0 24-29 39Q21 71 21 47V24Z" fill="hsl(153 72% 52%)" stroke="hsl(153 58% 28%)" stroke-width="4" stroke-linecap="round" stroke-linejoin="round"/><path d="m34 50 10 10 23-25" fill="none" stroke="white" stroke-width="7" stroke-linecap="round" stroke-linejoin="round"/></g><g transform="translate(300 400)"><rect x="2" y="2" width="96" height="96" rx="12" fill="hsl(13 75% 96%)" stroke="hsl(13 45% 84%)" stroke-width="2"/><path d="m50 12 10 22 24 3-18 17 5 24-21-12-21 12 5-24-18-17 24-3Z" fill="hsl(61 82% 56%)" stroke="hsl(13 58% 28%)" stroke-width="4" stroke-linecap="round" stroke-linejoin="round"/><path d="M16 19c19-11 47-11 68 0M16 81c19 11 47 11 68 0" fill="none" stroke="hsl(13 58% 28%)" stroke-width="4" stroke-linecap="round" stroke-linejoin="round"/></g><g transform="translate(400 400)"><rect x="2" y="2" width="96" height="96" rx="12" fill="hsl(246 75% 96%)" stroke="hsl(246 45% 84%)" stroke-width="2"/><circle cx="22" cy="50" r="10" fill="hsl(294 82% 56%)" stroke="hsl(246 58% 28%)" stroke-width="4" stroke-linecap="round" stroke-linejoin="round"/><circle cx="78" cy="25" r="10" fill="hsl(246 72% 52%)" stroke="hsl(246 58% 28%)" stroke-width="4" stroke-linecap="round" stroke-linejoin="round"/><circle cx="78" cy="75" r="10" fill="hsl(246 72% 52%)" stroke="hsl(246 58% 28%)" stroke-width="4" stroke-linecap="round" stroke-linejoin="round"/><path d="M32 50h17m0 0 19-22M49 50l19 22" fill="none" stroke="hsl(246 58% 28%)" stroke-width="4" stroke-linecap="round" stroke-linejoin="round"/></g><g transform="translate(500 400)"><rect x="2" y="2" width="96" height="96" rx="12" fill="hsl(59 75% 96%)" stroke="hsl(59 45% 84%)" stroke-width="2"/><circle cx="50" cy="50" r="34" fill="hsl(59 75% 93%)" stroke="hsl(59 58% 28%)" stroke-width="4" stroke-linecap="round" stroke-linejoin="round"/><circle cx="50" cy="50" r="23" fill="hsl(59 72% 52%)" stroke="hsl(59 58% 28%)" stroke-width="4" stroke-linecap="round" stroke-linejoin="round"/><circle cx="50" cy="50" r="11" fill="hsl(107 82% 56%)" stroke="hsl(59 58% 28%)" stroke-width="4" stroke-linecap="round" stroke-linejoin="round"/><path d="m77 23 11-11m-12 1 12-1-1 12" fill="none" stroke="hsl(59 58% 28%)" stroke-width="4" stroke-linecap="round" stroke-linejoin="round"/></g><g transform="translate(0 500)"><rect x="2" y="2" width="96" height="96" rx="12" fill="hsl(283 75% 96%)" stroke="hsl(283 45% 84%)" stroke-width="2"/><path d="M50 13 79 24v23q0 24-29 39Q21 71 21 47V24Z" fill="hsl(283 72% 52%)" stroke="hsl(283 58% 28%)" stroke-width="4" stroke-linecap="round" stroke-linejoin="round"/><path d="m34 50 10 10 23-25" fill="none" stroke="white" stroke-width="7" stroke-linecap="round" stroke-linejoin="round"/></g><g transform="translate(100 500)"><rect x="2" y="2" width="96" height="96" rx="12" fill="hsl(197 75% 96%)" stroke="hsl(197 45% 84%)" stroke-width="2"/><path d="m50 12 10 22 24 3-18 17 5 24-21-12-21 12 5-24-18-17 24-3Z" fill="hsl(245 82% 56%)" stroke="hsl(197 58% 28%)" stroke-width="4" stroke-linecap="round" stroke-linejoin="round"/><path d="M16 19c19-11 47-11 68 0M16 81c19 11 47 11 68 0" fill="none" stroke="hsl(197 58% 28%)" stroke-width="4" stroke-linecap="round" stroke-linejoin="round"/></g><g transform="translate(200 500)"><rect x="2" y="2" width="96" height="96" rx="12" fill="hsl(215 75% 96%)" stroke="hsl(215 45% 84%)" stroke-width="2"/><circle cx="50" cy="22" r="12" fill="hsl(263 82% 56%)" stroke="hsl(215 58% 28%)" stroke-width="4" stroke-linecap="round" stroke-linejoin="round"/><circle cx="24" cy="72" r="12" fill="hsl(215 72% 52%)" stroke="hsl(215 58% 28%)" stroke-width="4" stroke-linecap="round" stroke-linejoin="round"/><circle cx="76" cy="72" r="12" fill="hsl(215 72% 52%)" stroke="hsl(215 58% 28%)" stroke-width="4" stroke-linecap="round" stroke-linejoin="round"/><path d="m44 33-14 27m26-27 14 27M36 72h28" fill="none" stroke="hsl(215 58% 28%)" stroke-width="4" stroke-linecap="round" stroke-linejoin="round"/></g><g transform="translate(300 500)"><rect x="2" y="2" width="96" height="96" rx="12" fill="hsl(148 75% 96%)" stroke="hsl(148 45% 84%)" stroke-width="2"/><circle cx="50" cy="50" r="34" fill="hsl(148 75% 93%)" stroke="hsl(148 58% 28%)" stroke-width="4" stroke-linecap="round" stroke-linejoin="round"/><circle cx="50" cy="50" r="23" fill="hsl(148 72% 52%)" stroke="hsl(148 58% 28%)" stroke-width="4" stroke-linecap="round" stroke-linejoin="round"/><circle cx="50" cy="50" r="11" fill="hsl(196 82% 56%)" stroke="hsl(148 58% 28%)" stroke-width="4" stroke-linecap="round" stroke-linejoin="round"/><path d="m77 23 11-11m-12 1 12-1-1 12" fill="none" stroke="hsl(148 58% 28%)" stroke-width="4" stroke-linecap="round" stroke-linejoin="round"/></g><g transform="translate(400 500)"><rect x="2" y="2" width="96" height="96" rx="12" fill="hsl(193 75% 96%)" stroke="hsl(193 45% 84%)" stroke-width="2"/><rect x="17" y="55" width="14" height="27" rx="4" fill="hsl(193 72% 52%)" stroke="hsl(193 58% 28%)" stroke-width="4" stroke-linecap="round" stroke-linejoin="round"/><rect x="43" y="39" width="14" height="43" rx="4" fill="hsl(241 82% 56%)" stroke="hsl(193 58% 28%)" stroke-width="4" stroke-linecap="round" stroke-linejoin="round"/><rect x="69" y="22" width="14" height="60" rx="4" fill="hsl(193 72% 52%)" stroke="hsl(193 58% 28%)" stroke-width="4" stroke-linecap="round" stroke-linejoin="round"/><path d="m14 28 18-12 18 8 24-14" fill="none" stroke="hsl(193 58% 28%)" stroke-width="4" stroke-linecap="round" stroke-linejoin="round"/></g><g transform="translate(500 500)"><rect x="2" y="2" width="96" height="96" rx="12" fill="hsl(162 75% 96%)" stroke="hsl(162 45% 84%)" stroke-width="2"/><ellipse cx="50" cy="55" rx="27" ry="23" fill="hsl(162 72% 52%)" stroke="hsl(162 58% 28%)" stroke-width="4" stroke-linecap="round" stroke-linejoin="round"/><circle cx="39" cy="51" r="3" fill="hsl(162 58% 28%)"/><circle cx="61" cy="51" r="3" fill="hsl(162 58% 28%)"/><path d="m33 31-11-12 2 25m43-13 11-12-2 25M42 64q8 7 16 0" fill="hsl(210 82% 56%)" stroke="hsl(162 58% 28%)" stroke-width="4" stroke-linecap="round" stroke-linejoin="round"/></g></svg>
