<svg xmlns="http://www.w3.org/2000/svg" viewBox="0 0 600 600" width="600" height="600" role="img" aria-label="SmartLingo beginner semantic picture sprite"><rect width="600" height="600" fill="#f8fbff"/><g transform="translate(0 0)"><rect x="2" y="2" width="96" height="96" rx="12" fill="hsl(270 75% 96%)" stroke="hsl(270 45% 84%)" stroke-width="2"/><circle cx="50" cy="50" r="34" fill="hsl(270 75% 93%)" stroke="hsl(270 58% 28%)" stroke-width="4" stroke-linecap="round" stroke-linejoin="round"/><circle cx="50" cy="50" r="23" fill="hsl(270 72% 52%)" stroke="hsl(270 58% 28%)" stroke-width="4" stroke-linecap="round" stroke-linejoin="round"/><circle cx="50" cy="50" r="11" fill="hsl(318 82% 56%)" stroke="hsl(270 58% 28%)" stroke-width="4" stroke-linecap="round" stroke-linejoin="round"/><path d="m77 23 11-11m-12 1 12-1-1 12" fill="none" stroke="hsl(270 58% 28%)" stroke-width="4" stroke-linecap="round" stroke-linejoin="round"/></g><g transform="translate(100 0)"><rect x="2" y="2" width="96" height="96" rx="12" fill="hsl(163 75% 96%)" stroke="hsl(163 45% 84%)" stroke-width="2"/><path d="M50 13 79 24v23q0 24-29 39Q21 71 21 47V24Z" fill="hsl(163 72% 52%)" stroke="hsl(163 58% 28%)" stroke-width="4" stroke-linecap="round" stroke-linejoin="round"/><path d="m34 50 10 10 23-25" fill="none" stroke="white" stroke-width="7" stroke-linecap="round" stroke-linejoin="round"/></g><g transform="translate(200 0)"><rect x="2" y="2" width="96" height="96" rx="12" fill="hsl(108 75% 96%)" stroke="hsl(108 45% 84%)" stroke-width="2"/><path d="M12 22h55v39H36L22 75V61H12Z" fill="hsl(108 75% 93%)" stroke="hsl(108 58% 28%)" stroke-width="4" stroke-linecap="round" stroke-linejoin="round"/><path d="M41 49h47v31H62L50 89v-9h-9Z" fill="hsl(156 82% 56%)" stroke="hsl(108 58% 28%)" stroke-width="4" stroke-linecap="round" stroke-linejoin="round"/><circle cx="28" cy="42" r="3" fill="hsl(108 58% 28%)"/><circle cx="40" cy="42" r="3" fill="hsl(108 58% 28%)"/><circle cx="52" cy="42" r="3" fill="hsl(108 58% 28%)"/></g><g transform="translate(300 0)"><rect x="2" y="2" width="96" height="96" rx="12" fill="hsl(3 75% 96%)" stroke="hsl(3 45% 84%)" stroke-width="2"/><path d="M12 22h55v39H36L22 75V61H12Z" fill="hsl(3 75% 93%)" stroke="hsl(3 58% 28%)" stroke-width="4" stroke-linecap="round" stroke-linejoin="round"/><path d="M41 49h47v31H62L50 89v-9h-9Z" fill="hsl(51 82% 56%)" stroke="hsl(3 58% 28%)" stroke-width="4" stroke-linecap="round" stroke-linejoin="round"/><circle cx="28" cy="42" r="3" fill="hsl(3 58% 28%)"/><circle cx="40" cy="42" r="3" fill="hsl(3 58% 28%)"/><circle cx="52" cy="42" r="3" fill="hsl(3 58% 28%)"/></g><g transform="translate(400 0)"><rect x="2" y="2" width="96" height="96" rx="12" fill="hsl(333 75% 96%)" stroke="hsl(333 45% 84%)" stroke-width="2"/><rect x="17" y="55" width="14" height="27" rx="4" fill="hsl(333 72% 52%)" stroke="hsl(333 58% 28%)" stroke-width="4" stroke-linecap="round" stroke-linejoin="round"/><rect x="43" y="39" width="14" height="43" rx="4" fill="hsl(21 82% 56%)" stroke="hsl(333 58% 28%)" stroke-width="4" stroke-linecap="round" stroke-linejoin="round"/><rect x="69" y="22" width="14" height="60" rx="4" fill="hsl(333 72% 52%)" stroke="hsl(333 58% 28%)" stroke-width="4" stroke-linecap="round" stroke-linejoin="round"/><path d="m14 28 18-12 18 8 24-14" fill="none" stroke="hsl(333 58% 28%)" stroke-width="4" stroke-linecap="round" stroke-linejoin="round"/></g><g transform="translate(500 0)"><rect x="2" y="2" width="96" height="96" rx="12" fill="hsl(201 75% 96%)" stroke="hsl(201 45% 84%)" stroke-width="2"/><rect x="17" y="55" width="14" height="27" rx="4" fill="hsl(201 72% 52%)" stroke="hsl(201 58% 28%)" stroke-width="4" stroke-linecap="round" stroke-linejoin="round"/><rect x="43" y="39" width="14" height="43" rx="4" fill="hsl(249 82% 56%)" stroke="hsl(201 58% 28%)" stroke-width="4" stroke-linecap="round" stroke-linejoin="round"/><rect x="69" y="22" width="14" height="60" rx="4" fill="hsl(201 72% 52%)" stroke="hsl(201 58% 28%)" stroke-width="4" stroke-linecap="round" stroke-linejoin="round"/><path d="m14 28 18-12 18 8 24-14" fill="none" stroke="hsl(201 58% 28%)" stroke-width="4" stroke-linecap="round" stroke-linejoin="round"/></g><g transform="translate(0 100)"><rect x="2" y="2" width="96" height="96" rx="12" fill="hsl(51 75% 96%)" stroke="hsl(51 45% 84%)" stroke-width="2"/><path d="M17 45 50 19l33 26v38H17Z" fill="hsl(51 75% 93%)" stroke="hsl(51 58% 28%)" stroke-width="4" stroke-linecap="round" stroke-linejoin="round"/><path d="M41 83V57h18v26M27 50h10v11H27m36-11h10v11H63" fill="hsl(99 82% 56%)" stroke="hsl(51 58% 28%)" stroke-width="4" stroke-linecap="round" stroke-linejoin="round"/></g><g transform="translate(100 100)"><rect x="2" y="2" width="96" height="96" rx="12" fill="hsl(227 75% 96%)" stroke="hsl(227 45% 84%)" stroke-width="2"/><rect x="17" y="55" width="14" height="27" rx="4" fill="hsl(227 72% 52%)" stroke="hsl(227 58% 28%)" stroke-width="4" stroke-linecap="round" stroke-linejoin="round"/><rect x="43" y="39" width="14" height="43" rx="4" fill="hsl(275 82% 56%)" stroke="hsl(227 58% 28%)" stroke-width="4" stroke-linecap="round" stroke-linejoin="round"/><rect x="69" y="22" width="14" height="60" rx="4" fill="hsl(227 72% 52%)" stroke="hsl(227 58% 28%)" stroke-width="4" stroke-linecap="round" stroke-linejoin="round"/><path d="m14 28 18-12 18 8 24-14" fill="none" stroke="hsl(227 58% 28%)" stroke-width="4" stroke-linecap="round" stroke-linejoin="round"/></g><g transform="translate(200 100)"><rect x="2" y="2" width="96" height="96" rx="12" fill="hsl(265 75% 96%)" stroke="hsl(265 45% 84%)" stroke-width="2"/><circle cx="50" cy="50" r="34" fill="hsl(265 75% 93%)" stroke="hsl(265 58% 28%)" stroke-width="4" stroke-linecap="round" stroke-linejoin="round"/><circle cx="50" cy="50" r="23" fill="hsl(265 72% 52%)" stroke="hsl(265 58% 28%)" stroke-width="4" stroke-linecap="round" stroke-linejoin="round"/><circle cx="50" cy="50" r="11" fill="hsl(313 82% 56%)" stroke="hsl(265 58% 28%)" stroke-width="4" stroke-linecap="round" stroke-linejoin="round"/><path d="m77 23 11-11m-12 1 12-1-1 12" fill="none" stroke="hsl(265 58% 28%)" stroke-width="4" stroke-linecap="round" stroke-linejoin="round"/></g><g transform="translate(300 100)"><rect x="2" y="2" width="96" height="96" rx="12" fill="hsl(306 75% 96%)" stroke="hsl(306 45% 84%)" stroke-width="2"/><circle cx="50" cy="50" r="34" fill="hsl(306 75% 93%)" stroke="hsl(306 58% 28%)" stroke-width="4" stroke-linecap="round" stroke-linejoin="round"/><circle cx="50" cy="50" r="23" fill="hsl(306 72% 52%)" stroke="hsl(306 58% 28%)" stroke-width="4" stroke-linecap="round" stroke-linejoin="round"/><circle cx="50" cy="50" r="11" fill="hsl(354 82% 56%)" stroke="hsl(306 58% 28%)" stroke-width="4" stroke-linecap="round" stroke-linejoin="round"/><path d="m77 23 11-11m-12 1 12-1-1 12" fill="none" stroke="hsl(306 58% 28%)" stroke-width="4" stroke-linecap="round" stroke-linejoin="round"/></g><g transform="translate(400 100)"><rect x="2" y="2" width="96" height="96" rx="12" fill="hsl(243 75% 96%)" stroke="hsl(243 45% 84%)" stroke-width="2"/><circle cx="50" cy="50" r="34" fill="hsl(243 75% 93%)" stroke="hsl(243 58% 28%)" stroke-width="4" stroke-linecap="round" stroke-linejoin="round"/><circle cx="50" cy="50" r="23" fill="hsl(243 72% 52%)" stroke="hsl(243 58% 28%)" stroke-width="4" stroke-linecap="round" stroke-linejoin="round"/><circle cx="50" cy="50" r="11" fill="hsl(291 82% 56%)" stroke="hsl(243 58% 28%)" stroke-width="4" stroke-linecap="round" stroke-linejoin="round"/><path d="m77 23 11-11m-12 1 12-1-1 12" fill="none" stroke="hsl(243 58% 28%)" stroke-width="4" stroke-linecap="round" stroke-linejoin="round"/></g><g transform="translate(500 100)"><rect x="2" y="2" width="96" height="96" rx="12" fill="hsl(241 75% 96%)" stroke="hsl(241 45% 84%)" stroke-width="2"/><path d="M50 18v61M24 30h52M20 72h60M31 30 18 56h26Zm38 0L56 56h26Z" fill="hsl(241 75% 93%)" stroke="hsl(241 58% 28%)" stroke-width="4" stroke-linecap="round" stroke-linejoin="round"/><circle cx="50" cy="16" r="7" fill="hsl(289 82% 56%)" stroke="hsl(241 58% 28%)" stroke-width="4" stroke-linecap="round" stroke-linejoin="round"/></g><g transform="translate(0 200)"><rect x="2" y="2" width="96" height="96" rx="12" fill="hsl(169 75% 96%)" stroke="hsl(169 45% 84%)" stroke-width="2"/><path d="m50 12 10 22 24 3-18 17 5 24-21-12-21 12 5-24-18-17 24-3Z" fill="hsl(217 82% 56%)" stroke="hsl(169 58% 28%)" stroke-width="4" stroke-linecap="round" stroke-linejoin="round"/><path d="M16 19c19-11 47-11 68 0M16 81c19 11 47 11 68 0" fill="none" stroke="hsl(169 58% 28%)" stroke-width="4" stroke-linecap="round" stroke-linejoin="round"/></g><g transform="translate(100 200)"><rect x="2" y="2" width="96" height="96" rx="12" fill="hsl(80 75% 96%)" stroke="hsl(80 45% 84%)" stroke-width="2"/><circle cx="50" cy="51" r="32" fill="hsl(80 75% 93%)" stroke="hsl(80 58% 28%)" stroke-width="4" stroke-linecap="round" stroke-linejoin="round"/><path d="M50 51V31m0 20 17 10" fill="none" stroke="hsl(80 58% 28%)" stroke-width="4" stroke-linecap="round" stroke-linejoin="round"/><circle cx="50" cy="51" r="3" fill="hsl(80 58% 28%)"/></g><g transform="translate(200 200)"><rect x="2" y="2" width="96" height="96" rx="12" fill="hsl(180 75% 96%)" stroke="hsl(180 45% 84%)" stroke-width="2"/><circle cx="50" cy="51" r="32" fill="hsl(180 75% 93%)" stroke="hsl(180 58% 28%)" stroke-width="4" stroke-linecap="round" stroke-linejoin="round"/><path d="M50 51V31m0 20 17 10" fill="none" stroke="hsl(180 58% 28%)" stroke-width="4" stroke-linecap="round" stroke-linejoin="round"/><circle cx="50" cy="51" r="3" fill="hsl(180 58% 28%)"/></g><g transform="translate(300 200)"><rect x="2" y="2" width="96" height="96" rx="12" fill="hsl(158 75% 96%)" stroke="hsl(158 45% 84%)" stroke-width="2"/><circle cx="50" cy="49" r="29" fill="hsl(158 75% 93%)" stroke="hsl(158 58% 28%)" stroke-width="4" stroke-linecap="round" stroke-linejoin="round"/><circle cx="50" cy="49" r="12" fill="hsl(206 82% 56%)" stroke="hsl(158 58% 28%)" stroke-width="4" stroke-linecap="round" stroke-linejoin="round"/><path d="M50 12v10m0 54v10M13 49h10m54 0h10M24 23l8 8m36 36 8 8m0-52-8 8M32 67l-8 8" fill="none" stroke="hsl(158 58% 28%)" stroke-width="4" stroke-linecap="round" stroke-linejoin="round"/></g><g transform="translate(400 200)"><rect x="2" y="2" width="96" height="96" rx="12" fill="hsl(207 75% 96%)" stroke="hsl(207 45% 84%)" stroke-width="2"/><path d="M50 13 79 24v23q0 24-29 39Q21 71 21 47V24Z" fill="hsl(207 72% 52%)" stroke="hsl(207 58% 28%)" stroke-width="4" stroke-linecap="round" stroke-linejoin="round"/><path d="m34 50 10 10 23-25" fill="none" stroke="white" stroke-width="7" stroke-linecap="round" stroke-linejoin="round"/></g><g transform="translate(500 200)"><rect x="2" y="2" width="96" height="96" rx="12" fill="hsl(288 75% 96%)" stroke="hsl(288 45% 84%)" stroke-width="2"/><circle cx="50" cy="22" r="12" fill="hsl(336 82% 56%)" stroke="hsl(288 58% 28%)" stroke-width="4" stroke-linecap="round" stroke-linejoin="round"/><circle cx="24" cy="72" r="12" fill="hsl(288 72% 52%)" stroke="hsl(288 58% 28%)" stroke-width="4" stroke-linecap="round" stroke-linejoin="round"/><circle cx="76" cy="72" r="12" fill="hsl(288 72% 52%)" stroke="hsl(288 58% 28%)" stroke-width="4" stroke-linecap="round" stroke-linejoin="round"/><path d="m44 33-14 27m26-27 14 27M36 72h28" fill="none" stroke="hsl(288 58% 28%)" stroke-width="4" stroke-linecap="round" stroke-linejoin="round"/></g><g transform="translate(0 300)"><rect x="2" y="2" width="96" height="96" rx="12" fill="hsl(150 75% 96%)" stroke="hsl(150 45% 84%)" stroke-width="2"/><path d="M17 45 50 19l33 26v38H17Z" fill="hsl(150 75% 93%)" stroke="hsl(150 58% 28%)" stroke-width="4" stroke-linecap="round" stroke-linejoin="round"/><path d="M41 83V57h18v26M27 50h10v11H27m36-11h10v11H63" fill="hsl(198 82% 56%)" stroke="hsl(150 58% 28%)" stroke-width="4" stroke-linecap="round" stroke-linejoin="round"/></g><g transform="translate(100 300)"><rect x="2" y="2" width="96" height="96" rx="12" fill="hsl(192 75% 96%)" stroke="hsl(192 45% 84%)" stroke-width="2"/><path d="M50 18v61M24 30h52M20 72h60M31 30 18 56h26Zm38 0L56 56h26Z" fill="hsl(192 75% 93%)" stroke="hsl(192 58% 28%)" stroke-width="4" stroke-linecap="round" stroke-linejoin="round"/><circle cx="50" cy="16" r="7" fill="hsl(240 82% 56%)" stroke="hsl(192 58% 28%)" stroke-width="4" stroke-linecap="round" stroke-linejoin="round"/></g><g transform="translate(200 300)"><rect x="2" y="2" width="96" height="96" rx="12" fill="hsl(11 75% 96%)" stroke="hsl(11 45% 84%)" stroke-width="2"/><path d="M35 64q-13-9-13-25a28 28 0 0 1 56 0q0 16-13 25l-4 18H39Z" fill="hsl(59 82% 56%)" stroke="hsl(11 58% 28%)" stroke-width="4" stroke-linecap="round" stroke-linejoin="round"/><path d="M39 69h22M39 77h22M50 11v-7M17 19l-6-6m72 6 6-6" fill="none" stroke="hsl(11 58% 28%)" stroke-width="4" stroke-linecap="round" stroke-linejoin="round"/></g><g transform="translate(300 300)"><rect x="2" y="2" width="96" height="96" rx="12" fill="hsl(10 75% 96%)" stroke="hsl(10 45% 84%)" stroke-width="2"/><circle cx="50" cy="22" r="12" fill="hsl(58 82% 56%)" stroke="hsl(10 58% 28%)" stroke-width="4" stroke-linecap="round" stroke-linejoin="round"/><circle cx="24" cy="72" r="12" fill="hsl(10 72% 52%)" stroke="hsl(10 58% 28%)" stroke-width="4" stroke-linecap="round" stroke-linejoin="round"/><circle cx="76" cy="72" r="12" fill="hsl(10 72% 52%)" stroke="hsl(10 58% 28%)" stroke-width="4" stroke-linecap="round" stroke-linejoin="round"/><path d="m44 33-14 27m26-27 14 27M36 72h28" fill="none" stroke="hsl(10 58% 28%)" stroke-width="4" stroke-linecap="round" stroke-linejoin="round"/></g><g transform="translate(400 300)"><rect x="2" y="2" width="96" height="96" rx="12" fill="hsl(280 75% 96%)" stroke="hsl(280 45% 84%)" stroke-width="2"/><rect x="17" y="55" width="14" height="27" rx="4" fill="hsl(280 72% 52%)" stroke="hsl(280 58% 28%)" stroke-width="4" stroke-linecap="round" stroke-linejoin="round"/><rect x="43" y="39" width="14" height="43" rx="4" fill="hsl(328 82% 56%)" stroke="hsl(280 58% 28%)" stroke-width="4" stroke-linecap="round" stroke-linejoin="round"/><rect x="69" y="22" width="14" height="60" rx="4" fill="hsl(280 72% 52%)" stroke="hsl(280 58% 28%)" stroke-width="4" stroke-linecap="round" stroke-linejoin="round"/><path d="m14 28 18-12 18 8 24-14" fill="none" stroke="hsl(280 58% 28%)" stroke-width="4" stroke-linecap="round" stroke-linejoin="round"/></g><g transform="translate(500 300)"><rect x="2" y="2" width="96" height="96" rx="12" fill="hsl(148 75% 96%)" stroke="hsl(148 45% 84%)" stroke-width="2"/><circle cx="50" cy="50" r="34" fill="hsl(148 75% 93%)" stroke="hsl(148 58% 28%)" stroke-width="4" stroke-linecap="round" stroke-linejoin="round"/><circle cx="50" cy="50" r="23" fill="hsl(148 72% 52%)" stroke="hsl(148 58% 28%)" stroke-width="4" stroke-linecap="round" stroke-linejoin="round"/><circle cx="50" cy="50" r="11" fill="hsl(196 82% 56%)" stroke="hsl(148 58% 28%)" stroke-width="4" stroke-linecap="round" stroke-linejoin="round"/><path d="m77 23 11-11m-12 1 12-1-1 12" fill="none" stroke="hsl(148 58% 28%)" stroke-width="4" stroke-linecap="round" stroke-linejoin="round"/></g><g transform="translate(0 400)"><rect x="2" y="2" width="96" height="96" rx="12" fill="hsl(88 75% 96%)" stroke="hsl(88 45% 84%)" stroke-width="2"/><path d="M50 13 79 24v23q0 24-29 39Q21 71 21 47V24Z" fill="hsl(88 72% 52%)" stroke="hsl(88 58% 28%)" stroke-width="4" stroke-linecap="round" stroke-linejoin="round"/><path d="m34 50 10 10 23-25" fill="none" stroke="white" stroke-width="7" stroke-linecap="round" stroke-linejoin="round"/></g><g transform="translate(100 400)"><rect x="2" y="2" width="96" height="96" rx="12" fill="hsl(261 75% 96%)" stroke="hsl(261 45% 84%)" stroke-width="2"/><rect x="17" y="55" width="14" height="27" rx="4" fill="hsl(261 72% 52%)" stroke="hsl(261 58% 28%)" stroke-width="4" stroke-linecap="round" stroke-linejoin="round"/><rect x="43" y="39" width="14" height="43" rx="4" fill="hsl(309 82% 56%)" stroke="hsl(261 58% 28%)" stroke-width="4" stroke-linecap="round" stroke-linejoin="round"/><rect x="69" y="22" width="14" height="60" rx="4" fill="hsl(261 72% 52%)" stroke="hsl(261 58% 28%)" stroke-width="4" stroke-linecap="round" stroke-linejoin="round"/><path d="m14 28 18-12 18 8 24-14" fill="none" stroke="hsl(261 58% 28%)" stroke-width="4" stroke-linecap="round" stroke-linejoin="round"/></g><g transform="translate(200 400)"><rect x="2" y="2" width="96" height="96" rx="12" fill="hsl(219 75% 96%)" stroke="hsl(219 45% 84%)" stroke-width="2"/><rect x="17" y="55" width="14" height="27" rx="4" fill="hsl(219 72% 52%)" stroke="hsl(219 58% 28%)" stroke-width="4" stroke-linecap="round" stroke-linejoin="round"/><rect x="43" y="39" width="14" height="43" rx="4" fill="hsl(267 82% 56%)" stroke="hsl(219 58% 28%)" stroke-width="4" stroke-linecap="round" stroke-linejoin="round"/><rect x="69" y="22" width="14" height="60" rx="4" fill="hsl(219 72% 52%)" stroke="hsl(219 58% 28%)" stroke-width="4" stroke-linecap="round" stroke-linejoin="round"/><path d="m14 28 18-12 18 8 24-14" fill="none" stroke="hsl(219 58% 28%)" stroke-width="4" stroke-linecap="round" stroke-linejoin="round"/></g><g transform="translate(300 400)"><rect x="2" y="2" width="96" height="96" rx="12" fill="hsl(350 75% 96%)" stroke="hsl(350 45% 84%)" stroke-width="2"/><rect x="17" y="55" width="14" height="27" rx="4" fill="hsl(350 72% 52%)" stroke="hsl(350 58% 28%)" stroke-width="4" stroke-linecap="round" stroke-linejoin="round"/><rect x="43" y="39" width="14" height="43" rx="4" fill="hsl(38 82% 56%)" stroke="hsl(350 58% 28%)" stroke-width="4" stroke-linecap="round" stroke-linejoin="round"/><rect x="69" y="22" width="14" height="60" rx="4" fill="hsl(350 72% 52%)" stroke="hsl(350 58% 28%)" stroke-width="4" stroke-linecap="round" stroke-linejoin="round"/><path d="m14 28 18-12 18 8 24-14" fill="none" stroke="hsl(350 58% 28%)" stroke-width="4" stroke-linecap="round" stroke-linejoin="round"/></g><g transform="translate(400 400)"><rect x="2" y="2" width="96" height="96" rx="12" fill="hsl(113 75% 96%)" stroke="hsl(113 45% 84%)" stroke-width="2"/><path d="M35 64q-13-9-13-25a28 28 0 0 1 56 0q0 16-13 25l-4 18H39Z" fill="hsl(161 82% 56%)" stroke="hsl(113 58% 28%)" stroke-width="4" stroke-linecap="round" stroke-linejoin="round"/><path d="M39 69h22M39 77h22M50 11v-7M17 19l-6-6m72 6 6-6" fill="none" stroke="hsl(113 58% 28%)" stroke-width="4" stroke-linecap="round" stroke-linejoin="round"/></g><g transform="translate(500 400)"><rect x="2" y="2" width="96" height="96" rx="12" fill="hsl(21 75% 96%)" stroke="hsl(21 45% 84%)" stroke-width="2"/><path d="M35 64q-13-9-13-25a28 28 0 0 1 56 0q0 16-13 25l-4 18H39Z" fill="hsl(69 82% 56%)" stroke="hsl(21 58% 28%)" stroke-width="4" stroke-linecap="round" stroke-linejoin="round"/><path d="M39 69h22M39 77h22M50 11v-7M17 19l-6-6m72 6 6-6" fill="none" stroke="hsl(21 58% 28%)" stroke-width="4" stroke-linecap="round" stroke-linejoin="round"/></g><g transform="translate(0 500)"><rect x="2" y="2" width="96" height="96" rx="12" fill="hsl(276 75% 96%)" stroke="hsl(276 45% 84%)" stroke-width="2"/><path d="m50 12 10 22 24 3-18 17 5 24-21-12-21 12 5-24-18-17 24-3Z" fill="hsl(324 82% 56%)" stroke="hsl(276 58% 28%)" stroke-width="4" stroke-linecap="round" stroke-linejoin="round"/><path d="M16 19c19-11 47-11 68 0M16 81c19 11 47 11 68 0" fill="none" stroke="hsl(276 58% 28%)" stroke-width="4" stroke-linecap="round" stroke-linejoin="round"/></g><g transform="translate(100 500)"><rect x="2" y="2" width="96" height="96" rx="12" fill="hsl(194 75% 96%)" stroke="hsl(194 45% 84%)" stroke-width="2"/><path d="M17 45 50 19l33 26v38H17Z" fill="hsl(194 75% 93%)" stroke="hsl(194 58% 28%)" stroke-width="4" stroke-linecap="round" stroke-linejoin="round"/><path d="M41 83V57h18v26M27 50h10v11H27m36-11h10v11H63" fill="hsl(242 82% 56%)" stroke="hsl(194 58% 28%)" stroke-width="4" stroke-linecap="round" stroke-linejoin="round"/></g><g transform="translate(200 500)"><rect x="2" y="2" width="96" height="96" rx="12" fill="hsl(34 75% 96%)" stroke="hsl(34 45% 84%)" stroke-width="2"/><circle cx="50" cy="50" r="34" fill="hsl(34 75% 93%)" stroke="hsl(34 58% 28%)" stroke-width="4" stroke-linecap="round" stroke-linejoin="round"/><circle cx="50" cy="50" r="23" fill="hsl(34 72% 52%)" stroke="hsl(34 58% 28%)" stroke-width="4" stroke-linecap="round" stroke-linejoin="round"/><circle cx="50" cy="50" r="11" fill="hsl(82 82% 56%)" stroke="hsl(34 58% 28%)" stroke-width="4" stroke-linecap="round" stroke-linejoin="round"/><path d="m77 23 11-11m-12 1 12-1-1 12" fill="none" stroke="hsl(34 58% 28%)" stroke-width="4" stroke-linecap="round" stroke-linejoin="round"/></g><g transform="translate(300 500)"><rect x="2" y="2" width="96" height="96" rx="12" fill="hsl(29 75% 96%)" stroke="hsl(29 45% 84%)" stroke-width="2"/><circle cx="50" cy="49" r="29" fill="hsl(29 75% 93%)" stroke="hsl(29 58% 28%)" stroke-width="4" stroke-linecap="round" stroke-linejoin="round"/><circle cx="50" cy="49" r="12" fill="hsl(77 82% 56%)" stroke="hsl(29 58% 28%)" stroke-width="4" stroke-linecap="round" stroke-linejoin="round"/><path d="M50 12v10m0 54v10M13 49h10m54 0h10M24 23l8 8m36 36 8 8m0-52-8 8M32 67l-8 8" fill="none" stroke="hsl(29 58% 28%)" stroke-width="4" stroke-linecap="round" stroke-linejoin="round"/></g><g transform="translate(400 500)"><rect x="2" y="2" width="96" height="96" rx="12" fill="hsl(57 75% 96%)" stroke="hsl(57 45% 84%)" stroke-width="2"/><path d="M50 13 79 24v23q0 24-29 39Q21 71 21 47V24Z" fill="hsl(57 72% 52%)" stroke="hsl(57 58% 28%)" stroke-width="4" stroke-linecap="round" stroke-linejoin="round"/><path d="m34 50 10 10 23-25" fill="none" stroke="white" stroke-width="7" stroke-linecap="round" stroke-linejoin="round"/></g><g transform="translate(500 500)"><rect x="2" y="2" width="96" height="96" rx="12" fill="hsl(99 75% 96%)" stroke="hsl(99 45% 84%)" stroke-width="2"/><path d="M35 64q-13-9-13-25a28 28 0 0 1 56 0q0 16-13 25l-4 18H39Z" fill="hsl(147 82% 56%)" stroke="hsl(99 58% 28%)" stroke-width="4" stroke-linecap="round" stroke-linejoin="round"/><path d="M39 69h22M39 77h22M50 11v-7M17 19l-6-6m72 6 6-6" fill="none" stroke="hsl(99 58% 28%)" stroke-width="4" stroke-linecap="round" stroke-linejoin="round"/></g></svg>
