<svg xmlns="http://www.w3.org/2000/svg" viewBox="0 0 600 600" width="600" height="600" role="img" aria-label="SmartLingo beginner semantic picture sprite"><rect width="600" height="600" fill="#f8fbff"/><g transform="translate(0 0)"><rect x="2" y="2" width="96" height="96" rx="12" fill="hsl(333 75% 96%)" stroke="hsl(333 45% 84%)" stroke-width="2"/><rect x="17" y="55" width="14" height="27" rx="4" fill="hsl(333 72% 52%)" stroke="hsl(333 58% 28%)" stroke-width="4" stroke-linecap="round" stroke-linejoin="round"/><rect x="43" y="39" width="14" height="43" rx="4" fill="hsl(21 82% 56%)" stroke="hsl(333 58% 28%)" stroke-width="4" stroke-linecap="round" stroke-linejoin="round"/><rect x="69" y="22" width="14" height="60" rx="4" fill="hsl(333 72% 52%)" stroke="hsl(333 58% 28%)" stroke-width="4" stroke-linecap="round" stroke-linejoin="round"/><path d="m14 28 18-12 18 8 24-14" fill="none" stroke="hsl(333 58% 28%)" stroke-width="4" stroke-linecap="round" stroke-linejoin="round"/></g><g transform="translate(100 0)"><rect x="2" y="2" width="96" height="96" rx="12" fill="hsl(146 75% 96%)" stroke="hsl(146 45% 84%)" stroke-width="2"/><path d="M50 18v61M24 30h52M20 72h60M31 30 18 56h26Zm38 0L56 56h26Z" fill="hsl(146 75% 93%)" stroke="hsl(146 58% 28%)" stroke-width="4" stroke-linecap="round" stroke-linejoin="round"/><circle cx="50" cy="16" r="7" fill="hsl(194 82% 56%)" stroke="hsl(146 58% 28%)" stroke-width="4" stroke-linecap="round" stroke-linejoin="round"/></g><g transform="translate(200 0)"><rect x="2" y="2" width="96" height="96" rx="12" fill="hsl(263 75% 96%)" stroke="hsl(263 45% 84%)" stroke-width="2"/><circle cx="50" cy="22" r="12" fill="hsl(311 82% 56%)" stroke="hsl(263 58% 28%)" stroke-width="4" stroke-linecap="round" stroke-linejoin="round"/><circle cx="24" cy="72" r="12" fill="hsl(263 72% 52%)" stroke="hsl(263 58% 28%)" stroke-width="4" stroke-linecap="round" stroke-linejoin="round"/><circle cx="76" cy="72" r="12" fill="hsl(263 72% 52%)" stroke="hsl(263 58% 28%)" stroke-width="4" stroke-linecap="round" stroke-linejoin="round"/><path d="m44 33-14 27m26-27 14 27M36 72h28" fill="none" stroke="hsl(263 58% 28%)" stroke-width="4" stroke-linecap="round" stroke-linejoin="round"/></g><g transform="translate(300 0)"><rect x="2" y="2" width="96" height="96" rx="12" fill="hsl(73 75% 96%)" stroke="hsl(73 45% 84%)" stroke-width="2"/><circle cx="50" cy="51" r="32" fill="hsl(73 75% 93%)" stroke="hsl(73 58% 28%)" stroke-width="4" stroke-linecap="round" stroke-linejoin="round"/><path d="M50 51V31m0 20 17 10" fill="none" stroke="hsl(73 58% 28%)" stroke-width="4" stroke-linecap="round" stroke-linejoin="round"/><circle cx="50" cy="51" r="3" fill="hsl(73 58% 28%)"/></g><g transform="translate(400 0)"><rect x="2" y="2" width="96" height="96" rx="12" fill="hsl(188 75% 96%)" stroke="hsl(188 45% 84%)" stroke-width="2"/><path d="M50 18v61M24 30h52M20 72h60M31 30 18 56h26Zm38 0L56 56h26Z" fill="hsl(188 75% 93%)" stroke="hsl(188 58% 28%)" stroke-width="4" stroke-linecap="round" stroke-linejoin="round"/><circle cx="50" cy="16" r="7" fill="hsl(236 82% 56%)" stroke="hsl(188 58% 28%)" stroke-width="4" stroke-linecap="round" stroke-linejoin="round"/></g><g transform="translate(500 0)"><rect x="2" y="2" width="96" height="96" rx="12" fill="hsl(344 75% 96%)" stroke="hsl(344 45% 84%)" stroke-width="2"/><circle cx="22" cy="50" r="10" fill="hsl(32 82% 56%)" stroke="hsl(344 58% 28%)" stroke-width="4" stroke-linecap="round" stroke-linejoin="round"/><circle cx="78" cy="25" r="10" fill="hsl(344 72% 52%)" stroke="hsl(344 58% 28%)" stroke-width="4" stroke-linecap="round" stroke-linejoin="round"/><circle cx="78" cy="75" r="10" fill="hsl(344 72% 52%)" stroke="hsl(344 58% 28%)" stroke-width="4" stroke-linecap="round" stroke-linejoin="round"/><path d="M32 50h17m0 0 19-22M49 50l19 22" fill="none" stroke="hsl(344 58% 28%)" stroke-width="4" stroke-linecap="round" stroke-linejoin="round"/></g><g transform="translate(0 100)"><rect x="2" y="2" width="96" height="96" rx="12" fill="hsl(342 75% 96%)" stroke="hsl(342 45% 84%)" stroke-width="2"/><path d="M50 18v61M24 30h52M20 72h60M31 30 18 56h26Zm38 0L56 56h26Z" fill="hsl(342 75% 93%)" stroke="hsl(342 58% 28%)" stroke-width="4" stroke-linecap="round" stroke-linejoin="round"/><circle cx="50" cy="16" r="7" fill="hsl(30 82% 56%)" stroke="hsl(342 58% 28%)" stroke-width="4" stroke-linecap="round" stroke-linejoin="round"/></g><g transform="translate(100 100)"><rect x="2" y="2" width="96" height="96" rx="12" fill="hsl(212 75% 96%)" stroke="hsl(212 45% 84%)" stroke-width="2"/><circle cx="22" cy="50" r="10" fill="hsl(260 82% 56%)" stroke="hsl(212 58% 28%)" stroke-width="4" stroke-linecap="round" stroke-linejoin="round"/><circle cx="78" cy="25" r="10" fill="hsl(212 72% 52%)" stroke="hsl(212 58% 28%)" stroke-width="4" stroke-linecap="round" stroke-linejoin="round"/><circle cx="78" cy="75" r="10" fill="hsl(212 72% 52%)" stroke="hsl(212 58% 28%)" stroke-width="4" stroke-linecap="round" stroke-linejoin="round"/><path d="M32 50h17m0 0 19-22M49 50l19 22" fill="none" stroke="hsl(212 58% 28%)" stroke-width="4" stroke-linecap="round" stroke-linejoin="round"/></g><g transform="translate(200 100)"><rect x="2" y="2" width="96" height="96" rx="12" fill="hsl(15 75% 96%)" stroke="hsl(15 45% 84%)" stroke-width="2"/><circle cx="50" cy="22" r="12" fill="hsl(63 82% 56%)" stroke="hsl(15 58% 28%)" stroke-width="4" stroke-linecap="round" stroke-linejoin="round"/><circle cx="24" cy="72" r="12" fill="hsl(15 72% 52%)" stroke="hsl(15 58% 28%)" stroke-width="4" stroke-linecap="round" stroke-linejoin="round"/><circle cx="76" cy="72" r="12" fill="hsl(15 72% 52%)" stroke="hsl(15 58% 28%)" stroke-width="4" stroke-linecap="round" stroke-linejoin="round"/><path d="m44 33-14 27m26-27 14 27M36 72h28" fill="none" stroke="hsl(15 58% 28%)" stroke-width="4" stroke-linecap="round" stroke-linejoin="round"/></g><g transform="translate(300 100)"><rect x="2" y="2" width="96" height="96" rx="12" fill="hsl(204 75% 96%)" stroke="hsl(204 45% 84%)" stroke-width="2"/><path d="m50 12 10 22 24 3-18 17 5 24-21-12-21 12 5-24-18-17 24-3Z" fill="hsl(252 82% 56%)" stroke="hsl(204 58% 28%)" stroke-width="4" stroke-linecap="round" stroke-linejoin="round"/><path d="M16 19c19-11 47-11 68 0M16 81c19 11 47 11 68 0" fill="none" stroke="hsl(204 58% 28%)" stroke-width="4" stroke-linecap="round" stroke-linejoin="round"/></g><g transform="translate(400 100)"><rect x="2" y="2" width="96" height="96" rx="12" fill="hsl(60 75% 96%)" stroke="hsl(60 45% 84%)" stroke-width="2"/><circle cx="50" cy="22" r="12" fill="hsl(108 82% 56%)" stroke="hsl(60 58% 28%)" stroke-width="4" stroke-linecap="round" stroke-linejoin="round"/><circle cx="24" cy="72" r="12" fill="hsl(60 72% 52%)" stroke="hsl(60 58% 28%)" stroke-width="4" stroke-linecap="round" stroke-linejoin="round"/><circle cx="76" cy="72" r="12" fill="hsl(60 72% 52%)" stroke="hsl(60 58% 28%)" stroke-width="4" stroke-linecap="round" stroke-linejoin="round"/><path d="m44 33-14 27m26-27 14 27M36 72h28" fill="none" stroke="hsl(60 58% 28%)" stroke-width="4" stroke-linecap="round" stroke-linejoin="round"/></g><g transform="translate(500 100)"><rect x="2" y="2" width="96" height="96" rx="12" fill="hsl(113 75% 96%)" stroke="hsl(113 45% 84%)" stroke-width="2"/><rect x="17" y="55" width="14" height="27" rx="4" fill="hsl(113 72% 52%)" stroke="hsl(113 58% 28%)" stroke-width="4" stroke-linecap="round" stroke-linejoin="round"/><rect x="43" y="39" width="14" height="43" rx="4" fill="hsl(161 82% 56%)" stroke="hsl(113 58% 28%)" stroke-width="4" stroke-linecap="round" stroke-linejoin="round"/><rect x="69" y="22" width="14" height="60" rx="4" fill="hsl(113 72% 52%)" stroke="hsl(113 58% 28%)" stroke-width="4" stroke-linecap="round" stroke-linejoin="round"/><path d="m14 28 18-12 18 8 24-14" fill="none" stroke="hsl(113 58% 28%)" stroke-width="4" stroke-linecap="round" stroke-linejoin="round"/></g><g transform="translate(0 200)"><rect x="2" y="2" width="96" height="96" rx="12" fill="hsl(47 75% 96%)" stroke="hsl(47 45% 84%)" stroke-width="2"/><rect x="17" y="55" width="14" height="27" rx="4" fill="hsl(47 72% 52%)" stroke="hsl(47 58% 28%)" stroke-width="4" stroke-linecap="round" stroke-linejoin="round"/><rect x="43" y="39" width="14" height="43" rx="4" fill="hsl(95 82% 56%)" stroke="hsl(47 58% 28%)" stroke-width="4" stroke-linecap="round" stroke-linejoin="round"/><rect x="69" y="22" width="14" height="60" rx="4" fill="hsl(47 72% 52%)" stroke="hsl(47 58% 28%)" stroke-width="4" stroke-linecap="round" stroke-linejoin="round"/><path d="m14 28 18-12 18 8 24-14" fill="none" stroke="hsl(47 58% 28%)" stroke-width="4" stroke-linecap="round" stroke-linejoin="round"/></g><g transform="translate(100 200)"><rect x="2" y="2" width="96" height="96" rx="12" fill="hsl(222 75% 96%)" stroke="hsl(222 45% 84%)" stroke-width="2"/><rect x="17" y="55" width="14" height="27" rx="4" fill="hsl(222 72% 52%)" stroke="hsl(222 58% 28%)" stroke-width="4" stroke-linecap="round" stroke-linejoin="round"/><rect x="43" y="39" width="14" height="43" rx="4" fill="hsl(270 82% 56%)" stroke="hsl(222 58% 28%)" stroke-width="4" stroke-linecap="round" stroke-linejoin="round"/><rect x="69" y="22" width="14" height="60" rx="4" fill="hsl(222 72% 52%)" stroke="hsl(222 58% 28%)" stroke-width="4" stroke-linecap="round" stroke-linejoin="round"/><path d="m14 28 18-12 18 8 24-14" fill="none" stroke="hsl(222 58% 28%)" stroke-width="4" stroke-linecap="round" stroke-linejoin="round"/></g><g transform="translate(200 200)"><rect x="2" y="2" width="96" height="96" rx="12" fill="hsl(17 75% 96%)" stroke="hsl(17 45% 84%)" stroke-width="2"/><rect x="17" y="55" width="14" height="27" rx="4" fill="hsl(17 72% 52%)" stroke="hsl(17 58% 28%)" stroke-width="4" stroke-linecap="round" stroke-linejoin="round"/><rect x="43" y="39" width="14" height="43" rx="4" fill="hsl(65 82% 56%)" stroke="hsl(17 58% 28%)" stroke-width="4" stroke-linecap="round" stroke-linejoin="round"/><rect x="69" y="22" width="14" height="60" rx="4" fill="hsl(17 72% 52%)" stroke="hsl(17 58% 28%)" stroke-width="4" stroke-linecap="round" stroke-linejoin="round"/><path d="m14 28 18-12 18 8 24-14" fill="none" stroke="hsl(17 58% 28%)" stroke-width="4" stroke-linecap="round" stroke-linejoin="round"/></g><g transform="translate(300 200)"><rect x="2" y="2" width="96" height="96" rx="12" fill="hsl(143 75% 96%)" stroke="hsl(143 45% 84%)" stroke-width="2"/><rect x="17" y="55" width="14" height="27" rx="4" fill="hsl(143 72% 52%)" stroke="hsl(143 58% 28%)" stroke-width="4" stroke-linecap="round" stroke-linejoin="round"/><rect x="43" y="39" width="14" height="43" rx="4" fill="hsl(191 82% 56%)" stroke="hsl(143 58% 28%)" stroke-width="4" stroke-linecap="round" stroke-linejoin="round"/><rect x="69" y="22" width="14" height="60" rx="4" fill="hsl(143 72% 52%)" stroke="hsl(143 58% 28%)" stroke-width="4" stroke-linecap="round" stroke-linejoin="round"/><path d="m14 28 18-12 18 8 24-14" fill="none" stroke="hsl(143 58% 28%)" stroke-width="4" stroke-linecap="round" stroke-linejoin="round"/></g><g transform="translate(400 200)"><rect x="2" y="2" width="96" height="96" rx="12" fill="hsl(53 75% 96%)" stroke="hsl(53 45% 84%)" stroke-width="2"/><rect x="17" y="55" width="14" height="27" rx="4" fill="hsl(53 72% 52%)" stroke="hsl(53 58% 28%)" stroke-width="4" stroke-linecap="round" stroke-linejoin="round"/><rect x="43" y="39" width="14" height="43" rx="4" fill="hsl(101 82% 56%)" stroke="hsl(53 58% 28%)" stroke-width="4" stroke-linecap="round" stroke-linejoin="round"/><rect x="69" y="22" width="14" height="60" rx="4" fill="hsl(53 72% 52%)" stroke="hsl(53 58% 28%)" stroke-width="4" stroke-linecap="round" stroke-linejoin="round"/><path d="m14 28 18-12 18 8 24-14" fill="none" stroke="hsl(53 58% 28%)" stroke-width="4" stroke-linecap="round" stroke-linejoin="round"/></g><g transform="translate(500 200)"><rect x="2" y="2" width="96" height="96" rx="12" fill="hsl(111 75% 96%)" stroke="hsl(111 45% 84%)" stroke-width="2"/><rect x="17" y="55" width="14" height="27" rx="4" fill="hsl(111 72% 52%)" stroke="hsl(111 58% 28%)" stroke-width="4" stroke-linecap="round" stroke-linejoin="round"/><rect x="43" y="39" width="14" height="43" rx="4" fill="hsl(159 82% 56%)" stroke="hsl(111 58% 28%)" stroke-width="4" stroke-linecap="round" stroke-linejoin="round"/><rect x="69" y="22" width="14" height="60" rx="4" fill="hsl(111 72% 52%)" stroke="hsl(111 58% 28%)" stroke-width="4" stroke-linecap="round" stroke-linejoin="round"/><path d="m14 28 18-12 18 8 24-14" fill="none" stroke="hsl(111 58% 28%)" stroke-width="4" stroke-linecap="round" stroke-linejoin="round"/></g><g transform="translate(0 300)"><rect x="2" y="2" width="96" height="96" rx="12" fill="hsl(256 75% 96%)" stroke="hsl(256 45% 84%)" stroke-width="2"/><rect x="17" y="55" width="14" height="27" rx="4" fill="hsl(256 72% 52%)" stroke="hsl(256 58% 28%)" stroke-width="4" stroke-linecap="round" stroke-linejoin="round"/><rect x="43" y="39" width="14" height="43" rx="4" fill="hsl(304 82% 56%)" stroke="hsl(256 58% 28%)" stroke-width="4" stroke-linecap="round" stroke-linejoin="round"/><rect x="69" y="22" width="14" height="60" rx="4" fill="hsl(256 72% 52%)" stroke="hsl(256 58% 28%)" stroke-width="4" stroke-linecap="round" stroke-linejoin="round"/><path d="m14 28 18-12 18 8 24-14" fill="none" stroke="hsl(256 58% 28%)" stroke-width="4" stroke-linecap="round" stroke-linejoin="round"/></g><g transform="translate(100 300)"><rect x="2" y="2" width="96" height="96" rx="12" fill="hsl(185 75% 96%)" stroke="hsl(185 45% 84%)" stroke-width="2"/><path d="M50 18v61M24 30h52M20 72h60M31 30 18 56h26Zm38 0L56 56h26Z" fill="hsl(185 75% 93%)" stroke="hsl(185 58% 28%)" stroke-width="4" stroke-linecap="round" stroke-linejoin="round"/><circle cx="50" cy="16" r="7" fill="hsl(233 82% 56%)" stroke="hsl(185 58% 28%)" stroke-width="4" stroke-linecap="round" stroke-linejoin="round"/></g><g transform="translate(200 300)"><rect x="2" y="2" width="96" height="96" rx="12" fill="hsl(79 75% 96%)" stroke="hsl(79 45% 84%)" stroke-width="2"/><circle cx="50" cy="22" r="12" fill="hsl(127 82% 56%)" stroke="hsl(79 58% 28%)" stroke-width="4" stroke-linecap="round" stroke-linejoin="round"/><circle cx="24" cy="72" r="12" fill="hsl(79 72% 52%)" stroke="hsl(79 58% 28%)" stroke-width="4" stroke-linecap="round" stroke-linejoin="round"/><circle cx="76" cy="72" r="12" fill="hsl(79 72% 52%)" stroke="hsl(79 58% 28%)" stroke-width="4" stroke-linecap="round" stroke-linejoin="round"/><path d="m44 33-14 27m26-27 14 27M36 72h28" fill="none" stroke="hsl(79 58% 28%)" stroke-width="4" stroke-linecap="round" stroke-linejoin="round"/></g><g transform="translate(300 300)"><rect x="2" y="2" width="96" height="96" rx="12" fill="hsl(251 75% 96%)" stroke="hsl(251 45% 84%)" stroke-width="2"/><path d="M50 18v61M24 30h52M20 72h60M31 30 18 56h26Zm38 0L56 56h26Z" fill="hsl(251 75% 93%)" stroke="hsl(251 58% 28%)" stroke-width="4" stroke-linecap="round" stroke-linejoin="round"/><circle cx="50" cy="16" r="7" fill="hsl(299 82% 56%)" stroke="hsl(251 58% 28%)" stroke-width="4" stroke-linecap="round" stroke-linejoin="round"/></g><g transform="translate(400 300)"><rect x="2" y="2" width="96" height="96" rx="12" fill="hsl(94 75% 96%)" stroke="hsl(94 45% 84%)" stroke-width="2"/><circle cx="50" cy="50" r="34" fill="hsl(94 75% 93%)" stroke="hsl(94 58% 28%)" stroke-width="4" stroke-linecap="round" stroke-linejoin="round"/><circle cx="50" cy="50" r="23" fill="hsl(94 72% 52%)" stroke="hsl(94 58% 28%)" stroke-width="4" stroke-linecap="round" stroke-linejoin="round"/><circle cx="50" cy="50" r="11" fill="hsl(142 82% 56%)" stroke="hsl(94 58% 28%)" stroke-width="4" stroke-linecap="round" stroke-linejoin="round"/><path d="m77 23 11-11m-12 1 12-1-1 12" fill="none" stroke="hsl(94 58% 28%)" stroke-width="4" stroke-linecap="round" stroke-linejoin="round"/></g><g transform="translate(500 300)"><rect x="2" y="2" width="96" height="96" rx="12" fill="hsl(75 75% 96%)" stroke="hsl(75 45% 84%)" stroke-width="2"/><circle cx="50" cy="22" r="12" fill="hsl(123 82% 56%)" stroke="hsl(75 58% 28%)" stroke-width="4" stroke-linecap="round" stroke-linejoin="round"/><circle cx="24" cy="72" r="12" fill="hsl(75 72% 52%)" stroke="hsl(75 58% 28%)" stroke-width="4" stroke-linecap="round" stroke-linejoin="round"/><circle cx="76" cy="72" r="12" fill="hsl(75 72% 52%)" stroke="hsl(75 58% 28%)" stroke-width="4" stroke-linecap="round" stroke-linejoin="round"/><path d="m44 33-14 27m26-27 14 27M36 72h28" fill="none" stroke="hsl(75 58% 28%)" stroke-width="4" stroke-linecap="round" stroke-linejoin="round"/></g><g transform="translate(0 400)"><rect x="2" y="2" width="96" height="96" rx="12" fill="hsl(263 75% 96%)" stroke="hsl(263 45% 84%)" stroke-width="2"/><circle cx="50" cy="51" r="32" fill="hsl(263 75% 93%)" stroke="hsl(263 58% 28%)" stroke-width="4" stroke-linecap="round" stroke-linejoin="round"/><path d="M50 51V31m0 20 17 10" fill="none" stroke="hsl(263 58% 28%)" stroke-width="4" stroke-linecap="round" stroke-linejoin="round"/><circle cx="50" cy="51" r="3" fill="hsl(263 58% 28%)"/></g><g transform="translate(100 400)"><rect x="2" y="2" width="96" height="96" rx="12" fill="hsl(17 75% 96%)" stroke="hsl(17 45% 84%)" stroke-width="2"/><circle cx="50" cy="22" r="12" fill="hsl(65 82% 56%)" stroke="hsl(17 58% 28%)" stroke-width="4" stroke-linecap="round" stroke-linejoin="round"/><circle cx="24" cy="72" r="12" fill="hsl(17 72% 52%)" stroke="hsl(17 58% 28%)" stroke-width="4" stroke-linecap="round" stroke-linejoin="round"/><circle cx="76" cy="72" r="12" fill="hsl(17 72% 52%)" stroke="hsl(17 58% 28%)" stroke-width="4" stroke-linecap="round" stroke-linejoin="round"/><path d="m44 33-14 27m26-27 14 27M36 72h28" fill="none" stroke="hsl(17 58% 28%)" stroke-width="4" stroke-linecap="round" stroke-linejoin="round"/></g><g transform="translate(200 400)"><rect x="2" y="2" width="96" height="96" rx="12" fill="hsl(100 75% 96%)" stroke="hsl(100 45% 84%)" stroke-width="2"/><circle cx="22" cy="50" r="10" fill="hsl(148 82% 56%)" stroke="hsl(100 58% 28%)" stroke-width="4" stroke-linecap="round" stroke-linejoin="round"/><circle cx="78" cy="25" r="10" fill="hsl(100 72% 52%)" stroke="hsl(100 58% 28%)" stroke-width="4" stroke-linecap="round" stroke-linejoin="round"/><circle cx="78" cy="75" r="10" fill="hsl(100 72% 52%)" stroke="hsl(100 58% 28%)" stroke-width="4" stroke-linecap="round" stroke-linejoin="round"/><path d="M32 50h17m0 0 19-22M49 50l19 22" fill="none" stroke="hsl(100 58% 28%)" stroke-width="4" stroke-linecap="round" stroke-linejoin="round"/></g><g transform="translate(300 400)"><rect x="2" y="2" width="96" height="96" rx="12" fill="hsl(148 75% 96%)" stroke="hsl(148 45% 84%)" stroke-width="2"/><circle cx="22" cy="50" r="10" fill="hsl(196 82% 56%)" stroke="hsl(148 58% 28%)" stroke-width="4" stroke-linecap="round" stroke-linejoin="round"/><circle cx="78" cy="25" r="10" fill="hsl(148 72% 52%)" stroke="hsl(148 58% 28%)" stroke-width="4" stroke-linecap="round" stroke-linejoin="round"/><circle cx="78" cy="75" r="10" fill="hsl(148 72% 52%)" stroke="hsl(148 58% 28%)" stroke-width="4" stroke-linecap="round" stroke-linejoin="round"/><path d="M32 50h17m0 0 19-22M49 50l19 22" fill="none" stroke="hsl(148 58% 28%)" stroke-width="4" stroke-linecap="round" stroke-linejoin="round"/></g><g transform="translate(400 400)"><rect x="2" y="2" width="96" height="96" rx="12" fill="hsl(100 75% 96%)" stroke="hsl(100 45% 84%)" stroke-width="2"/><path d="M50 13 79 24v23q0 24-29 39Q21 71 21 47V24Z" fill="hsl(100 72% 52%)" stroke="hsl(100 58% 28%)" stroke-width="4" stroke-linecap="round" stroke-linejoin="round"/><path d="m34 50 10 10 23-25" fill="none" stroke="white" stroke-width="7" stroke-linecap="round" stroke-linejoin="round"/></g><g transform="translate(500 400)"><rect x="2" y="2" width="96" height="96" rx="12" fill="hsl(37 75% 96%)" stroke="hsl(37 45% 84%)" stroke-width="2"/><path d="M50 13 79 24v23q0 24-29 39Q21 71 21 47V24Z" fill="hsl(37 72% 52%)" stroke="hsl(37 58% 28%)" stroke-width="4" stroke-linecap="round" stroke-linejoin="round"/><path d="m34 50 10 10 23-25" fill="none" stroke="white" stroke-width="7" stroke-linecap="round" stroke-linejoin="round"/></g><g transform="translate(0 500)"><rect x="2" y="2" width="96" height="96" rx="12" fill="hsl(52 75% 96%)" stroke="hsl(52 45% 84%)" stroke-width="2"/><circle cx="50" cy="22" r="12" fill="hsl(100 82% 56%)" stroke="hsl(52 58% 28%)" stroke-width="4" stroke-linecap="round" stroke-linejoin="round"/><circle cx="24" cy="72" r="12" fill="hsl(52 72% 52%)" stroke="hsl(52 58% 28%)" stroke-width="4" stroke-linecap="round" stroke-linejoin="round"/><circle cx="76" cy="72" r="12" fill="hsl(52 72% 52%)" stroke="hsl(52 58% 28%)" stroke-width="4" stroke-linecap="round" stroke-linejoin="round"/><path d="m44 33-14 27m26-27 14 27M36 72h28" fill="none" stroke="hsl(52 58% 28%)" stroke-width="4" stroke-linecap="round" stroke-linejoin="round"/></g><g transform="translate(100 500)"><rect x="2" y="2" width="96" height="96" rx="12" fill="hsl(151 75% 96%)" stroke="hsl(151 45% 84%)" stroke-width="2"/><path d="M50 13 79 24v23q0 24-29 39Q21 71 21 47V24Z" fill="hsl(151 72% 52%)" stroke="hsl(151 58% 28%)" stroke-width="4" stroke-linecap="round" stroke-linejoin="round"/><path d="m34 50 10 10 23-25" fill="none" stroke="white" stroke-width="7" stroke-linecap="round" stroke-linejoin="round"/></g><g transform="translate(200 500)"><rect x="2" y="2" width="96" height="96" rx="12" fill="hsl(228 75% 96%)" stroke="hsl(228 45% 84%)" stroke-width="2"/><circle cx="50" cy="22" r="12" fill="hsl(276 82% 56%)" stroke="hsl(228 58% 28%)" stroke-width="4" stroke-linecap="round" stroke-linejoin="round"/><circle cx="24" cy="72" r="12" fill="hsl(228 72% 52%)" stroke="hsl(228 58% 28%)" stroke-width="4" stroke-linecap="round" stroke-linejoin="round"/><circle cx="76" cy="72" r="12" fill="hsl(228 72% 52%)" stroke="hsl(228 58% 28%)" stroke-width="4" stroke-linecap="round" stroke-linejoin="round"/><path d="m44 33-14 27m26-27 14 27M36 72h28" fill="none" stroke="hsl(228 58% 28%)" stroke-width="4" stroke-linecap="round" stroke-linejoin="round"/></g><g transform="translate(300 500)"><rect x="2" y="2" width="96" height="96" rx="12" fill="hsl(235 75% 96%)" stroke="hsl(235 45% 84%)" stroke-width="2"/><circle cx="50" cy="50" r="34" fill="hsl(235 75% 93%)" stroke="hsl(235 58% 28%)" stroke-width="4" stroke-linecap="round" stroke-linejoin="round"/><circle cx="50" cy="50" r="23" fill="hsl(235 72% 52%)" stroke="hsl(235 58% 28%)" stroke-width="4" stroke-linecap="round" stroke-linejoin="round"/><circle cx="50" cy="50" r="11" fill="hsl(283 82% 56%)" stroke="hsl(235 58% 28%)" stroke-width="4" stroke-linecap="round" stroke-linejoin="round"/><path d="m77 23 11-11m-12 1 12-1-1 12" fill="none" stroke="hsl(235 58% 28%)" stroke-width="4" stroke-linecap="round" stroke-linejoin="round"/></g><g transform="translate(400 500)"><rect x="2" y="2" width="96" height="96" rx="12" fill="hsl(214 75% 96%)" stroke="hsl(214 45% 84%)" stroke-width="2"/><circle cx="50" cy="22" r="12" fill="hsl(262 82% 56%)" stroke="hsl(214 58% 28%)" stroke-width="4" stroke-linecap="round" stroke-linejoin="round"/><circle cx="24" cy="72" r="12" fill="hsl(214 72% 52%)" stroke="hsl(214 58% 28%)" stroke-width="4" stroke-linecap="round" stroke-linejoin="round"/><circle cx="76" cy="72" r="12" fill="hsl(214 72% 52%)" stroke="hsl(214 58% 28%)" stroke-width="4" stroke-linecap="round" stroke-linejoin="round"/><path d="m44 33-14 27m26-27 14 27M36 72h28" fill="none" stroke="hsl(214 58% 28%)" stroke-width="4" stroke-linecap="round" stroke-linejoin="round"/></g><g transform="translate(500 500)"><rect x="2" y="2" width="96" height="96" rx="12" fill="hsl(261 75% 96%)" stroke="hsl(261 45% 84%)" stroke-width="2"/><circle cx="50" cy="49" r="29" fill="hsl(261 75% 93%)" stroke="hsl(261 58% 28%)" stroke-width="4" stroke-linecap="round" stroke-linejoin="round"/><circle cx="50" cy="49" r="12" fill="hsl(309 82% 56%)" stroke="hsl(261 58% 28%)" stroke-width="4" stroke-linecap="round" stroke-linejoin="round"/><path d="M50 12v10m0 54v10M13 49h10m54 0h10M24 23l8 8m36 36 8 8m0-52-8 8M32 67l-8 8" fill="none" stroke="hsl(261 58% 28%)" stroke-width="4" stroke-linecap="round" stroke-linejoin="round"/></g></svg>
