<svg xmlns="http://www.w3.org/2000/svg" viewBox="0 0 600 600" width="600" height="600" role="img" aria-label="SmartLingo beginner semantic picture sprite"><rect width="600" height="600" fill="#f8fbff"/><g transform="translate(0 0)"><rect x="2" y="2" width="96" height="96" rx="12" fill="hsl(248 75% 96%)" stroke="hsl(248 45% 84%)" stroke-width="2"/><circle cx="50" cy="31" r="13" fill="hsl(296 82% 56%)" stroke="hsl(248 58% 28%)" stroke-width="4" stroke-linecap="round" stroke-linejoin="round"/><path d="M27 78c2-22 11-32 23-32s21 10 23 32" fill="hsl(248 72% 52%)" stroke="hsl(248 58% 28%)" stroke-width="4" stroke-linecap="round" stroke-linejoin="round"/><circle cx="26" cy="47" r="8" fill="hsl(248 75% 93%)" stroke="hsl(248 58% 28%)" stroke-width="4" stroke-linecap="round" stroke-linejoin="round"/><circle cx="74" cy="47" r="8" fill="hsl(248 75% 93%)" stroke="hsl(248 58% 28%)" stroke-width="4" stroke-linecap="round" stroke-linejoin="round"/></g><g transform="translate(100 0)"><rect x="2" y="2" width="96" height="96" rx="12" fill="hsl(34 75% 96%)" stroke="hsl(34 45% 84%)" stroke-width="2"/><path d="M35 64q-13-9-13-25a28 28 0 0 1 56 0q0 16-13 25l-4 18H39Z" fill="hsl(82 82% 56%)" stroke="hsl(34 58% 28%)" stroke-width="4" stroke-linecap="round" stroke-linejoin="round"/><path d="M39 69h22M39 77h22M50 11v-7M17 19l-6-6m72 6 6-6" fill="none" stroke="hsl(34 58% 28%)" stroke-width="4" stroke-linecap="round" stroke-linejoin="round"/></g><g transform="translate(200 0)"><rect x="2" y="2" width="96" height="96" rx="12" fill="hsl(345 75% 96%)" stroke="hsl(345 45% 84%)" stroke-width="2"/><path d="m50 12 10 22 24 3-18 17 5 24-21-12-21 12 5-24-18-17 24-3Z" fill="hsl(33 82% 56%)" stroke="hsl(345 58% 28%)" stroke-width="4" stroke-linecap="round" stroke-linejoin="round"/><path d="M16 19c19-11 47-11 68 0M16 81c19 11 47 11 68 0" fill="none" stroke="hsl(345 58% 28%)" stroke-width="4" stroke-linecap="round" stroke-linejoin="round"/></g><g transform="translate(300 0)"><rect x="2" y="2" width="96" height="96" rx="12" fill="hsl(280 75% 96%)" stroke="hsl(280 45% 84%)" stroke-width="2"/><circle cx="50" cy="49" r="29" fill="hsl(280 75% 93%)" stroke="hsl(280 58% 28%)" stroke-width="4" stroke-linecap="round" stroke-linejoin="round"/><circle cx="50" cy="49" r="12" fill="hsl(328 82% 56%)" stroke="hsl(280 58% 28%)" stroke-width="4" stroke-linecap="round" stroke-linejoin="round"/><path d="M50 12v10m0 54v10M13 49h10m54 0h10M24 23l8 8m36 36 8 8m0-52-8 8M32 67l-8 8" fill="none" stroke="hsl(280 58% 28%)" stroke-width="4" stroke-linecap="round" stroke-linejoin="round"/></g><g transform="translate(400 0)"><rect x="2" y="2" width="96" height="96" rx="12" fill="hsl(55 75% 96%)" stroke="hsl(55 45% 84%)" stroke-width="2"/><circle cx="50" cy="50" r="34" fill="hsl(55 75% 93%)" stroke="hsl(55 58% 28%)" stroke-width="4" stroke-linecap="round" stroke-linejoin="round"/><circle cx="50" cy="50" r="23" fill="hsl(55 72% 52%)" stroke="hsl(55 58% 28%)" stroke-width="4" stroke-linecap="round" stroke-linejoin="round"/><circle cx="50" cy="50" r="11" fill="hsl(103 82% 56%)" stroke="hsl(55 58% 28%)" stroke-width="4" stroke-linecap="round" stroke-linejoin="round"/><path d="m77 23 11-11m-12 1 12-1-1 12" fill="none" stroke="hsl(55 58% 28%)" stroke-width="4" stroke-linecap="round" stroke-linejoin="round"/></g><g transform="translate(500 0)"><rect x="2" y="2" width="96" height="96" rx="12" fill="hsl(43 75% 96%)" stroke="hsl(43 45% 84%)" stroke-width="2"/><path d="M50 13 79 24v23q0 24-29 39Q21 71 21 47V24Z" fill="hsl(43 72% 52%)" stroke="hsl(43 58% 28%)" stroke-width="4" stroke-linecap="round" stroke-linejoin="round"/><path d="m34 50 10 10 23-25" fill="none" stroke="white" stroke-width="7" stroke-linecap="round" stroke-linejoin="round"/></g><g transform="translate(0 100)"><rect x="2" y="2" width="96" height="96" rx="12" fill="hsl(359 75% 96%)" stroke="hsl(359 45% 84%)" stroke-width="2"/><path d="m50 12 10 22 24 3-18 17 5 24-21-12-21 12 5-24-18-17 24-3Z" fill="hsl(47 82% 56%)" stroke="hsl(359 58% 28%)" stroke-width="4" stroke-linecap="round" stroke-linejoin="round"/><path d="M16 19c19-11 47-11 68 0M16 81c19 11 47 11 68 0" fill="none" stroke="hsl(359 58% 28%)" stroke-width="4" stroke-linecap="round" stroke-linejoin="round"/></g><g transform="translate(100 100)"><rect x="2" y="2" width="96" height="96" rx="12" fill="hsl(56 75% 96%)" stroke="hsl(56 45% 84%)" stroke-width="2"/><path d="M50 13 79 24v23q0 24-29 39Q21 71 21 47V24Z" fill="hsl(56 72% 52%)" stroke="hsl(56 58% 28%)" stroke-width="4" stroke-linecap="round" stroke-linejoin="round"/><path d="m34 50 10 10 23-25" fill="none" stroke="white" stroke-width="7" stroke-linecap="round" stroke-linejoin="round"/></g><g transform="translate(200 100)"><rect x="2" y="2" width="96" height="96" rx="12" fill="hsl(46 75% 96%)" stroke="hsl(46 45% 84%)" stroke-width="2"/><circle cx="50" cy="50" r="34" fill="hsl(46 75% 93%)" stroke="hsl(46 58% 28%)" stroke-width="4" stroke-linecap="round" stroke-linejoin="round"/><circle cx="50" cy="50" r="23" fill="hsl(46 72% 52%)" stroke="hsl(46 58% 28%)" stroke-width="4" stroke-linecap="round" stroke-linejoin="round"/><circle cx="50" cy="50" r="11" fill="hsl(94 82% 56%)" stroke="hsl(46 58% 28%)" stroke-width="4" stroke-linecap="round" stroke-linejoin="round"/><path d="m77 23 11-11m-12 1 12-1-1 12" fill="none" stroke="hsl(46 58% 28%)" stroke-width="4" stroke-linecap="round" stroke-linejoin="round"/></g><g transform="translate(300 100)"><rect x="2" y="2" width="96" height="96" rx="12" fill="hsl(127 75% 96%)" stroke="hsl(127 45% 84%)" stroke-width="2"/><path d="M50 13 79 24v23q0 24-29 39Q21 71 21 47V24Z" fill="hsl(127 72% 52%)" stroke="hsl(127 58% 28%)" stroke-width="4" stroke-linecap="round" stroke-linejoin="round"/><path d="m34 50 10 10 23-25" fill="none" stroke="white" stroke-width="7" stroke-linecap="round" stroke-linejoin="round"/></g><g transform="translate(400 100)"><rect x="2" y="2" width="96" height="96" rx="12" fill="hsl(124 75% 96%)" stroke="hsl(124 45% 84%)" stroke-width="2"/><circle cx="50" cy="49" r="29" fill="hsl(124 75% 93%)" stroke="hsl(124 58% 28%)" stroke-width="4" stroke-linecap="round" stroke-linejoin="round"/><circle cx="50" cy="49" r="12" fill="hsl(172 82% 56%)" stroke="hsl(124 58% 28%)" stroke-width="4" stroke-linecap="round" stroke-linejoin="round"/><path d="M50 12v10m0 54v10M13 49h10m54 0h10M24 23l8 8m36 36 8 8m0-52-8 8M32 67l-8 8" fill="none" stroke="hsl(124 58% 28%)" stroke-width="4" stroke-linecap="round" stroke-linejoin="round"/></g><g transform="translate(500 100)"><rect x="2" y="2" width="96" height="96" rx="12" fill="hsl(353 75% 96%)" stroke="hsl(353 45% 84%)" stroke-width="2"/><path d="M35 64q-13-9-13-25a28 28 0 0 1 56 0q0 16-13 25l-4 18H39Z" fill="hsl(41 82% 56%)" stroke="hsl(353 58% 28%)" stroke-width="4" stroke-linecap="round" stroke-linejoin="round"/><path d="M39 69h22M39 77h22M50 11v-7M17 19l-6-6m72 6 6-6" fill="none" stroke="hsl(353 58% 28%)" stroke-width="4" stroke-linecap="round" stroke-linejoin="round"/></g><g transform="translate(0 200)"><rect x="2" y="2" width="96" height="96" rx="12" fill="hsl(245 75% 96%)" stroke="hsl(245 45% 84%)" stroke-width="2"/><circle cx="50" cy="22" r="12" fill="hsl(293 82% 56%)" stroke="hsl(245 58% 28%)" stroke-width="4" stroke-linecap="round" stroke-linejoin="round"/><circle cx="24" cy="72" r="12" fill="hsl(245 72% 52%)" stroke="hsl(245 58% 28%)" stroke-width="4" stroke-linecap="round" stroke-linejoin="round"/><circle cx="76" cy="72" r="12" fill="hsl(245 72% 52%)" stroke="hsl(245 58% 28%)" stroke-width="4" stroke-linecap="round" stroke-linejoin="round"/><path d="m44 33-14 27m26-27 14 27M36 72h28" fill="none" stroke="hsl(245 58% 28%)" stroke-width="4" stroke-linecap="round" stroke-linejoin="round"/></g><g transform="translate(100 200)"><rect x="2" y="2" width="96" height="96" rx="12" fill="hsl(92 75% 96%)" stroke="hsl(92 45% 84%)" stroke-width="2"/><path d="m50 12 10 22 24 3-18 17 5 24-21-12-21 12 5-24-18-17 24-3Z" fill="hsl(140 82% 56%)" stroke="hsl(92 58% 28%)" stroke-width="4" stroke-linecap="round" stroke-linejoin="round"/><path d="M16 19c19-11 47-11 68 0M16 81c19 11 47 11 68 0" fill="none" stroke="hsl(92 58% 28%)" stroke-width="4" stroke-linecap="round" stroke-linejoin="round"/></g><g transform="translate(200 200)"><rect x="2" y="2" width="96" height="96" rx="12" fill="hsl(107 75% 96%)" stroke="hsl(107 45% 84%)" stroke-width="2"/><circle cx="50" cy="51" r="32" fill="hsl(107 75% 93%)" stroke="hsl(107 58% 28%)" stroke-width="4" stroke-linecap="round" stroke-linejoin="round"/><path d="M50 51V31m0 20 17 10" fill="none" stroke="hsl(107 58% 28%)" stroke-width="4" stroke-linecap="round" stroke-linejoin="round"/><circle cx="50" cy="51" r="3" fill="hsl(107 58% 28%)"/></g><g transform="translate(300 200)"><rect x="2" y="2" width="96" height="96" rx="12" fill="hsl(236 75% 96%)" stroke="hsl(236 45% 84%)" stroke-width="2"/><circle cx="50" cy="50" r="34" fill="hsl(236 75% 93%)" stroke="hsl(236 58% 28%)" stroke-width="4" stroke-linecap="round" stroke-linejoin="round"/><circle cx="50" cy="50" r="23" fill="hsl(236 72% 52%)" stroke="hsl(236 58% 28%)" stroke-width="4" stroke-linecap="round" stroke-linejoin="round"/><circle cx="50" cy="50" r="11" fill="hsl(284 82% 56%)" stroke="hsl(236 58% 28%)" stroke-width="4" stroke-linecap="round" stroke-linejoin="round"/><path d="m77 23 11-11m-12 1 12-1-1 12" fill="none" stroke="hsl(236 58% 28%)" stroke-width="4" stroke-linecap="round" stroke-linejoin="round"/></g><g transform="translate(400 200)"><rect x="2" y="2" width="96" height="96" rx="12" fill="hsl(291 75% 96%)" stroke="hsl(291 45% 84%)" stroke-width="2"/><circle cx="50" cy="51" r="32" fill="hsl(291 75% 93%)" stroke="hsl(291 58% 28%)" stroke-width="4" stroke-linecap="round" stroke-linejoin="round"/><path d="M50 51V31m0 20 17 10" fill="none" stroke="hsl(291 58% 28%)" stroke-width="4" stroke-linecap="round" stroke-linejoin="round"/><circle cx="50" cy="51" r="3" fill="hsl(291 58% 28%)"/></g><g transform="translate(500 200)"><rect x="2" y="2" width="96" height="96" rx="12" fill="hsl(202 75% 96%)" stroke="hsl(202 45% 84%)" stroke-width="2"/><circle cx="50" cy="50" r="34" fill="hsl(202 75% 93%)" stroke="hsl(202 58% 28%)" stroke-width="4" stroke-linecap="round" stroke-linejoin="round"/><circle cx="50" cy="50" r="23" fill="hsl(202 72% 52%)" stroke="hsl(202 58% 28%)" stroke-width="4" stroke-linecap="round" stroke-linejoin="round"/><circle cx="50" cy="50" r="11" fill="hsl(250 82% 56%)" stroke="hsl(202 58% 28%)" stroke-width="4" stroke-linecap="round" stroke-linejoin="round"/><path d="m77 23 11-11m-12 1 12-1-1 12" fill="none" stroke="hsl(202 58% 28%)" stroke-width="4" stroke-linecap="round" stroke-linejoin="round"/></g><g transform="translate(0 300)"><rect x="2" y="2" width="96" height="96" rx="12" fill="hsl(223 75% 96%)" stroke="hsl(223 45% 84%)" stroke-width="2"/><circle cx="50" cy="50" r="34" fill="hsl(223 75% 93%)" stroke="hsl(223 58% 28%)" stroke-width="4" stroke-linecap="round" stroke-linejoin="round"/><circle cx="50" cy="50" r="23" fill="hsl(223 72% 52%)" stroke="hsl(223 58% 28%)" stroke-width="4" stroke-linecap="round" stroke-linejoin="round"/><circle cx="50" cy="50" r="11" fill="hsl(271 82% 56%)" stroke="hsl(223 58% 28%)" stroke-width="4" stroke-linecap="round" stroke-linejoin="round"/><path d="m77 23 11-11m-12 1 12-1-1 12" fill="none" stroke="hsl(223 58% 28%)" stroke-width="4" stroke-linecap="round" stroke-linejoin="round"/></g><g transform="translate(100 300)"><rect x="2" y="2" width="96" height="96" rx="12" fill="hsl(50 75% 96%)" stroke="hsl(50 45% 84%)" stroke-width="2"/><circle cx="27" cy="31" r="9" fill="hsl(98 82% 56%)" stroke="hsl(50 58% 28%)" stroke-width="4" stroke-linecap="round" stroke-linejoin="round"/><path d="M27 42v24m0-14 14 8M27 51 15 62m12 4-10 15m10-15 13 14" fill="none" stroke="hsl(50 58% 28%)" stroke-width="4" stroke-linecap="round" stroke-linejoin="round"/><path d="M48 35h34m-12-10 12 10-12 10" fill="none" stroke="hsl(50 58% 28%)" stroke-width="4" stroke-linecap="round" stroke-linejoin="round"/></g><g transform="translate(200 300)"><rect x="2" y="2" width="96" height="96" rx="12" fill="hsl(117 75% 96%)" stroke="hsl(117 45% 84%)" stroke-width="2"/><path d="m50 12 10 22 24 3-18 17 5 24-21-12-21 12 5-24-18-17 24-3Z" fill="hsl(165 82% 56%)" stroke="hsl(117 58% 28%)" stroke-width="4" stroke-linecap="round" stroke-linejoin="round"/><path d="M16 19c19-11 47-11 68 0M16 81c19 11 47 11 68 0" fill="none" stroke="hsl(117 58% 28%)" stroke-width="4" stroke-linecap="round" stroke-linejoin="round"/></g><g transform="translate(300 300)"><rect x="2" y="2" width="96" height="96" rx="12" fill="hsl(240 75% 96%)" stroke="hsl(240 45% 84%)" stroke-width="2"/><path d="M35 64q-13-9-13-25a28 28 0 0 1 56 0q0 16-13 25l-4 18H39Z" fill="hsl(288 82% 56%)" stroke="hsl(240 58% 28%)" stroke-width="4" stroke-linecap="round" stroke-linejoin="round"/><path d="M39 69h22M39 77h22M50 11v-7M17 19l-6-6m72 6 6-6" fill="none" stroke="hsl(240 58% 28%)" stroke-width="4" stroke-linecap="round" stroke-linejoin="round"/></g><g transform="translate(400 300)"><rect x="2" y="2" width="96" height="96" rx="12" fill="hsl(327 75% 96%)" stroke="hsl(327 45% 84%)" stroke-width="2"/><circle cx="50" cy="51" r="32" fill="hsl(327 75% 93%)" stroke="hsl(327 58% 28%)" stroke-width="4" stroke-linecap="round" stroke-linejoin="round"/><path d="M50 51V31m0 20 17 10" fill="none" stroke="hsl(327 58% 28%)" stroke-width="4" stroke-linecap="round" stroke-linejoin="round"/><circle cx="50" cy="51" r="3" fill="hsl(327 58% 28%)"/></g><g transform="translate(500 300)"><rect x="2" y="2" width="96" height="96" rx="12" fill="hsl(182 75% 96%)" stroke="hsl(182 45% 84%)" stroke-width="2"/><circle cx="50" cy="51" r="32" fill="hsl(182 75% 93%)" stroke="hsl(182 58% 28%)" stroke-width="4" stroke-linecap="round" stroke-linejoin="round"/><path d="M50 51V31m0 20 17 10" fill="none" stroke="hsl(182 58% 28%)" stroke-width="4" stroke-linecap="round" stroke-linejoin="round"/><circle cx="50" cy="51" r="3" fill="hsl(182 58% 28%)"/></g><g transform="translate(0 400)"><rect x="2" y="2" width="96" height="96" rx="12" fill="hsl(131 75% 96%)" stroke="hsl(131 45% 84%)" stroke-width="2"/><circle cx="50" cy="51" r="32" fill="hsl(131 75% 93%)" stroke="hsl(131 58% 28%)" stroke-width="4" stroke-linecap="round" stroke-linejoin="round"/><path d="M50 51V31m0 20 17 10" fill="none" stroke="hsl(131 58% 28%)" stroke-width="4" stroke-linecap="round" stroke-linejoin="round"/><circle cx="50" cy="51" r="3" fill="hsl(131 58% 28%)"/></g><g transform="translate(100 400)"><rect x="2" y="2" width="96" height="96" rx="12" fill="hsl(269 75% 96%)" stroke="hsl(269 45% 84%)" stroke-width="2"/><circle cx="50" cy="51" r="32" fill="hsl(269 75% 93%)" stroke="hsl(269 58% 28%)" stroke-width="4" stroke-linecap="round" stroke-linejoin="round"/><path d="M50 51V31m0 20 17 10" fill="none" stroke="hsl(269 58% 28%)" stroke-width="4" stroke-linecap="round" stroke-linejoin="round"/><circle cx="50" cy="51" r="3" fill="hsl(269 58% 28%)"/></g><g transform="translate(200 400)"><rect x="2" y="2" width="96" height="96" rx="12" fill="hsl(356 75% 96%)" stroke="hsl(356 45% 84%)" stroke-width="2"/><circle cx="50" cy="51" r="32" fill="hsl(356 75% 93%)" stroke="hsl(356 58% 28%)" stroke-width="4" stroke-linecap="round" stroke-linejoin="round"/><path d="M50 51V31m0 20 17 10" fill="none" stroke="hsl(356 58% 28%)" stroke-width="4" stroke-linecap="round" stroke-linejoin="round"/><circle cx="50" cy="51" r="3" fill="hsl(356 58% 28%)"/></g><g transform="translate(300 400)"><rect x="2" y="2" width="96" height="96" rx="12" fill="hsl(49 75% 96%)" stroke="hsl(49 45% 84%)" stroke-width="2"/><circle cx="50" cy="51" r="32" fill="hsl(49 75% 93%)" stroke="hsl(49 58% 28%)" stroke-width="4" stroke-linecap="round" stroke-linejoin="round"/><path d="M50 51V31m0 20 17 10" fill="none" stroke="hsl(49 58% 28%)" stroke-width="4" stroke-linecap="round" stroke-linejoin="round"/><circle cx="50" cy="51" r="3" fill="hsl(49 58% 28%)"/></g><g transform="translate(400 400)"><rect x="2" y="2" width="96" height="96" rx="12" fill="hsl(83 75% 96%)" stroke="hsl(83 45% 84%)" stroke-width="2"/><circle cx="50" cy="51" r="32" fill="hsl(83 75% 93%)" stroke="hsl(83 58% 28%)" stroke-width="4" stroke-linecap="round" stroke-linejoin="round"/><path d="M50 51V31m0 20 17 10" fill="none" stroke="hsl(83 58% 28%)" stroke-width="4" stroke-linecap="round" stroke-linejoin="round"/><circle cx="50" cy="51" r="3" fill="hsl(83 58% 28%)"/></g><g transform="translate(500 400)"><rect x="2" y="2" width="96" height="96" rx="12" fill="hsl(245 75% 96%)" stroke="hsl(245 45% 84%)" stroke-width="2"/><circle cx="50" cy="22" r="12" fill="hsl(293 82% 56%)" stroke="hsl(245 58% 28%)" stroke-width="4" stroke-linecap="round" stroke-linejoin="round"/><circle cx="24" cy="72" r="12" fill="hsl(245 72% 52%)" stroke="hsl(245 58% 28%)" stroke-width="4" stroke-linecap="round" stroke-linejoin="round"/><circle cx="76" cy="72" r="12" fill="hsl(245 72% 52%)" stroke="hsl(245 58% 28%)" stroke-width="4" stroke-linecap="round" stroke-linejoin="round"/><path d="m44 33-14 27m26-27 14 27M36 72h28" fill="none" stroke="hsl(245 58% 28%)" stroke-width="4" stroke-linecap="round" stroke-linejoin="round"/></g><g transform="translate(0 500)"><rect x="2" y="2" width="96" height="96" rx="12" fill="hsl(90 75% 96%)" stroke="hsl(90 45% 84%)" stroke-width="2"/><circle cx="50" cy="50" r="34" fill="hsl(90 75% 93%)" stroke="hsl(90 58% 28%)" stroke-width="4" stroke-linecap="round" stroke-linejoin="round"/><circle cx="50" cy="50" r="23" fill="hsl(90 72% 52%)" stroke="hsl(90 58% 28%)" stroke-width="4" stroke-linecap="round" stroke-linejoin="round"/><circle cx="50" cy="50" r="11" fill="hsl(138 82% 56%)" stroke="hsl(90 58% 28%)" stroke-width="4" stroke-linecap="round" stroke-linejoin="round"/><path d="m77 23 11-11m-12 1 12-1-1 12" fill="none" stroke="hsl(90 58% 28%)" stroke-width="4" stroke-linecap="round" stroke-linejoin="round"/></g><g transform="translate(100 500)"><rect x="2" y="2" width="96" height="96" rx="12" fill="hsl(308 75% 96%)" stroke="hsl(308 45% 84%)" stroke-width="2"/><circle cx="50" cy="22" r="12" fill="hsl(356 82% 56%)" stroke="hsl(308 58% 28%)" stroke-width="4" stroke-linecap="round" stroke-linejoin="round"/><circle cx="24" cy="72" r="12" fill="hsl(308 72% 52%)" stroke="hsl(308 58% 28%)" stroke-width="4" stroke-linecap="round" stroke-linejoin="round"/><circle cx="76" cy="72" r="12" fill="hsl(308 72% 52%)" stroke="hsl(308 58% 28%)" stroke-width="4" stroke-linecap="round" stroke-linejoin="round"/><path d="m44 33-14 27m26-27 14 27M36 72h28" fill="none" stroke="hsl(308 58% 28%)" stroke-width="4" stroke-linecap="round" stroke-linejoin="round"/></g><g transform="translate(200 500)"><rect x="2" y="2" width="96" height="96" rx="12" fill="hsl(353 75% 96%)" stroke="hsl(353 45% 84%)" stroke-width="2"/><path d="M50 13 79 24v23q0 24-29 39Q21 71 21 47V24Z" fill="hsl(353 72% 52%)" stroke="hsl(353 58% 28%)" stroke-width="4" stroke-linecap="round" stroke-linejoin="round"/><path d="m34 50 10 10 23-25" fill="none" stroke="white" stroke-width="7" stroke-linecap="round" stroke-linejoin="round"/></g><g transform="translate(300 500)"><rect x="2" y="2" width="96" height="96" rx="12" fill="hsl(241 75% 96%)" stroke="hsl(241 45% 84%)" stroke-width="2"/><circle cx="50" cy="49" r="29" fill="hsl(241 75% 93%)" stroke="hsl(241 58% 28%)" stroke-width="4" stroke-linecap="round" stroke-linejoin="round"/><circle cx="50" cy="49" r="12" fill="hsl(289 82% 56%)" stroke="hsl(241 58% 28%)" stroke-width="4" stroke-linecap="round" stroke-linejoin="round"/><path d="M50 12v10m0 54v10M13 49h10m54 0h10M24 23l8 8m36 36 8 8m0-52-8 8M32 67l-8 8" fill="none" stroke="hsl(241 58% 28%)" stroke-width="4" stroke-linecap="round" stroke-linejoin="round"/></g><g transform="translate(400 500)"><rect x="2" y="2" width="96" height="96" rx="12" fill="hsl(85 75% 96%)" stroke="hsl(85 45% 84%)" stroke-width="2"/><path d="M35 64q-13-9-13-25a28 28 0 0 1 56 0q0 16-13 25l-4 18H39Z" fill="hsl(133 82% 56%)" stroke="hsl(85 58% 28%)" stroke-width="4" stroke-linecap="round" stroke-linejoin="round"/><path d="M39 69h22M39 77h22M50 11v-7M17 19l-6-6m72 6 6-6" fill="none" stroke="hsl(85 58% 28%)" stroke-width="4" stroke-linecap="round" stroke-linejoin="round"/></g><g transform="translate(500 500)"><rect x="2" y="2" width="96" height="96" rx="12" fill="hsl(254 75% 96%)" stroke="hsl(254 45% 84%)" stroke-width="2"/><path d="m50 12 10 22 24 3-18 17 5 24-21-12-21 12 5-24-18-17 24-3Z" fill="hsl(302 82% 56%)" stroke="hsl(254 58% 28%)" stroke-width="4" stroke-linecap="round" stroke-linejoin="round"/><path d="M16 19c19-11 47-11 68 0M16 81c19 11 47 11 68 0" fill="none" stroke="hsl(254 58% 28%)" stroke-width="4" stroke-linecap="round" stroke-linejoin="round"/></g></svg>
