<svg xmlns="http://www.w3.org/2000/svg" viewBox="0 0 600 600" width="600" height="600" role="img" aria-label="SmartLingo beginner semantic picture sprite"><rect width="600" height="600" fill="#f8fbff"/><g transform="translate(0 0)"><rect x="2" y="2" width="96" height="96" rx="12" fill="hsl(346 75% 96%)" stroke="hsl(346 45% 84%)" stroke-width="2"/><path d="M12 22h55v39H36L22 75V61H12Z" fill="hsl(346 75% 93%)" stroke="hsl(346 58% 28%)" stroke-width="4" stroke-linecap="round" stroke-linejoin="round"/><path d="M41 49h47v31H62L50 89v-9h-9Z" fill="hsl(34 82% 56%)" stroke="hsl(346 58% 28%)" stroke-width="4" stroke-linecap="round" stroke-linejoin="round"/><circle cx="28" cy="42" r="3" fill="hsl(346 58% 28%)"/><circle cx="40" cy="42" r="3" fill="hsl(346 58% 28%)"/><circle cx="52" cy="42" r="3" fill="hsl(346 58% 28%)"/></g><g transform="translate(100 0)"><rect x="2" y="2" width="96" height="96" rx="12" fill="hsl(245 75% 96%)" stroke="hsl(245 45% 84%)" stroke-width="2"/><circle cx="22" cy="50" r="10" fill="hsl(293 82% 56%)" stroke="hsl(245 58% 28%)" stroke-width="4" stroke-linecap="round" stroke-linejoin="round"/><circle cx="78" cy="25" r="10" fill="hsl(245 72% 52%)" stroke="hsl(245 58% 28%)" stroke-width="4" stroke-linecap="round" stroke-linejoin="round"/><circle cx="78" cy="75" r="10" fill="hsl(245 72% 52%)" stroke="hsl(245 58% 28%)" stroke-width="4" stroke-linecap="round" stroke-linejoin="round"/><path d="M32 50h17m0 0 19-22M49 50l19 22" fill="none" stroke="hsl(245 58% 28%)" stroke-width="4" stroke-linecap="round" stroke-linejoin="round"/></g><g transform="translate(200 0)"><rect x="2" y="2" width="96" height="96" rx="12" fill="hsl(69 75% 96%)" stroke="hsl(69 45% 84%)" stroke-width="2"/><path d="M12 22h55v39H36L22 75V61H12Z" fill="hsl(69 75% 93%)" stroke="hsl(69 58% 28%)" stroke-width="4" stroke-linecap="round" stroke-linejoin="round"/><path d="M41 49h47v31H62L50 89v-9h-9Z" fill="hsl(117 82% 56%)" stroke="hsl(69 58% 28%)" stroke-width="4" stroke-linecap="round" stroke-linejoin="round"/><circle cx="28" cy="42" r="3" fill="hsl(69 58% 28%)"/><circle cx="40" cy="42" r="3" fill="hsl(69 58% 28%)"/><circle cx="52" cy="42" r="3" fill="hsl(69 58% 28%)"/></g><g transform="translate(300 0)"><rect x="2" y="2" width="96" height="96" rx="12" fill="hsl(308 75% 96%)" stroke="hsl(308 45% 84%)" stroke-width="2"/><circle cx="50" cy="22" r="12" fill="hsl(356 82% 56%)" stroke="hsl(308 58% 28%)" stroke-width="4" stroke-linecap="round" stroke-linejoin="round"/><circle cx="24" cy="72" r="12" fill="hsl(308 72% 52%)" stroke="hsl(308 58% 28%)" stroke-width="4" stroke-linecap="round" stroke-linejoin="round"/><circle cx="76" cy="72" r="12" fill="hsl(308 72% 52%)" stroke="hsl(308 58% 28%)" stroke-width="4" stroke-linecap="round" stroke-linejoin="round"/><path d="m44 33-14 27m26-27 14 27M36 72h28" fill="none" stroke="hsl(308 58% 28%)" stroke-width="4" stroke-linecap="round" stroke-linejoin="round"/></g><g transform="translate(400 0)"><rect x="2" y="2" width="96" height="96" rx="12" fill="hsl(273 75% 96%)" stroke="hsl(273 45% 84%)" stroke-width="2"/><path d="m50 12 10 22 24 3-18 17 5 24-21-12-21 12 5-24-18-17 24-3Z" fill="hsl(321 82% 56%)" stroke="hsl(273 58% 28%)" stroke-width="4" stroke-linecap="round" stroke-linejoin="round"/><path d="M16 19c19-11 47-11 68 0M16 81c19 11 47 11 68 0" fill="none" stroke="hsl(273 58% 28%)" stroke-width="4" stroke-linecap="round" stroke-linejoin="round"/></g><g transform="translate(500 0)"><rect x="2" y="2" width="96" height="96" rx="12" fill="hsl(147 75% 96%)" stroke="hsl(147 45% 84%)" stroke-width="2"/><path d="M50 13 79 24v23q0 24-29 39Q21 71 21 47V24Z" fill="hsl(147 72% 52%)" stroke="hsl(147 58% 28%)" stroke-width="4" stroke-linecap="round" stroke-linejoin="round"/><path d="m34 50 10 10 23-25" fill="none" stroke="white" stroke-width="7" stroke-linecap="round" stroke-linejoin="round"/></g><g transform="translate(0 100)"><rect x="2" y="2" width="96" height="96" rx="12" fill="hsl(293 75% 96%)" stroke="hsl(293 45% 84%)" stroke-width="2"/><circle cx="50" cy="22" r="12" fill="hsl(341 82% 56%)" stroke="hsl(293 58% 28%)" stroke-width="4" stroke-linecap="round" stroke-linejoin="round"/><circle cx="24" cy="72" r="12" fill="hsl(293 72% 52%)" stroke="hsl(293 58% 28%)" stroke-width="4" stroke-linecap="round" stroke-linejoin="round"/><circle cx="76" cy="72" r="12" fill="hsl(293 72% 52%)" stroke="hsl(293 58% 28%)" stroke-width="4" stroke-linecap="round" stroke-linejoin="round"/><path d="m44 33-14 27m26-27 14 27M36 72h28" fill="none" stroke="hsl(293 58% 28%)" stroke-width="4" stroke-linecap="round" stroke-linejoin="round"/></g><g transform="translate(100 100)"><rect x="2" y="2" width="96" height="96" rx="12" fill="hsl(111 75% 96%)" stroke="hsl(111 45% 84%)" stroke-width="2"/><circle cx="22" cy="50" r="10" fill="hsl(159 82% 56%)" stroke="hsl(111 58% 28%)" stroke-width="4" stroke-linecap="round" stroke-linejoin="round"/><circle cx="78" cy="25" r="10" fill="hsl(111 72% 52%)" stroke="hsl(111 58% 28%)" stroke-width="4" stroke-linecap="round" stroke-linejoin="round"/><circle cx="78" cy="75" r="10" fill="hsl(111 72% 52%)" stroke="hsl(111 58% 28%)" stroke-width="4" stroke-linecap="round" stroke-linejoin="round"/><path d="M32 50h17m0 0 19-22M49 50l19 22" fill="none" stroke="hsl(111 58% 28%)" stroke-width="4" stroke-linecap="round" stroke-linejoin="round"/></g><g transform="translate(200 100)"><rect x="2" y="2" width="96" height="96" rx="12" fill="hsl(100 75% 96%)" stroke="hsl(100 45% 84%)" stroke-width="2"/><circle cx="50" cy="51" r="32" fill="hsl(100 75% 93%)" stroke="hsl(100 58% 28%)" stroke-width="4" stroke-linecap="round" stroke-linejoin="round"/><path d="M50 51V31m0 20 17 10" fill="none" stroke="hsl(100 58% 28%)" stroke-width="4" stroke-linecap="round" stroke-linejoin="round"/><circle cx="50" cy="51" r="3" fill="hsl(100 58% 28%)"/></g><g transform="translate(300 100)"><rect x="2" y="2" width="96" height="96" rx="12" fill="hsl(34 75% 96%)" stroke="hsl(34 45% 84%)" stroke-width="2"/><circle cx="50" cy="22" r="12" fill="hsl(82 82% 56%)" stroke="hsl(34 58% 28%)" stroke-width="4" stroke-linecap="round" stroke-linejoin="round"/><circle cx="24" cy="72" r="12" fill="hsl(34 72% 52%)" stroke="hsl(34 58% 28%)" stroke-width="4" stroke-linecap="round" stroke-linejoin="round"/><circle cx="76" cy="72" r="12" fill="hsl(34 72% 52%)" stroke="hsl(34 58% 28%)" stroke-width="4" stroke-linecap="round" stroke-linejoin="round"/><path d="m44 33-14 27m26-27 14 27M36 72h28" fill="none" stroke="hsl(34 58% 28%)" stroke-width="4" stroke-linecap="round" stroke-linejoin="round"/></g><g transform="translate(400 100)"><rect x="2" y="2" width="96" height="96" rx="12" fill="hsl(105 75% 96%)" stroke="hsl(105 45% 84%)" stroke-width="2"/><path d="M35 64q-13-9-13-25a28 28 0 0 1 56 0q0 16-13 25l-4 18H39Z" fill="hsl(153 82% 56%)" stroke="hsl(105 58% 28%)" stroke-width="4" stroke-linecap="round" stroke-linejoin="round"/><path d="M39 69h22M39 77h22M50 11v-7M17 19l-6-6m72 6 6-6" fill="none" stroke="hsl(105 58% 28%)" stroke-width="4" stroke-linecap="round" stroke-linejoin="round"/></g><g transform="translate(500 100)"><rect x="2" y="2" width="96" height="96" rx="12" fill="hsl(42 75% 96%)" stroke="hsl(42 45% 84%)" stroke-width="2"/><path d="M50 18v61M24 30h52M20 72h60M31 30 18 56h26Zm38 0L56 56h26Z" fill="hsl(42 75% 93%)" stroke="hsl(42 58% 28%)" stroke-width="4" stroke-linecap="round" stroke-linejoin="round"/><circle cx="50" cy="16" r="7" fill="hsl(90 82% 56%)" stroke="hsl(42 58% 28%)" stroke-width="4" stroke-linecap="round" stroke-linejoin="round"/></g><g transform="translate(0 200)"><rect x="2" y="2" width="96" height="96" rx="12" fill="hsl(340 75% 96%)" stroke="hsl(340 45% 84%)" stroke-width="2"/><path d="M50 13 79 24v23q0 24-29 39Q21 71 21 47V24Z" fill="hsl(340 72% 52%)" stroke="hsl(340 58% 28%)" stroke-width="4" stroke-linecap="round" stroke-linejoin="round"/><path d="m34 50 10 10 23-25" fill="none" stroke="white" stroke-width="7" stroke-linecap="round" stroke-linejoin="round"/></g><g transform="translate(100 200)"><rect x="2" y="2" width="96" height="96" rx="12" fill="hsl(191 75% 96%)" stroke="hsl(191 45% 84%)" stroke-width="2"/><path d="M50 18v61M24 30h52M20 72h60M31 30 18 56h26Zm38 0L56 56h26Z" fill="hsl(191 75% 93%)" stroke="hsl(191 58% 28%)" stroke-width="4" stroke-linecap="round" stroke-linejoin="round"/><circle cx="50" cy="16" r="7" fill="hsl(239 82% 56%)" stroke="hsl(191 58% 28%)" stroke-width="4" stroke-linecap="round" stroke-linejoin="round"/></g><g transform="translate(200 200)"><rect x="2" y="2" width="96" height="96" rx="12" fill="hsl(247 75% 96%)" stroke="hsl(247 45% 84%)" stroke-width="2"/><path d="m50 12 10 22 24 3-18 17 5 24-21-12-21 12 5-24-18-17 24-3Z" fill="hsl(295 82% 56%)" stroke="hsl(247 58% 28%)" stroke-width="4" stroke-linecap="round" stroke-linejoin="round"/><path d="M16 19c19-11 47-11 68 0M16 81c19 11 47 11 68 0" fill="none" stroke="hsl(247 58% 28%)" stroke-width="4" stroke-linecap="round" stroke-linejoin="round"/></g><g transform="translate(300 200)"><rect x="2" y="2" width="96" height="96" rx="12" fill="hsl(306 75% 96%)" stroke="hsl(306 45% 84%)" stroke-width="2"/><path d="M35 64q-13-9-13-25a28 28 0 0 1 56 0q0 16-13 25l-4 18H39Z" fill="hsl(354 82% 56%)" stroke="hsl(306 58% 28%)" stroke-width="4" stroke-linecap="round" stroke-linejoin="round"/><path d="M39 69h22M39 77h22M50 11v-7M17 19l-6-6m72 6 6-6" fill="none" stroke="hsl(306 58% 28%)" stroke-width="4" stroke-linecap="round" stroke-linejoin="round"/></g><g transform="translate(400 200)"><rect x="2" y="2" width="96" height="96" rx="12" fill="hsl(95 75% 96%)" stroke="hsl(95 45% 84%)" stroke-width="2"/><circle cx="50" cy="50" r="34" fill="hsl(95 75% 93%)" stroke="hsl(95 58% 28%)" stroke-width="4" stroke-linecap="round" stroke-linejoin="round"/><circle cx="50" cy="50" r="23" fill="hsl(95 72% 52%)" stroke="hsl(95 58% 28%)" stroke-width="4" stroke-linecap="round" stroke-linejoin="round"/><circle cx="50" cy="50" r="11" fill="hsl(143 82% 56%)" stroke="hsl(95 58% 28%)" stroke-width="4" stroke-linecap="round" stroke-linejoin="round"/><path d="m77 23 11-11m-12 1 12-1-1 12" fill="none" stroke="hsl(95 58% 28%)" stroke-width="4" stroke-linecap="round" stroke-linejoin="round"/></g><g transform="translate(500 200)"><rect x="2" y="2" width="96" height="96" rx="12" fill="hsl(167 75% 96%)" stroke="hsl(167 45% 84%)" stroke-width="2"/><path d="M35 64q-13-9-13-25a28 28 0 0 1 56 0q0 16-13 25l-4 18H39Z" fill="hsl(215 82% 56%)" stroke="hsl(167 58% 28%)" stroke-width="4" stroke-linecap="round" stroke-linejoin="round"/><path d="M39 69h22M39 77h22M50 11v-7M17 19l-6-6m72 6 6-6" fill="none" stroke="hsl(167 58% 28%)" stroke-width="4" stroke-linecap="round" stroke-linejoin="round"/></g><g transform="translate(0 300)"><rect x="2" y="2" width="96" height="96" rx="12" fill="hsl(121 75% 96%)" stroke="hsl(121 45% 84%)" stroke-width="2"/><path d="m50 12 10 22 24 3-18 17 5 24-21-12-21 12 5-24-18-17 24-3Z" fill="hsl(169 82% 56%)" stroke="hsl(121 58% 28%)" stroke-width="4" stroke-linecap="round" stroke-linejoin="round"/><path d="M16 19c19-11 47-11 68 0M16 81c19 11 47 11 68 0" fill="none" stroke="hsl(121 58% 28%)" stroke-width="4" stroke-linecap="round" stroke-linejoin="round"/></g><g transform="translate(100 300)"><rect x="2" y="2" width="96" height="96" rx="12" fill="hsl(343 75% 96%)" stroke="hsl(343 45% 84%)" stroke-width="2"/><path d="M12 22h55v39H36L22 75V61H12Z" fill="hsl(343 75% 93%)" stroke="hsl(343 58% 28%)" stroke-width="4" stroke-linecap="round" stroke-linejoin="round"/><path d="M41 49h47v31H62L50 89v-9h-9Z" fill="hsl(31 82% 56%)" stroke="hsl(343 58% 28%)" stroke-width="4" stroke-linecap="round" stroke-linejoin="round"/><circle cx="28" cy="42" r="3" fill="hsl(343 58% 28%)"/><circle cx="40" cy="42" r="3" fill="hsl(343 58% 28%)"/><circle cx="52" cy="42" r="3" fill="hsl(343 58% 28%)"/></g><g transform="translate(200 300)"><rect x="2" y="2" width="96" height="96" rx="12" fill="hsl(84 75% 96%)" stroke="hsl(84 45% 84%)" stroke-width="2"/><circle cx="50" cy="22" r="12" fill="hsl(132 82% 56%)" stroke="hsl(84 58% 28%)" stroke-width="4" stroke-linecap="round" stroke-linejoin="round"/><circle cx="24" cy="72" r="12" fill="hsl(84 72% 52%)" stroke="hsl(84 58% 28%)" stroke-width="4" stroke-linecap="round" stroke-linejoin="round"/><circle cx="76" cy="72" r="12" fill="hsl(84 72% 52%)" stroke="hsl(84 58% 28%)" stroke-width="4" stroke-linecap="round" stroke-linejoin="round"/><path d="m44 33-14 27m26-27 14 27M36 72h28" fill="none" stroke="hsl(84 58% 28%)" stroke-width="4" stroke-linecap="round" stroke-linejoin="round"/></g><g transform="translate(300 300)"><rect x="2" y="2" width="96" height="96" rx="12" fill="hsl(180 75% 96%)" stroke="hsl(180 45% 84%)" stroke-width="2"/><path d="M50 18v61M24 30h52M20 72h60M31 30 18 56h26Zm38 0L56 56h26Z" fill="hsl(180 75% 93%)" stroke="hsl(180 58% 28%)" stroke-width="4" stroke-linecap="round" stroke-linejoin="round"/><circle cx="50" cy="16" r="7" fill="hsl(228 82% 56%)" stroke="hsl(180 58% 28%)" stroke-width="4" stroke-linecap="round" stroke-linejoin="round"/></g><g transform="translate(400 300)"><rect x="2" y="2" width="96" height="96" rx="12" fill="hsl(103 75% 96%)" stroke="hsl(103 45% 84%)" stroke-width="2"/><circle cx="22" cy="50" r="10" fill="hsl(151 82% 56%)" stroke="hsl(103 58% 28%)" stroke-width="4" stroke-linecap="round" stroke-linejoin="round"/><circle cx="78" cy="25" r="10" fill="hsl(103 72% 52%)" stroke="hsl(103 58% 28%)" stroke-width="4" stroke-linecap="round" stroke-linejoin="round"/><circle cx="78" cy="75" r="10" fill="hsl(103 72% 52%)" stroke="hsl(103 58% 28%)" stroke-width="4" stroke-linecap="round" stroke-linejoin="round"/><path d="M32 50h17m0 0 19-22M49 50l19 22" fill="none" stroke="hsl(103 58% 28%)" stroke-width="4" stroke-linecap="round" stroke-linejoin="round"/></g><g transform="translate(500 300)"><rect x="2" y="2" width="96" height="96" rx="12" fill="hsl(302 75% 96%)" stroke="hsl(302 45% 84%)" stroke-width="2"/><circle cx="50" cy="50" r="34" fill="hsl(302 75% 93%)" stroke="hsl(302 58% 28%)" stroke-width="4" stroke-linecap="round" stroke-linejoin="round"/><circle cx="50" cy="50" r="23" fill="hsl(302 72% 52%)" stroke="hsl(302 58% 28%)" stroke-width="4" stroke-linecap="round" stroke-linejoin="round"/><circle cx="50" cy="50" r="11" fill="hsl(350 82% 56%)" stroke="hsl(302 58% 28%)" stroke-width="4" stroke-linecap="round" stroke-linejoin="round"/><path d="m77 23 11-11m-12 1 12-1-1 12" fill="none" stroke="hsl(302 58% 28%)" stroke-width="4" stroke-linecap="round" stroke-linejoin="round"/></g><g transform="translate(0 400)"><rect x="2" y="2" width="96" height="96" rx="12" fill="hsl(185 75% 96%)" stroke="hsl(185 45% 84%)" stroke-width="2"/><path d="M50 18v61M24 30h52M20 72h60M31 30 18 56h26Zm38 0L56 56h26Z" fill="hsl(185 75% 93%)" stroke="hsl(185 58% 28%)" stroke-width="4" stroke-linecap="round" stroke-linejoin="round"/><circle cx="50" cy="16" r="7" fill="hsl(233 82% 56%)" stroke="hsl(185 58% 28%)" stroke-width="4" stroke-linecap="round" stroke-linejoin="round"/></g><g transform="translate(100 400)"><rect x="2" y="2" width="96" height="96" rx="12" fill="hsl(210 75% 96%)" stroke="hsl(210 45% 84%)" stroke-width="2"/><path d="M35 64q-13-9-13-25a28 28 0 0 1 56 0q0 16-13 25l-4 18H39Z" fill="hsl(258 82% 56%)" stroke="hsl(210 58% 28%)" stroke-width="4" stroke-linecap="round" stroke-linejoin="round"/><path d="M39 69h22M39 77h22M50 11v-7M17 19l-6-6m72 6 6-6" fill="none" stroke="hsl(210 58% 28%)" stroke-width="4" stroke-linecap="round" stroke-linejoin="round"/></g><g transform="translate(200 400)"><rect x="2" y="2" width="96" height="96" rx="12" fill="hsl(61 75% 96%)" stroke="hsl(61 45% 84%)" stroke-width="2"/><circle cx="50" cy="50" r="31" fill="hsl(109 82% 56%)" stroke="hsl(61 58% 28%)" stroke-width="4" stroke-linecap="round" stroke-linejoin="round"/><path d="M61 35q-7-8-18-3-9 4-2 12l18 8q8 7-1 14-12 8-22-3M50 24v52" fill="none" stroke="hsl(61 58% 28%)" stroke-width="4" stroke-linecap="round" stroke-linejoin="round"/></g><g transform="translate(300 400)"><rect x="2" y="2" width="96" height="96" rx="12" fill="hsl(306 75% 96%)" stroke="hsl(306 45% 84%)" stroke-width="2"/><path d="m50 12 10 22 24 3-18 17 5 24-21-12-21 12 5-24-18-17 24-3Z" fill="hsl(354 82% 56%)" stroke="hsl(306 58% 28%)" stroke-width="4" stroke-linecap="round" stroke-linejoin="round"/><path d="M16 19c19-11 47-11 68 0M16 81c19 11 47 11 68 0" fill="none" stroke="hsl(306 58% 28%)" stroke-width="4" stroke-linecap="round" stroke-linejoin="round"/></g><g transform="translate(400 400)"><rect x="2" y="2" width="96" height="96" rx="12" fill="hsl(88 75% 96%)" stroke="hsl(88 45% 84%)" stroke-width="2"/><circle cx="50" cy="22" r="12" fill="hsl(136 82% 56%)" stroke="hsl(88 58% 28%)" stroke-width="4" stroke-linecap="round" stroke-linejoin="round"/><circle cx="24" cy="72" r="12" fill="hsl(88 72% 52%)" stroke="hsl(88 58% 28%)" stroke-width="4" stroke-linecap="round" stroke-linejoin="round"/><circle cx="76" cy="72" r="12" fill="hsl(88 72% 52%)" stroke="hsl(88 58% 28%)" stroke-width="4" stroke-linecap="round" stroke-linejoin="round"/><path d="m44 33-14 27m26-27 14 27M36 72h28" fill="none" stroke="hsl(88 58% 28%)" stroke-width="4" stroke-linecap="round" stroke-linejoin="round"/></g><g transform="translate(500 400)"><rect x="2" y="2" width="96" height="96" rx="12" fill="hsl(47 75% 96%)" stroke="hsl(47 45% 84%)" stroke-width="2"/><path d="m50 12 10 22 24 3-18 17 5 24-21-12-21 12 5-24-18-17 24-3Z" fill="hsl(95 82% 56%)" stroke="hsl(47 58% 28%)" stroke-width="4" stroke-linecap="round" stroke-linejoin="round"/><path d="M16 19c19-11 47-11 68 0M16 81c19 11 47 11 68 0" fill="none" stroke="hsl(47 58% 28%)" stroke-width="4" stroke-linecap="round" stroke-linejoin="round"/></g><g transform="translate(0 500)"><rect x="2" y="2" width="96" height="96" rx="12" fill="hsl(87 75% 96%)" stroke="hsl(87 45% 84%)" stroke-width="2"/><circle cx="50" cy="22" r="12" fill="hsl(135 82% 56%)" stroke="hsl(87 58% 28%)" stroke-width="4" stroke-linecap="round" stroke-linejoin="round"/><circle cx="24" cy="72" r="12" fill="hsl(87 72% 52%)" stroke="hsl(87 58% 28%)" stroke-width="4" stroke-linecap="round" stroke-linejoin="round"/><circle cx="76" cy="72" r="12" fill="hsl(87 72% 52%)" stroke="hsl(87 58% 28%)" stroke-width="4" stroke-linecap="round" stroke-linejoin="round"/><path d="m44 33-14 27m26-27 14 27M36 72h28" fill="none" stroke="hsl(87 58% 28%)" stroke-width="4" stroke-linecap="round" stroke-linejoin="round"/></g><g transform="translate(100 500)"><rect x="2" y="2" width="96" height="96" rx="12" fill="hsl(235 75% 96%)" stroke="hsl(235 45% 84%)" stroke-width="2"/><circle cx="50" cy="49" r="29" fill="hsl(235 75% 93%)" stroke="hsl(235 58% 28%)" stroke-width="4" stroke-linecap="round" stroke-linejoin="round"/><circle cx="50" cy="49" r="12" fill="hsl(283 82% 56%)" stroke="hsl(235 58% 28%)" stroke-width="4" stroke-linecap="round" stroke-linejoin="round"/><path d="M50 12v10m0 54v10M13 49h10m54 0h10M24 23l8 8m36 36 8 8m0-52-8 8M32 67l-8 8" fill="none" stroke="hsl(235 58% 28%)" stroke-width="4" stroke-linecap="round" stroke-linejoin="round"/></g><g transform="translate(200 500)"><rect x="2" y="2" width="96" height="96" rx="12" fill="hsl(218 75% 96%)" stroke="hsl(218 45% 84%)" stroke-width="2"/><circle cx="50" cy="49" r="29" fill="hsl(218 75% 93%)" stroke="hsl(218 58% 28%)" stroke-width="4" stroke-linecap="round" stroke-linejoin="round"/><circle cx="50" cy="49" r="12" fill="hsl(266 82% 56%)" stroke="hsl(218 58% 28%)" stroke-width="4" stroke-linecap="round" stroke-linejoin="round"/><path d="M50 12v10m0 54v10M13 49h10m54 0h10M24 23l8 8m36 36 8 8m0-52-8 8M32 67l-8 8" fill="none" stroke="hsl(218 58% 28%)" stroke-width="4" stroke-linecap="round" stroke-linejoin="round"/></g><g transform="translate(300 500)"><rect x="2" y="2" width="96" height="96" rx="12" fill="hsl(227 75% 96%)" stroke="hsl(227 45% 84%)" stroke-width="2"/><circle cx="50" cy="22" r="12" fill="hsl(275 82% 56%)" stroke="hsl(227 58% 28%)" stroke-width="4" stroke-linecap="round" stroke-linejoin="round"/><circle cx="24" cy="72" r="12" fill="hsl(227 72% 52%)" stroke="hsl(227 58% 28%)" stroke-width="4" stroke-linecap="round" stroke-linejoin="round"/><circle cx="76" cy="72" r="12" fill="hsl(227 72% 52%)" stroke="hsl(227 58% 28%)" stroke-width="4" stroke-linecap="round" stroke-linejoin="round"/><path d="m44 33-14 27m26-27 14 27M36 72h28" fill="none" stroke="hsl(227 58% 28%)" stroke-width="4" stroke-linecap="round" stroke-linejoin="round"/></g><g transform="translate(400 500)"><rect x="2" y="2" width="96" height="96" rx="12" fill="hsl(80 75% 96%)" stroke="hsl(80 45% 84%)" stroke-width="2"/><path d="M17 45 50 19l33 26v38H17Z" fill="hsl(80 75% 93%)" stroke="hsl(80 58% 28%)" stroke-width="4" stroke-linecap="round" stroke-linejoin="round"/><path d="M41 83V57h18v26M27 50h10v11H27m36-11h10v11H63" fill="hsl(128 82% 56%)" stroke="hsl(80 58% 28%)" stroke-width="4" stroke-linecap="round" stroke-linejoin="round"/></g><g transform="translate(500 500)"><rect x="2" y="2" width="96" height="96" rx="12" fill="hsl(75 75% 96%)" stroke="hsl(75 45% 84%)" stroke-width="2"/><path d="M50 18v61M24 30h52M20 72h60M31 30 18 56h26Zm38 0L56 56h26Z" fill="hsl(75 75% 93%)" stroke="hsl(75 58% 28%)" stroke-width="4" stroke-linecap="round" stroke-linejoin="round"/><circle cx="50" cy="16" r="7" fill="hsl(123 82% 56%)" stroke="hsl(75 58% 28%)" stroke-width="4" stroke-linecap="round" stroke-linejoin="round"/></g></svg>
