<svg xmlns="http://www.w3.org/2000/svg" viewBox="0 0 600 600" width="600" height="600" role="img" aria-label="SmartLingo beginner semantic picture sprite"><rect width="600" height="600" fill="#f8fbff"/><g transform="translate(0 0)"><rect x="2" y="2" width="96" height="96" rx="12" fill="hsl(132 75% 96%)" stroke="hsl(132 45% 84%)" stroke-width="2"/><path d="M50 13 79 24v23q0 24-29 39Q21 71 21 47V24Z" fill="hsl(132 72% 52%)" stroke="hsl(132 58% 28%)" stroke-width="4" stroke-linecap="round" stroke-linejoin="round"/><path d="m34 50 10 10 23-25" fill="none" stroke="white" stroke-width="7" stroke-linecap="round" stroke-linejoin="round"/></g><g transform="translate(100 0)"><rect x="2" y="2" width="96" height="96" rx="12" fill="hsl(314 75% 96%)" stroke="hsl(314 45% 84%)" stroke-width="2"/><circle cx="50" cy="51" r="32" fill="hsl(314 75% 93%)" stroke="hsl(314 58% 28%)" stroke-width="4" stroke-linecap="round" stroke-linejoin="round"/><path d="M50 51V31m0 20 17 10" fill="none" stroke="hsl(314 58% 28%)" stroke-width="4" stroke-linecap="round" stroke-linejoin="round"/><circle cx="50" cy="51" r="3" fill="hsl(314 58% 28%)"/></g><g transform="translate(200 0)"><rect x="2" y="2" width="96" height="96" rx="12" fill="hsl(123 75% 96%)" stroke="hsl(123 45% 84%)" stroke-width="2"/><circle cx="50" cy="51" r="32" fill="hsl(123 75% 93%)" stroke="hsl(123 58% 28%)" stroke-width="4" stroke-linecap="round" stroke-linejoin="round"/><path d="M50 51V31m0 20 17 10" fill="none" stroke="hsl(123 58% 28%)" stroke-width="4" stroke-linecap="round" stroke-linejoin="round"/><circle cx="50" cy="51" r="3" fill="hsl(123 58% 28%)"/></g><g transform="translate(300 0)"><rect x="2" y="2" width="96" height="96" rx="12" fill="hsl(145 75% 96%)" stroke="hsl(145 45% 84%)" stroke-width="2"/><circle cx="50" cy="51" r="32" fill="hsl(145 75% 93%)" stroke="hsl(145 58% 28%)" stroke-width="4" stroke-linecap="round" stroke-linejoin="round"/><path d="M50 51V31m0 20 17 10" fill="none" stroke="hsl(145 58% 28%)" stroke-width="4" stroke-linecap="round" stroke-linejoin="round"/><circle cx="50" cy="51" r="3" fill="hsl(145 58% 28%)"/></g><g transform="translate(400 0)"><rect x="2" y="2" width="96" height="96" rx="12" fill="hsl(234 75% 96%)" stroke="hsl(234 45% 84%)" stroke-width="2"/><circle cx="50" cy="51" r="32" fill="hsl(234 75% 93%)" stroke="hsl(234 58% 28%)" stroke-width="4" stroke-linecap="round" stroke-linejoin="round"/><path d="M50 51V31m0 20 17 10" fill="none" stroke="hsl(234 58% 28%)" stroke-width="4" stroke-linecap="round" stroke-linejoin="round"/><circle cx="50" cy="51" r="3" fill="hsl(234 58% 28%)"/></g><g transform="translate(500 0)"><rect x="2" y="2" width="96" height="96" rx="12" fill="hsl(101 75% 96%)" stroke="hsl(101 45% 84%)" stroke-width="2"/><circle cx="50" cy="51" r="32" fill="hsl(101 75% 93%)" stroke="hsl(101 58% 28%)" stroke-width="4" stroke-linecap="round" stroke-linejoin="round"/><path d="M50 51V31m0 20 17 10" fill="none" stroke="hsl(101 58% 28%)" stroke-width="4" stroke-linecap="round" stroke-linejoin="round"/><circle cx="50" cy="51" r="3" fill="hsl(101 58% 28%)"/></g><g transform="translate(0 100)"><rect x="2" y="2" width="96" height="96" rx="12" fill="hsl(58 75% 96%)" stroke="hsl(58 45% 84%)" stroke-width="2"/><circle cx="50" cy="50" r="34" fill="hsl(58 75% 93%)" stroke="hsl(58 58% 28%)" stroke-width="4" stroke-linecap="round" stroke-linejoin="round"/><circle cx="50" cy="50" r="23" fill="hsl(58 72% 52%)" stroke="hsl(58 58% 28%)" stroke-width="4" stroke-linecap="round" stroke-linejoin="round"/><circle cx="50" cy="50" r="11" fill="hsl(106 82% 56%)" stroke="hsl(58 58% 28%)" stroke-width="4" stroke-linecap="round" stroke-linejoin="round"/><path d="m77 23 11-11m-12 1 12-1-1 12" fill="none" stroke="hsl(58 58% 28%)" stroke-width="4" stroke-linecap="round" stroke-linejoin="round"/></g><g transform="translate(100 100)"><rect x="2" y="2" width="96" height="96" rx="12" fill="hsl(76 75% 96%)" stroke="hsl(76 45% 84%)" stroke-width="2"/><path d="M35 64q-13-9-13-25a28 28 0 0 1 56 0q0 16-13 25l-4 18H39Z" fill="hsl(124 82% 56%)" stroke="hsl(76 58% 28%)" stroke-width="4" stroke-linecap="round" stroke-linejoin="round"/><path d="M39 69h22M39 77h22M50 11v-7M17 19l-6-6m72 6 6-6" fill="none" stroke="hsl(76 58% 28%)" stroke-width="4" stroke-linecap="round" stroke-linejoin="round"/></g><g transform="translate(200 100)"><rect x="2" y="2" width="96" height="96" rx="12" fill="hsl(312 75% 96%)" stroke="hsl(312 45% 84%)" stroke-width="2"/><path d="M35 64q-13-9-13-25a28 28 0 0 1 56 0q0 16-13 25l-4 18H39Z" fill="hsl(0 82% 56%)" stroke="hsl(312 58% 28%)" stroke-width="4" stroke-linecap="round" stroke-linejoin="round"/><path d="M39 69h22M39 77h22M50 11v-7M17 19l-6-6m72 6 6-6" fill="none" stroke="hsl(312 58% 28%)" stroke-width="4" stroke-linecap="round" stroke-linejoin="round"/></g><g transform="translate(300 100)"><rect x="2" y="2" width="96" height="96" rx="12" fill="hsl(19 75% 96%)" stroke="hsl(19 45% 84%)" stroke-width="2"/><circle cx="50" cy="49" r="29" fill="hsl(19 75% 93%)" stroke="hsl(19 58% 28%)" stroke-width="4" stroke-linecap="round" stroke-linejoin="round"/><circle cx="50" cy="49" r="12" fill="hsl(67 82% 56%)" stroke="hsl(19 58% 28%)" stroke-width="4" stroke-linecap="round" stroke-linejoin="round"/><path d="M50 12v10m0 54v10M13 49h10m54 0h10M24 23l8 8m36 36 8 8m0-52-8 8M32 67l-8 8" fill="none" stroke="hsl(19 58% 28%)" stroke-width="4" stroke-linecap="round" stroke-linejoin="round"/></g><g transform="translate(400 100)"><rect x="2" y="2" width="96" height="96" rx="12" fill="hsl(341 75% 96%)" stroke="hsl(341 45% 84%)" stroke-width="2"/><circle cx="50" cy="22" r="12" fill="hsl(29 82% 56%)" stroke="hsl(341 58% 28%)" stroke-width="4" stroke-linecap="round" stroke-linejoin="round"/><circle cx="24" cy="72" r="12" fill="hsl(341 72% 52%)" stroke="hsl(341 58% 28%)" stroke-width="4" stroke-linecap="round" stroke-linejoin="round"/><circle cx="76" cy="72" r="12" fill="hsl(341 72% 52%)" stroke="hsl(341 58% 28%)" stroke-width="4" stroke-linecap="round" stroke-linejoin="round"/><path d="m44 33-14 27m26-27 14 27M36 72h28" fill="none" stroke="hsl(341 58% 28%)" stroke-width="4" stroke-linecap="round" stroke-linejoin="round"/></g><g transform="translate(500 100)"><rect x="2" y="2" width="96" height="96" rx="12" fill="hsl(99 75% 96%)" stroke="hsl(99 45% 84%)" stroke-width="2"/><circle cx="27" cy="31" r="9" fill="hsl(147 82% 56%)" stroke="hsl(99 58% 28%)" stroke-width="4" stroke-linecap="round" stroke-linejoin="round"/><path d="M27 42v24m0-14 14 8M27 51 15 62m12 4-10 15m10-15 13 14" fill="none" stroke="hsl(99 58% 28%)" stroke-width="4" stroke-linecap="round" stroke-linejoin="round"/><path d="M48 35h34m-12-10 12 10-12 10" fill="none" stroke="hsl(99 58% 28%)" stroke-width="4" stroke-linecap="round" stroke-linejoin="round"/></g><g transform="translate(0 200)"><rect x="2" y="2" width="96" height="96" rx="12" fill="hsl(203 75% 96%)" stroke="hsl(203 45% 84%)" stroke-width="2"/><circle cx="27" cy="31" r="9" fill="hsl(251 82% 56%)" stroke="hsl(203 58% 28%)" stroke-width="4" stroke-linecap="round" stroke-linejoin="round"/><path d="M27 42v24m0-14 14 8M27 51 15 62m12 4-10 15m10-15 13 14" fill="none" stroke="hsl(203 58% 28%)" stroke-width="4" stroke-linecap="round" stroke-linejoin="round"/><path d="M48 35h34m-12-10 12 10-12 10" fill="none" stroke="hsl(203 58% 28%)" stroke-width="4" stroke-linecap="round" stroke-linejoin="round"/></g><g transform="translate(100 200)"><rect x="2" y="2" width="96" height="96" rx="12" fill="hsl(205 75% 96%)" stroke="hsl(205 45% 84%)" stroke-width="2"/><path d="m50 12 10 22 24 3-18 17 5 24-21-12-21 12 5-24-18-17 24-3Z" fill="hsl(253 82% 56%)" stroke="hsl(205 58% 28%)" stroke-width="4" stroke-linecap="round" stroke-linejoin="round"/><path d="M16 19c19-11 47-11 68 0M16 81c19 11 47 11 68 0" fill="none" stroke="hsl(205 58% 28%)" stroke-width="4" stroke-linecap="round" stroke-linejoin="round"/></g><g transform="translate(200 200)"><rect x="2" y="2" width="96" height="96" rx="12" fill="hsl(195 75% 96%)" stroke="hsl(195 45% 84%)" stroke-width="2"/><path d="m50 12 10 22 24 3-18 17 5 24-21-12-21 12 5-24-18-17 24-3Z" fill="hsl(243 82% 56%)" stroke="hsl(195 58% 28%)" stroke-width="4" stroke-linecap="round" stroke-linejoin="round"/><path d="M16 19c19-11 47-11 68 0M16 81c19 11 47 11 68 0" fill="none" stroke="hsl(195 58% 28%)" stroke-width="4" stroke-linecap="round" stroke-linejoin="round"/></g><g transform="translate(300 200)"><rect x="2" y="2" width="96" height="96" rx="12" fill="hsl(259 75% 96%)" stroke="hsl(259 45% 84%)" stroke-width="2"/><path d="m50 12 10 22 24 3-18 17 5 24-21-12-21 12 5-24-18-17 24-3Z" fill="hsl(307 82% 56%)" stroke="hsl(259 58% 28%)" stroke-width="4" stroke-linecap="round" stroke-linejoin="round"/><path d="M16 19c19-11 47-11 68 0M16 81c19 11 47 11 68 0" fill="none" stroke="hsl(259 58% 28%)" stroke-width="4" stroke-linecap="round" stroke-linejoin="round"/></g><g transform="translate(400 200)"><rect x="2" y="2" width="96" height="96" rx="12" fill="hsl(281 75% 96%)" stroke="hsl(281 45% 84%)" stroke-width="2"/><circle cx="50" cy="22" r="12" fill="hsl(329 82% 56%)" stroke="hsl(281 58% 28%)" stroke-width="4" stroke-linecap="round" stroke-linejoin="round"/><circle cx="24" cy="72" r="12" fill="hsl(281 72% 52%)" stroke="hsl(281 58% 28%)" stroke-width="4" stroke-linecap="round" stroke-linejoin="round"/><circle cx="76" cy="72" r="12" fill="hsl(281 72% 52%)" stroke="hsl(281 58% 28%)" stroke-width="4" stroke-linecap="round" stroke-linejoin="round"/><path d="m44 33-14 27m26-27 14 27M36 72h28" fill="none" stroke="hsl(281 58% 28%)" stroke-width="4" stroke-linecap="round" stroke-linejoin="round"/></g><g transform="translate(500 200)"><rect x="2" y="2" width="96" height="96" rx="12" fill="hsl(1 75% 96%)" stroke="hsl(1 45% 84%)" stroke-width="2"/><circle cx="50" cy="49" r="29" fill="hsl(1 75% 93%)" stroke="hsl(1 58% 28%)" stroke-width="4" stroke-linecap="round" stroke-linejoin="round"/><circle cx="50" cy="49" r="12" fill="hsl(49 82% 56%)" stroke="hsl(1 58% 28%)" stroke-width="4" stroke-linecap="round" stroke-linejoin="round"/><path d="M50 12v10m0 54v10M13 49h10m54 0h10M24 23l8 8m36 36 8 8m0-52-8 8M32 67l-8 8" fill="none" stroke="hsl(1 58% 28%)" stroke-width="4" stroke-linecap="round" stroke-linejoin="round"/></g><g transform="translate(0 300)"><rect x="2" y="2" width="96" height="96" rx="12" fill="hsl(98 75% 96%)" stroke="hsl(98 45% 84%)" stroke-width="2"/><path d="M35 64q-13-9-13-25a28 28 0 0 1 56 0q0 16-13 25l-4 18H39Z" fill="hsl(146 82% 56%)" stroke="hsl(98 58% 28%)" stroke-width="4" stroke-linecap="round" stroke-linejoin="round"/><path d="M39 69h22M39 77h22M50 11v-7M17 19l-6-6m72 6 6-6" fill="none" stroke="hsl(98 58% 28%)" stroke-width="4" stroke-linecap="round" stroke-linejoin="round"/></g><g transform="translate(100 300)"><rect x="2" y="2" width="96" height="96" rx="12" fill="hsl(263 75% 96%)" stroke="hsl(263 45% 84%)" stroke-width="2"/><circle cx="22" cy="50" r="10" fill="hsl(311 82% 56%)" stroke="hsl(263 58% 28%)" stroke-width="4" stroke-linecap="round" stroke-linejoin="round"/><circle cx="78" cy="25" r="10" fill="hsl(263 72% 52%)" stroke="hsl(263 58% 28%)" stroke-width="4" stroke-linecap="round" stroke-linejoin="round"/><circle cx="78" cy="75" r="10" fill="hsl(263 72% 52%)" stroke="hsl(263 58% 28%)" stroke-width="4" stroke-linecap="round" stroke-linejoin="round"/><path d="M32 50h17m0 0 19-22M49 50l19 22" fill="none" stroke="hsl(263 58% 28%)" stroke-width="4" stroke-linecap="round" stroke-linejoin="round"/></g><g transform="translate(200 300)"><rect x="2" y="2" width="96" height="96" rx="12" fill="hsl(174 75% 96%)" stroke="hsl(174 45% 84%)" stroke-width="2"/><circle cx="50" cy="50" r="34" fill="hsl(174 75% 93%)" stroke="hsl(174 58% 28%)" stroke-width="4" stroke-linecap="round" stroke-linejoin="round"/><circle cx="50" cy="50" r="23" fill="hsl(174 72% 52%)" stroke="hsl(174 58% 28%)" stroke-width="4" stroke-linecap="round" stroke-linejoin="round"/><circle cx="50" cy="50" r="11" fill="hsl(222 82% 56%)" stroke="hsl(174 58% 28%)" stroke-width="4" stroke-linecap="round" stroke-linejoin="round"/><path d="m77 23 11-11m-12 1 12-1-1 12" fill="none" stroke="hsl(174 58% 28%)" stroke-width="4" stroke-linecap="round" stroke-linejoin="round"/></g><g transform="translate(300 300)"><rect x="2" y="2" width="96" height="96" rx="12" fill="hsl(319 75% 96%)" stroke="hsl(319 45% 84%)" stroke-width="2"/><path d="M50 18v61M24 30h52M20 72h60M31 30 18 56h26Zm38 0L56 56h26Z" fill="hsl(319 75% 93%)" stroke="hsl(319 58% 28%)" stroke-width="4" stroke-linecap="round" stroke-linejoin="round"/><circle cx="50" cy="16" r="7" fill="hsl(7 82% 56%)" stroke="hsl(319 58% 28%)" stroke-width="4" stroke-linecap="round" stroke-linejoin="round"/></g><g transform="translate(400 300)"><rect x="2" y="2" width="96" height="96" rx="12" fill="hsl(354 75% 96%)" stroke="hsl(354 45% 84%)" stroke-width="2"/><circle cx="50" cy="49" r="29" fill="hsl(354 75% 93%)" stroke="hsl(354 58% 28%)" stroke-width="4" stroke-linecap="round" stroke-linejoin="round"/><circle cx="50" cy="49" r="12" fill="hsl(42 82% 56%)" stroke="hsl(354 58% 28%)" stroke-width="4" stroke-linecap="round" stroke-linejoin="round"/><path d="M50 12v10m0 54v10M13 49h10m54 0h10M24 23l8 8m36 36 8 8m0-52-8 8M32 67l-8 8" fill="none" stroke="hsl(354 58% 28%)" stroke-width="4" stroke-linecap="round" stroke-linejoin="round"/></g><g transform="translate(500 300)"><rect x="2" y="2" width="96" height="96" rx="12" fill="hsl(26 75% 96%)" stroke="hsl(26 45% 84%)" stroke-width="2"/><rect x="17" y="55" width="14" height="27" rx="4" fill="hsl(26 72% 52%)" stroke="hsl(26 58% 28%)" stroke-width="4" stroke-linecap="round" stroke-linejoin="round"/><rect x="43" y="39" width="14" height="43" rx="4" fill="hsl(74 82% 56%)" stroke="hsl(26 58% 28%)" stroke-width="4" stroke-linecap="round" stroke-linejoin="round"/><rect x="69" y="22" width="14" height="60" rx="4" fill="hsl(26 72% 52%)" stroke="hsl(26 58% 28%)" stroke-width="4" stroke-linecap="round" stroke-linejoin="round"/><path d="m14 28 18-12 18 8 24-14" fill="none" stroke="hsl(26 58% 28%)" stroke-width="4" stroke-linecap="round" stroke-linejoin="round"/></g><g transform="translate(0 400)"><rect x="2" y="2" width="96" height="96" rx="12" fill="hsl(304 75% 96%)" stroke="hsl(304 45% 84%)" stroke-width="2"/><path d="M50 13 79 24v23q0 24-29 39Q21 71 21 47V24Z" fill="hsl(304 72% 52%)" stroke="hsl(304 58% 28%)" stroke-width="4" stroke-linecap="round" stroke-linejoin="round"/><path d="m34 50 10 10 23-25" fill="none" stroke="white" stroke-width="7" stroke-linecap="round" stroke-linejoin="round"/></g><g transform="translate(100 400)"><rect x="2" y="2" width="96" height="96" rx="12" fill="hsl(302 75% 96%)" stroke="hsl(302 45% 84%)" stroke-width="2"/><path d="m50 12 10 22 24 3-18 17 5 24-21-12-21 12 5-24-18-17 24-3Z" fill="hsl(350 82% 56%)" stroke="hsl(302 58% 28%)" stroke-width="4" stroke-linecap="round" stroke-linejoin="round"/><path d="M16 19c19-11 47-11 68 0M16 81c19 11 47 11 68 0" fill="none" stroke="hsl(302 58% 28%)" stroke-width="4" stroke-linecap="round" stroke-linejoin="round"/></g><g transform="translate(200 400)"><rect x="2" y="2" width="96" height="96" rx="12" fill="hsl(278 75% 96%)" stroke="hsl(278 45% 84%)" stroke-width="2"/><circle cx="22" cy="50" r="10" fill="hsl(326 82% 56%)" stroke="hsl(278 58% 28%)" stroke-width="4" stroke-linecap="round" stroke-linejoin="round"/><circle cx="78" cy="25" r="10" fill="hsl(278 72% 52%)" stroke="hsl(278 58% 28%)" stroke-width="4" stroke-linecap="round" stroke-linejoin="round"/><circle cx="78" cy="75" r="10" fill="hsl(278 72% 52%)" stroke="hsl(278 58% 28%)" stroke-width="4" stroke-linecap="round" stroke-linejoin="round"/><path d="M32 50h17m0 0 19-22M49 50l19 22" fill="none" stroke="hsl(278 58% 28%)" stroke-width="4" stroke-linecap="round" stroke-linejoin="round"/></g><g transform="translate(300 400)"><rect x="2" y="2" width="96" height="96" rx="12" fill="hsl(42 75% 96%)" stroke="hsl(42 45% 84%)" stroke-width="2"/><path d="M35 64q-13-9-13-25a28 28 0 0 1 56 0q0 16-13 25l-4 18H39Z" fill="hsl(90 82% 56%)" stroke="hsl(42 58% 28%)" stroke-width="4" stroke-linecap="round" stroke-linejoin="round"/><path d="M39 69h22M39 77h22M50 11v-7M17 19l-6-6m72 6 6-6" fill="none" stroke="hsl(42 58% 28%)" stroke-width="4" stroke-linecap="round" stroke-linejoin="round"/></g><g transform="translate(400 400)"><rect x="2" y="2" width="96" height="96" rx="12" fill="hsl(128 75% 96%)" stroke="hsl(128 45% 84%)" stroke-width="2"/><circle cx="50" cy="49" r="29" fill="hsl(128 75% 93%)" stroke="hsl(128 58% 28%)" stroke-width="4" stroke-linecap="round" stroke-linejoin="round"/><circle cx="50" cy="49" r="12" fill="hsl(176 82% 56%)" stroke="hsl(128 58% 28%)" stroke-width="4" stroke-linecap="round" stroke-linejoin="round"/><path d="M50 12v10m0 54v10M13 49h10m54 0h10M24 23l8 8m36 36 8 8m0-52-8 8M32 67l-8 8" fill="none" stroke="hsl(128 58% 28%)" stroke-width="4" stroke-linecap="round" stroke-linejoin="round"/></g><g transform="translate(500 400)"><rect x="2" y="2" width="96" height="96" rx="12" fill="hsl(73 75% 96%)" stroke="hsl(73 45% 84%)" stroke-width="2"/><path d="M50 18v61M24 30h52M20 72h60M31 30 18 56h26Zm38 0L56 56h26Z" fill="hsl(73 75% 93%)" stroke="hsl(73 58% 28%)" stroke-width="4" stroke-linecap="round" stroke-linejoin="round"/><circle cx="50" cy="16" r="7" fill="hsl(121 82% 56%)" stroke="hsl(73 58% 28%)" stroke-width="4" stroke-linecap="round" stroke-linejoin="round"/></g><g transform="translate(0 500)"><rect x="2" y="2" width="96" height="96" rx="12" fill="hsl(16 75% 96%)" stroke="hsl(16 45% 84%)" stroke-width="2"/><circle cx="22" cy="50" r="10" fill="hsl(64 82% 56%)" stroke="hsl(16 58% 28%)" stroke-width="4" stroke-linecap="round" stroke-linejoin="round"/><circle cx="78" cy="25" r="10" fill="hsl(16 72% 52%)" stroke="hsl(16 58% 28%)" stroke-width="4" stroke-linecap="round" stroke-linejoin="round"/><circle cx="78" cy="75" r="10" fill="hsl(16 72% 52%)" stroke="hsl(16 58% 28%)" stroke-width="4" stroke-linecap="round" stroke-linejoin="round"/><path d="M32 50h17m0 0 19-22M49 50l19 22" fill="none" stroke="hsl(16 58% 28%)" stroke-width="4" stroke-linecap="round" stroke-linejoin="round"/></g><g transform="translate(100 500)"><rect x="2" y="2" width="96" height="96" rx="12" fill="hsl(185 75% 96%)" stroke="hsl(185 45% 84%)" stroke-width="2"/><circle cx="22" cy="50" r="10" fill="hsl(233 82% 56%)" stroke="hsl(185 58% 28%)" stroke-width="4" stroke-linecap="round" stroke-linejoin="round"/><circle cx="78" cy="25" r="10" fill="hsl(185 72% 52%)" stroke="hsl(185 58% 28%)" stroke-width="4" stroke-linecap="round" stroke-linejoin="round"/><circle cx="78" cy="75" r="10" fill="hsl(185 72% 52%)" stroke="hsl(185 58% 28%)" stroke-width="4" stroke-linecap="round" stroke-linejoin="round"/><path d="M32 50h17m0 0 19-22M49 50l19 22" fill="none" stroke="hsl(185 58% 28%)" stroke-width="4" stroke-linecap="round" stroke-linejoin="round"/></g><g transform="translate(200 500)"><rect x="2" y="2" width="96" height="96" rx="12" fill="hsl(199 75% 96%)" stroke="hsl(199 45% 84%)" stroke-width="2"/><path d="M39 17h22v22h22v22H61v22H39V61H17V39h22Z" fill="hsl(247 82% 56%)" stroke="hsl(199 58% 28%)" stroke-width="4" stroke-linecap="round" stroke-linejoin="round"/><path d="M25 50h13l7-12 10 27 8-15h14" fill="none" stroke="white" stroke-width="4"/></g><g transform="translate(300 500)"><rect x="2" y="2" width="96" height="96" rx="12" fill="hsl(195 75% 96%)" stroke="hsl(195 45% 84%)" stroke-width="2"/><path d="m50 12 10 22 24 3-18 17 5 24-21-12-21 12 5-24-18-17 24-3Z" fill="hsl(243 82% 56%)" stroke="hsl(195 58% 28%)" stroke-width="4" stroke-linecap="round" stroke-linejoin="round"/><path d="M16 19c19-11 47-11 68 0M16 81c19 11 47 11 68 0" fill="none" stroke="hsl(195 58% 28%)" stroke-width="4" stroke-linecap="round" stroke-linejoin="round"/></g><g transform="translate(400 500)"><rect x="2" y="2" width="96" height="96" rx="12" fill="hsl(46 75% 96%)" stroke="hsl(46 45% 84%)" stroke-width="2"/><path d="M50 18v61M24 30h52M20 72h60M31 30 18 56h26Zm38 0L56 56h26Z" fill="hsl(46 75% 93%)" stroke="hsl(46 58% 28%)" stroke-width="4" stroke-linecap="round" stroke-linejoin="round"/><circle cx="50" cy="16" r="7" fill="hsl(94 82% 56%)" stroke="hsl(46 58% 28%)" stroke-width="4" stroke-linecap="round" stroke-linejoin="round"/></g><g transform="translate(500 500)"><rect x="2" y="2" width="96" height="96" rx="12" fill="hsl(101 75% 96%)" stroke="hsl(101 45% 84%)" stroke-width="2"/><circle cx="50" cy="50" r="34" fill="hsl(101 75% 93%)" stroke="hsl(101 58% 28%)" stroke-width="4" stroke-linecap="round" stroke-linejoin="round"/><circle cx="50" cy="50" r="23" fill="hsl(101 72% 52%)" stroke="hsl(101 58% 28%)" stroke-width="4" stroke-linecap="round" stroke-linejoin="round"/><circle cx="50" cy="50" r="11" fill="hsl(149 82% 56%)" stroke="hsl(101 58% 28%)" stroke-width="4" stroke-linecap="round" stroke-linejoin="round"/><path d="m77 23 11-11m-12 1 12-1-1 12" fill="none" stroke="hsl(101 58% 28%)" stroke-width="4" stroke-linecap="round" stroke-linejoin="round"/></g></svg>
