<svg xmlns="http://www.w3.org/2000/svg" viewBox="0 0 600 600" width="600" height="600" role="img" aria-label="SmartLingo beginner semantic picture sprite"><rect width="600" height="600" fill="#f8fbff"/><g transform="translate(0 0)"><rect x="2" y="2" width="96" height="96" rx="12" fill="hsl(280 75% 96%)" stroke="hsl(280 45% 84%)" stroke-width="2"/><path d="M35 64q-13-9-13-25a28 28 0 0 1 56 0q0 16-13 25l-4 18H39Z" fill="hsl(328 82% 56%)" stroke="hsl(280 58% 28%)" stroke-width="4" stroke-linecap="round" stroke-linejoin="round"/><path d="M39 69h22M39 77h22M50 11v-7M17 19l-6-6m72 6 6-6" fill="none" stroke="hsl(280 58% 28%)" stroke-width="4" stroke-linecap="round" stroke-linejoin="round"/></g><g transform="translate(100 0)"><rect x="2" y="2" width="96" height="96" rx="12" fill="hsl(230 75% 96%)" stroke="hsl(230 45% 84%)" stroke-width="2"/><path d="m50 12 10 22 24 3-18 17 5 24-21-12-21 12 5-24-18-17 24-3Z" fill="hsl(278 82% 56%)" stroke="hsl(230 58% 28%)" stroke-width="4" stroke-linecap="round" stroke-linejoin="round"/><path d="M16 19c19-11 47-11 68 0M16 81c19 11 47 11 68 0" fill="none" stroke="hsl(230 58% 28%)" stroke-width="4" stroke-linecap="round" stroke-linejoin="round"/></g><g transform="translate(200 0)"><rect x="2" y="2" width="96" height="96" rx="12" fill="hsl(226 75% 96%)" stroke="hsl(226 45% 84%)" stroke-width="2"/><circle cx="50" cy="22" r="12" fill="hsl(274 82% 56%)" stroke="hsl(226 58% 28%)" stroke-width="4" stroke-linecap="round" stroke-linejoin="round"/><circle cx="24" cy="72" r="12" fill="hsl(226 72% 52%)" stroke="hsl(226 58% 28%)" stroke-width="4" stroke-linecap="round" stroke-linejoin="round"/><circle cx="76" cy="72" r="12" fill="hsl(226 72% 52%)" stroke="hsl(226 58% 28%)" stroke-width="4" stroke-linecap="round" stroke-linejoin="round"/><path d="m44 33-14 27m26-27 14 27M36 72h28" fill="none" stroke="hsl(226 58% 28%)" stroke-width="4" stroke-linecap="round" stroke-linejoin="round"/></g><g transform="translate(300 0)"><rect x="2" y="2" width="96" height="96" rx="12" fill="hsl(53 75% 96%)" stroke="hsl(53 45% 84%)" stroke-width="2"/><circle cx="50" cy="49" r="29" fill="hsl(53 75% 93%)" stroke="hsl(53 58% 28%)" stroke-width="4" stroke-linecap="round" stroke-linejoin="round"/><circle cx="50" cy="49" r="12" fill="hsl(101 82% 56%)" stroke="hsl(53 58% 28%)" stroke-width="4" stroke-linecap="round" stroke-linejoin="round"/><path d="M50 12v10m0 54v10M13 49h10m54 0h10M24 23l8 8m36 36 8 8m0-52-8 8M32 67l-8 8" fill="none" stroke="hsl(53 58% 28%)" stroke-width="4" stroke-linecap="round" stroke-linejoin="round"/></g><g transform="translate(400 0)"><rect x="2" y="2" width="96" height="96" rx="12" fill="hsl(108 75% 96%)" stroke="hsl(108 45% 84%)" stroke-width="2"/><path d="M50 13 79 24v23q0 24-29 39Q21 71 21 47V24Z" fill="hsl(108 72% 52%)" stroke="hsl(108 58% 28%)" stroke-width="4" stroke-linecap="round" stroke-linejoin="round"/><path d="m34 50 10 10 23-25" fill="none" stroke="white" stroke-width="7" stroke-linecap="round" stroke-linejoin="round"/></g><g transform="translate(500 0)"><rect x="2" y="2" width="96" height="96" rx="12" fill="hsl(140 75% 96%)" stroke="hsl(140 45% 84%)" stroke-width="2"/><circle cx="50" cy="49" r="29" fill="hsl(140 75% 93%)" stroke="hsl(140 58% 28%)" stroke-width="4" stroke-linecap="round" stroke-linejoin="round"/><circle cx="50" cy="49" r="12" fill="hsl(188 82% 56%)" stroke="hsl(140 58% 28%)" stroke-width="4" stroke-linecap="round" stroke-linejoin="round"/><path d="M50 12v10m0 54v10M13 49h10m54 0h10M24 23l8 8m36 36 8 8m0-52-8 8M32 67l-8 8" fill="none" stroke="hsl(140 58% 28%)" stroke-width="4" stroke-linecap="round" stroke-linejoin="round"/></g><g transform="translate(0 100)"><rect x="2" y="2" width="96" height="96" rx="12" fill="hsl(63 75% 96%)" stroke="hsl(63 45% 84%)" stroke-width="2"/><path d="M50 18v61M24 30h52M20 72h60M31 30 18 56h26Zm38 0L56 56h26Z" fill="hsl(63 75% 93%)" stroke="hsl(63 58% 28%)" stroke-width="4" stroke-linecap="round" stroke-linejoin="round"/><circle cx="50" cy="16" r="7" fill="hsl(111 82% 56%)" stroke="hsl(63 58% 28%)" stroke-width="4" stroke-linecap="round" stroke-linejoin="round"/></g><g transform="translate(100 100)"><rect x="2" y="2" width="96" height="96" rx="12" fill="hsl(110 75% 96%)" stroke="hsl(110 45% 84%)" stroke-width="2"/><circle cx="50" cy="49" r="29" fill="hsl(110 75% 93%)" stroke="hsl(110 58% 28%)" stroke-width="4" stroke-linecap="round" stroke-linejoin="round"/><circle cx="50" cy="49" r="12" fill="hsl(158 82% 56%)" stroke="hsl(110 58% 28%)" stroke-width="4" stroke-linecap="round" stroke-linejoin="round"/><path d="M50 12v10m0 54v10M13 49h10m54 0h10M24 23l8 8m36 36 8 8m0-52-8 8M32 67l-8 8" fill="none" stroke="hsl(110 58% 28%)" stroke-width="4" stroke-linecap="round" stroke-linejoin="round"/></g><g transform="translate(200 100)"><rect x="2" y="2" width="96" height="96" rx="12" fill="hsl(133 75% 96%)" stroke="hsl(133 45% 84%)" stroke-width="2"/><circle cx="50" cy="22" r="12" fill="hsl(181 82% 56%)" stroke="hsl(133 58% 28%)" stroke-width="4" stroke-linecap="round" stroke-linejoin="round"/><circle cx="24" cy="72" r="12" fill="hsl(133 72% 52%)" stroke="hsl(133 58% 28%)" stroke-width="4" stroke-linecap="round" stroke-linejoin="round"/><circle cx="76" cy="72" r="12" fill="hsl(133 72% 52%)" stroke="hsl(133 58% 28%)" stroke-width="4" stroke-linecap="round" stroke-linejoin="round"/><path d="m44 33-14 27m26-27 14 27M36 72h28" fill="none" stroke="hsl(133 58% 28%)" stroke-width="4" stroke-linecap="round" stroke-linejoin="round"/></g><g transform="translate(300 100)"><rect x="2" y="2" width="96" height="96" rx="12" fill="hsl(235 75% 96%)" stroke="hsl(235 45% 84%)" stroke-width="2"/><path d="m50 12 10 22 24 3-18 17 5 24-21-12-21 12 5-24-18-17 24-3Z" fill="hsl(283 82% 56%)" stroke="hsl(235 58% 28%)" stroke-width="4" stroke-linecap="round" stroke-linejoin="round"/><path d="M16 19c19-11 47-11 68 0M16 81c19 11 47 11 68 0" fill="none" stroke="hsl(235 58% 28%)" stroke-width="4" stroke-linecap="round" stroke-linejoin="round"/></g><g transform="translate(400 100)"><rect x="2" y="2" width="96" height="96" rx="12" fill="hsl(66 75% 96%)" stroke="hsl(66 45% 84%)" stroke-width="2"/><circle cx="50" cy="49" r="29" fill="hsl(66 75% 93%)" stroke="hsl(66 58% 28%)" stroke-width="4" stroke-linecap="round" stroke-linejoin="round"/><circle cx="50" cy="49" r="12" fill="hsl(114 82% 56%)" stroke="hsl(66 58% 28%)" stroke-width="4" stroke-linecap="round" stroke-linejoin="round"/><path d="M50 12v10m0 54v10M13 49h10m54 0h10M24 23l8 8m36 36 8 8m0-52-8 8M32 67l-8 8" fill="none" stroke="hsl(66 58% 28%)" stroke-width="4" stroke-linecap="round" stroke-linejoin="round"/></g><g transform="translate(500 100)"><rect x="2" y="2" width="96" height="96" rx="12" fill="hsl(69 75% 96%)" stroke="hsl(69 45% 84%)" stroke-width="2"/><path d="m50 12 10 22 24 3-18 17 5 24-21-12-21 12 5-24-18-17 24-3Z" fill="hsl(117 82% 56%)" stroke="hsl(69 58% 28%)" stroke-width="4" stroke-linecap="round" stroke-linejoin="round"/><path d="M16 19c19-11 47-11 68 0M16 81c19 11 47 11 68 0" fill="none" stroke="hsl(69 58% 28%)" stroke-width="4" stroke-linecap="round" stroke-linejoin="round"/></g><g transform="translate(0 200)"><rect x="2" y="2" width="96" height="96" rx="12" fill="hsl(130 75% 96%)" stroke="hsl(130 45% 84%)" stroke-width="2"/><circle cx="50" cy="22" r="12" fill="hsl(178 82% 56%)" stroke="hsl(130 58% 28%)" stroke-width="4" stroke-linecap="round" stroke-linejoin="round"/><circle cx="24" cy="72" r="12" fill="hsl(130 72% 52%)" stroke="hsl(130 58% 28%)" stroke-width="4" stroke-linecap="round" stroke-linejoin="round"/><circle cx="76" cy="72" r="12" fill="hsl(130 72% 52%)" stroke="hsl(130 58% 28%)" stroke-width="4" stroke-linecap="round" stroke-linejoin="round"/><path d="m44 33-14 27m26-27 14 27M36 72h28" fill="none" stroke="hsl(130 58% 28%)" stroke-width="4" stroke-linecap="round" stroke-linejoin="round"/></g><g transform="translate(100 200)"><rect x="2" y="2" width="96" height="96" rx="12" fill="hsl(257 75% 96%)" stroke="hsl(257 45% 84%)" stroke-width="2"/><circle cx="50" cy="50" r="34" fill="hsl(257 75% 93%)" stroke="hsl(257 58% 28%)" stroke-width="4" stroke-linecap="round" stroke-linejoin="round"/><circle cx="50" cy="50" r="23" fill="hsl(257 72% 52%)" stroke="hsl(257 58% 28%)" stroke-width="4" stroke-linecap="round" stroke-linejoin="round"/><circle cx="50" cy="50" r="11" fill="hsl(305 82% 56%)" stroke="hsl(257 58% 28%)" stroke-width="4" stroke-linecap="round" stroke-linejoin="round"/><path d="m77 23 11-11m-12 1 12-1-1 12" fill="none" stroke="hsl(257 58% 28%)" stroke-width="4" stroke-linecap="round" stroke-linejoin="round"/></g><g transform="translate(200 200)"><rect x="2" y="2" width="96" height="96" rx="12" fill="hsl(152 75% 96%)" stroke="hsl(152 45% 84%)" stroke-width="2"/><path d="M50 13 79 24v23q0 24-29 39Q21 71 21 47V24Z" fill="hsl(152 72% 52%)" stroke="hsl(152 58% 28%)" stroke-width="4" stroke-linecap="round" stroke-linejoin="round"/><path d="m34 50 10 10 23-25" fill="none" stroke="white" stroke-width="7" stroke-linecap="round" stroke-linejoin="round"/></g><g transform="translate(300 200)"><rect x="2" y="2" width="96" height="96" rx="12" fill="hsl(122 75% 96%)" stroke="hsl(122 45% 84%)" stroke-width="2"/><circle cx="50" cy="51" r="32" fill="hsl(122 75% 93%)" stroke="hsl(122 58% 28%)" stroke-width="4" stroke-linecap="round" stroke-linejoin="round"/><path d="M50 51V31m0 20 17 10" fill="none" stroke="hsl(122 58% 28%)" stroke-width="4" stroke-linecap="round" stroke-linejoin="round"/><circle cx="50" cy="51" r="3" fill="hsl(122 58% 28%)"/></g><g transform="translate(400 200)"><rect x="2" y="2" width="96" height="96" rx="12" fill="hsl(340 75% 96%)" stroke="hsl(340 45% 84%)" stroke-width="2"/><circle cx="50" cy="49" r="29" fill="hsl(340 75% 93%)" stroke="hsl(340 58% 28%)" stroke-width="4" stroke-linecap="round" stroke-linejoin="round"/><circle cx="50" cy="49" r="12" fill="hsl(28 82% 56%)" stroke="hsl(340 58% 28%)" stroke-width="4" stroke-linecap="round" stroke-linejoin="round"/><path d="M50 12v10m0 54v10M13 49h10m54 0h10M24 23l8 8m36 36 8 8m0-52-8 8M32 67l-8 8" fill="none" stroke="hsl(340 58% 28%)" stroke-width="4" stroke-linecap="round" stroke-linejoin="round"/></g><g transform="translate(500 200)"><rect x="2" y="2" width="96" height="96" rx="12" fill="hsl(196 75% 96%)" stroke="hsl(196 45% 84%)" stroke-width="2"/><circle cx="50" cy="51" r="32" fill="hsl(196 75% 93%)" stroke="hsl(196 58% 28%)" stroke-width="4" stroke-linecap="round" stroke-linejoin="round"/><path d="M50 51V31m0 20 17 10" fill="none" stroke="hsl(196 58% 28%)" stroke-width="4" stroke-linecap="round" stroke-linejoin="round"/><circle cx="50" cy="51" r="3" fill="hsl(196 58% 28%)"/></g><g transform="translate(0 300)"><rect x="2" y="2" width="96" height="96" rx="12" fill="hsl(135 75% 96%)" stroke="hsl(135 45% 84%)" stroke-width="2"/><circle cx="50" cy="51" r="32" fill="hsl(135 75% 93%)" stroke="hsl(135 58% 28%)" stroke-width="4" stroke-linecap="round" stroke-linejoin="round"/><path d="M50 51V31m0 20 17 10" fill="none" stroke="hsl(135 58% 28%)" stroke-width="4" stroke-linecap="round" stroke-linejoin="round"/><circle cx="50" cy="51" r="3" fill="hsl(135 58% 28%)"/></g><g transform="translate(100 300)"><rect x="2" y="2" width="96" height="96" rx="12" fill="hsl(147 75% 96%)" stroke="hsl(147 45% 84%)" stroke-width="2"/><path d="M17 45 50 19l33 26v38H17Z" fill="hsl(147 75% 93%)" stroke="hsl(147 58% 28%)" stroke-width="4" stroke-linecap="round" stroke-linejoin="round"/><path d="M41 83V57h18v26M27 50h10v11H27m36-11h10v11H63" fill="hsl(195 82% 56%)" stroke="hsl(147 58% 28%)" stroke-width="4" stroke-linecap="round" stroke-linejoin="round"/></g><g transform="translate(200 300)"><rect x="2" y="2" width="96" height="96" rx="12" fill="hsl(356 75% 96%)" stroke="hsl(356 45% 84%)" stroke-width="2"/><path d="M50 13 79 24v23q0 24-29 39Q21 71 21 47V24Z" fill="hsl(356 72% 52%)" stroke="hsl(356 58% 28%)" stroke-width="4" stroke-linecap="round" stroke-linejoin="round"/><path d="m34 50 10 10 23-25" fill="none" stroke="white" stroke-width="7" stroke-linecap="round" stroke-linejoin="round"/></g><g transform="translate(300 300)"><rect x="2" y="2" width="96" height="96" rx="12" fill="hsl(123 75% 96%)" stroke="hsl(123 45% 84%)" stroke-width="2"/><circle cx="50" cy="22" r="12" fill="hsl(171 82% 56%)" stroke="hsl(123 58% 28%)" stroke-width="4" stroke-linecap="round" stroke-linejoin="round"/><circle cx="24" cy="72" r="12" fill="hsl(123 72% 52%)" stroke="hsl(123 58% 28%)" stroke-width="4" stroke-linecap="round" stroke-linejoin="round"/><circle cx="76" cy="72" r="12" fill="hsl(123 72% 52%)" stroke="hsl(123 58% 28%)" stroke-width="4" stroke-linecap="round" stroke-linejoin="round"/><path d="m44 33-14 27m26-27 14 27M36 72h28" fill="none" stroke="hsl(123 58% 28%)" stroke-width="4" stroke-linecap="round" stroke-linejoin="round"/></g><g transform="translate(400 300)"><rect x="2" y="2" width="96" height="96" rx="12" fill="hsl(359 75% 96%)" stroke="hsl(359 45% 84%)" stroke-width="2"/><path d="M35 64q-13-9-13-25a28 28 0 0 1 56 0q0 16-13 25l-4 18H39Z" fill="hsl(47 82% 56%)" stroke="hsl(359 58% 28%)" stroke-width="4" stroke-linecap="round" stroke-linejoin="round"/><path d="M39 69h22M39 77h22M50 11v-7M17 19l-6-6m72 6 6-6" fill="none" stroke="hsl(359 58% 28%)" stroke-width="4" stroke-linecap="round" stroke-linejoin="round"/></g><g transform="translate(500 300)"><rect x="2" y="2" width="96" height="96" rx="12" fill="hsl(147 75% 96%)" stroke="hsl(147 45% 84%)" stroke-width="2"/><path d="m50 12 10 22 24 3-18 17 5 24-21-12-21 12 5-24-18-17 24-3Z" fill="hsl(195 82% 56%)" stroke="hsl(147 58% 28%)" stroke-width="4" stroke-linecap="round" stroke-linejoin="round"/><path d="M16 19c19-11 47-11 68 0M16 81c19 11 47 11 68 0" fill="none" stroke="hsl(147 58% 28%)" stroke-width="4" stroke-linecap="round" stroke-linejoin="round"/></g><g transform="translate(0 400)"><rect x="2" y="2" width="96" height="96" rx="12" fill="hsl(199 75% 96%)" stroke="hsl(199 45% 84%)" stroke-width="2"/><circle cx="50" cy="22" r="12" fill="hsl(247 82% 56%)" stroke="hsl(199 58% 28%)" stroke-width="4" stroke-linecap="round" stroke-linejoin="round"/><circle cx="24" cy="72" r="12" fill="hsl(199 72% 52%)" stroke="hsl(199 58% 28%)" stroke-width="4" stroke-linecap="round" stroke-linejoin="round"/><circle cx="76" cy="72" r="12" fill="hsl(199 72% 52%)" stroke="hsl(199 58% 28%)" stroke-width="4" stroke-linecap="round" stroke-linejoin="round"/><path d="m44 33-14 27m26-27 14 27M36 72h28" fill="none" stroke="hsl(199 58% 28%)" stroke-width="4" stroke-linecap="round" stroke-linejoin="round"/></g><g transform="translate(100 400)"><rect x="2" y="2" width="96" height="96" rx="12" fill="hsl(75 75% 96%)" stroke="hsl(75 45% 84%)" stroke-width="2"/><circle cx="50" cy="22" r="12" fill="hsl(123 82% 56%)" stroke="hsl(75 58% 28%)" stroke-width="4" stroke-linecap="round" stroke-linejoin="round"/><circle cx="24" cy="72" r="12" fill="hsl(75 72% 52%)" stroke="hsl(75 58% 28%)" stroke-width="4" stroke-linecap="round" stroke-linejoin="round"/><circle cx="76" cy="72" r="12" fill="hsl(75 72% 52%)" stroke="hsl(75 58% 28%)" stroke-width="4" stroke-linecap="round" stroke-linejoin="round"/><path d="m44 33-14 27m26-27 14 27M36 72h28" fill="none" stroke="hsl(75 58% 28%)" stroke-width="4" stroke-linecap="round" stroke-linejoin="round"/></g><g transform="translate(200 400)"><rect x="2" y="2" width="96" height="96" rx="12" fill="hsl(347 75% 96%)" stroke="hsl(347 45% 84%)" stroke-width="2"/><path d="M35 64q-13-9-13-25a28 28 0 0 1 56 0q0 16-13 25l-4 18H39Z" fill="hsl(35 82% 56%)" stroke="hsl(347 58% 28%)" stroke-width="4" stroke-linecap="round" stroke-linejoin="round"/><path d="M39 69h22M39 77h22M50 11v-7M17 19l-6-6m72 6 6-6" fill="none" stroke="hsl(347 58% 28%)" stroke-width="4" stroke-linecap="round" stroke-linejoin="round"/></g><g transform="translate(300 400)"><rect x="2" y="2" width="96" height="96" rx="12" fill="hsl(69 75% 96%)" stroke="hsl(69 45% 84%)" stroke-width="2"/><circle cx="50" cy="49" r="29" fill="hsl(69 75% 93%)" stroke="hsl(69 58% 28%)" stroke-width="4" stroke-linecap="round" stroke-linejoin="round"/><circle cx="50" cy="49" r="12" fill="hsl(117 82% 56%)" stroke="hsl(69 58% 28%)" stroke-width="4" stroke-linecap="round" stroke-linejoin="round"/><path d="M50 12v10m0 54v10M13 49h10m54 0h10M24 23l8 8m36 36 8 8m0-52-8 8M32 67l-8 8" fill="none" stroke="hsl(69 58% 28%)" stroke-width="4" stroke-linecap="round" stroke-linejoin="round"/></g><g transform="translate(400 400)"><rect x="2" y="2" width="96" height="96" rx="12" fill="hsl(205 75% 96%)" stroke="hsl(205 45% 84%)" stroke-width="2"/><circle cx="50" cy="50" r="34" fill="hsl(205 75% 93%)" stroke="hsl(205 58% 28%)" stroke-width="4" stroke-linecap="round" stroke-linejoin="round"/><circle cx="50" cy="50" r="23" fill="hsl(205 72% 52%)" stroke="hsl(205 58% 28%)" stroke-width="4" stroke-linecap="round" stroke-linejoin="round"/><circle cx="50" cy="50" r="11" fill="hsl(253 82% 56%)" stroke="hsl(205 58% 28%)" stroke-width="4" stroke-linecap="round" stroke-linejoin="round"/><path d="m77 23 11-11m-12 1 12-1-1 12" fill="none" stroke="hsl(205 58% 28%)" stroke-width="4" stroke-linecap="round" stroke-linejoin="round"/></g><g transform="translate(500 400)"><rect x="2" y="2" width="96" height="96" rx="12" fill="hsl(272 75% 96%)" stroke="hsl(272 45% 84%)" stroke-width="2"/><path d="m50 12 10 22 24 3-18 17 5 24-21-12-21 12 5-24-18-17 24-3Z" fill="hsl(320 82% 56%)" stroke="hsl(272 58% 28%)" stroke-width="4" stroke-linecap="round" stroke-linejoin="round"/><path d="M16 19c19-11 47-11 68 0M16 81c19 11 47 11 68 0" fill="none" stroke="hsl(272 58% 28%)" stroke-width="4" stroke-linecap="round" stroke-linejoin="round"/></g><g transform="translate(0 500)"><rect x="2" y="2" width="96" height="96" rx="12" fill="hsl(313 75% 96%)" stroke="hsl(313 45% 84%)" stroke-width="2"/><path d="M50 18v61M24 30h52M20 72h60M31 30 18 56h26Zm38 0L56 56h26Z" fill="hsl(313 75% 93%)" stroke="hsl(313 58% 28%)" stroke-width="4" stroke-linecap="round" stroke-linejoin="round"/><circle cx="50" cy="16" r="7" fill="hsl(1 82% 56%)" stroke="hsl(313 58% 28%)" stroke-width="4" stroke-linecap="round" stroke-linejoin="round"/></g><g transform="translate(100 500)"><rect x="2" y="2" width="96" height="96" rx="12" fill="hsl(309 75% 96%)" stroke="hsl(309 45% 84%)" stroke-width="2"/><circle cx="50" cy="50" r="34" fill="hsl(309 75% 93%)" stroke="hsl(309 58% 28%)" stroke-width="4" stroke-linecap="round" stroke-linejoin="round"/><circle cx="50" cy="50" r="23" fill="hsl(309 72% 52%)" stroke="hsl(309 58% 28%)" stroke-width="4" stroke-linecap="round" stroke-linejoin="round"/><circle cx="50" cy="50" r="11" fill="hsl(357 82% 56%)" stroke="hsl(309 58% 28%)" stroke-width="4" stroke-linecap="round" stroke-linejoin="round"/><path d="m77 23 11-11m-12 1 12-1-1 12" fill="none" stroke="hsl(309 58% 28%)" stroke-width="4" stroke-linecap="round" stroke-linejoin="round"/></g><g transform="translate(200 500)"><rect x="2" y="2" width="96" height="96" rx="12" fill="hsl(116 75% 96%)" stroke="hsl(116 45% 84%)" stroke-width="2"/><circle cx="50" cy="49" r="29" fill="hsl(116 75% 93%)" stroke="hsl(116 58% 28%)" stroke-width="4" stroke-linecap="round" stroke-linejoin="round"/><circle cx="50" cy="49" r="12" fill="hsl(164 82% 56%)" stroke="hsl(116 58% 28%)" stroke-width="4" stroke-linecap="round" stroke-linejoin="round"/><path d="M50 12v10m0 54v10M13 49h10m54 0h10M24 23l8 8m36 36 8 8m0-52-8 8M32 67l-8 8" fill="none" stroke="hsl(116 58% 28%)" stroke-width="4" stroke-linecap="round" stroke-linejoin="round"/></g><g transform="translate(300 500)"><rect x="2" y="2" width="96" height="96" rx="12" fill="hsl(42 75% 96%)" stroke="hsl(42 45% 84%)" stroke-width="2"/><path d="M35 64q-13-9-13-25a28 28 0 0 1 56 0q0 16-13 25l-4 18H39Z" fill="hsl(90 82% 56%)" stroke="hsl(42 58% 28%)" stroke-width="4" stroke-linecap="round" stroke-linejoin="round"/><path d="M39 69h22M39 77h22M50 11v-7M17 19l-6-6m72 6 6-6" fill="none" stroke="hsl(42 58% 28%)" stroke-width="4" stroke-linecap="round" stroke-linejoin="round"/></g><g transform="translate(400 500)"><rect x="2" y="2" width="96" height="96" rx="12" fill="hsl(159 75% 96%)" stroke="hsl(159 45% 84%)" stroke-width="2"/><circle cx="22" cy="50" r="10" fill="hsl(207 82% 56%)" stroke="hsl(159 58% 28%)" stroke-width="4" stroke-linecap="round" stroke-linejoin="round"/><circle cx="78" cy="25" r="10" fill="hsl(159 72% 52%)" stroke="hsl(159 58% 28%)" stroke-width="4" stroke-linecap="round" stroke-linejoin="round"/><circle cx="78" cy="75" r="10" fill="hsl(159 72% 52%)" stroke="hsl(159 58% 28%)" stroke-width="4" stroke-linecap="round" stroke-linejoin="round"/><path d="M32 50h17m0 0 19-22M49 50l19 22" fill="none" stroke="hsl(159 58% 28%)" stroke-width="4" stroke-linecap="round" stroke-linejoin="round"/></g><g transform="translate(500 500)"><rect x="2" y="2" width="96" height="96" rx="12" fill="hsl(261 75% 96%)" stroke="hsl(261 45% 84%)" stroke-width="2"/><circle cx="22" cy="50" r="10" fill="hsl(309 82% 56%)" stroke="hsl(261 58% 28%)" stroke-width="4" stroke-linecap="round" stroke-linejoin="round"/><circle cx="78" cy="25" r="10" fill="hsl(261 72% 52%)" stroke="hsl(261 58% 28%)" stroke-width="4" stroke-linecap="round" stroke-linejoin="round"/><circle cx="78" cy="75" r="10" fill="hsl(261 72% 52%)" stroke="hsl(261 58% 28%)" stroke-width="4" stroke-linecap="round" stroke-linejoin="round"/><path d="M32 50h17m0 0 19-22M49 50l19 22" fill="none" stroke="hsl(261 58% 28%)" stroke-width="4" stroke-linecap="round" stroke-linejoin="round"/></g></svg>
