<svg xmlns="http://www.w3.org/2000/svg" viewBox="0 0 600 600" width="600" height="600" role="img" aria-label="SmartLingo beginner semantic picture sprite"><rect width="600" height="600" fill="#f8fbff"/><g transform="translate(0 0)"><rect x="2" y="2" width="96" height="96" rx="12" fill="hsl(71 75% 96%)" stroke="hsl(71 45% 84%)" stroke-width="2"/><path d="M17 45 50 19l33 26v38H17Z" fill="hsl(71 75% 93%)" stroke="hsl(71 58% 28%)" stroke-width="4" stroke-linecap="round" stroke-linejoin="round"/><path d="M41 83V57h18v26M27 50h10v11H27m36-11h10v11H63" fill="hsl(119 82% 56%)" stroke="hsl(71 58% 28%)" stroke-width="4" stroke-linecap="round" stroke-linejoin="round"/></g><g transform="translate(100 0)"><rect x="2" y="2" width="96" height="96" rx="12" fill="hsl(231 75% 96%)" stroke="hsl(231 45% 84%)" stroke-width="2"/><path d="M50 18v61M24 30h52M20 72h60M31 30 18 56h26Zm38 0L56 56h26Z" fill="hsl(231 75% 93%)" stroke="hsl(231 58% 28%)" stroke-width="4" stroke-linecap="round" stroke-linejoin="round"/><circle cx="50" cy="16" r="7" fill="hsl(279 82% 56%)" stroke="hsl(231 58% 28%)" stroke-width="4" stroke-linecap="round" stroke-linejoin="round"/></g><g transform="translate(200 0)"><rect x="2" y="2" width="96" height="96" rx="12" fill="hsl(133 75% 96%)" stroke="hsl(133 45% 84%)" stroke-width="2"/><circle cx="50" cy="50" r="34" fill="hsl(133 75% 93%)" stroke="hsl(133 58% 28%)" stroke-width="4" stroke-linecap="round" stroke-linejoin="round"/><circle cx="50" cy="50" r="23" fill="hsl(133 72% 52%)" stroke="hsl(133 58% 28%)" stroke-width="4" stroke-linecap="round" stroke-linejoin="round"/><circle cx="50" cy="50" r="11" fill="hsl(181 82% 56%)" stroke="hsl(133 58% 28%)" stroke-width="4" stroke-linecap="round" stroke-linejoin="round"/><path d="m77 23 11-11m-12 1 12-1-1 12" fill="none" stroke="hsl(133 58% 28%)" stroke-width="4" stroke-linecap="round" stroke-linejoin="round"/></g><g transform="translate(300 0)"><rect x="2" y="2" width="96" height="96" rx="12" fill="hsl(323 75% 96%)" stroke="hsl(323 45% 84%)" stroke-width="2"/><path d="m50 12 10 22 24 3-18 17 5 24-21-12-21 12 5-24-18-17 24-3Z" fill="hsl(11 82% 56%)" stroke="hsl(323 58% 28%)" stroke-width="4" stroke-linecap="round" stroke-linejoin="round"/><path d="M16 19c19-11 47-11 68 0M16 81c19 11 47 11 68 0" fill="none" stroke="hsl(323 58% 28%)" stroke-width="4" stroke-linecap="round" stroke-linejoin="round"/></g><g transform="translate(400 0)"><rect x="2" y="2" width="96" height="96" rx="12" fill="hsl(183 75% 96%)" stroke="hsl(183 45% 84%)" stroke-width="2"/><circle cx="50" cy="50" r="31" fill="hsl(231 82% 56%)" stroke="hsl(183 58% 28%)" stroke-width="4" stroke-linecap="round" stroke-linejoin="round"/><path d="M61 35q-7-8-18-3-9 4-2 12l18 8q8 7-1 14-12 8-22-3M50 24v52" fill="none" stroke="hsl(183 58% 28%)" stroke-width="4" stroke-linecap="round" stroke-linejoin="round"/></g><g transform="translate(500 0)"><rect x="2" y="2" width="96" height="96" rx="12" fill="hsl(306 75% 96%)" stroke="hsl(306 45% 84%)" stroke-width="2"/><rect x="17" y="55" width="14" height="27" rx="4" fill="hsl(306 72% 52%)" stroke="hsl(306 58% 28%)" stroke-width="4" stroke-linecap="round" stroke-linejoin="round"/><rect x="43" y="39" width="14" height="43" rx="4" fill="hsl(354 82% 56%)" stroke="hsl(306 58% 28%)" stroke-width="4" stroke-linecap="round" stroke-linejoin="round"/><rect x="69" y="22" width="14" height="60" rx="4" fill="hsl(306 72% 52%)" stroke="hsl(306 58% 28%)" stroke-width="4" stroke-linecap="round" stroke-linejoin="round"/><path d="m14 28 18-12 18 8 24-14" fill="none" stroke="hsl(306 58% 28%)" stroke-width="4" stroke-linecap="round" stroke-linejoin="round"/></g><g transform="translate(0 100)"><rect x="2" y="2" width="96" height="96" rx="12" fill="hsl(73 75% 96%)" stroke="hsl(73 45% 84%)" stroke-width="2"/><rect x="17" y="55" width="14" height="27" rx="4" fill="hsl(73 72% 52%)" stroke="hsl(73 58% 28%)" stroke-width="4" stroke-linecap="round" stroke-linejoin="round"/><rect x="43" y="39" width="14" height="43" rx="4" fill="hsl(121 82% 56%)" stroke="hsl(73 58% 28%)" stroke-width="4" stroke-linecap="round" stroke-linejoin="round"/><rect x="69" y="22" width="14" height="60" rx="4" fill="hsl(73 72% 52%)" stroke="hsl(73 58% 28%)" stroke-width="4" stroke-linecap="round" stroke-linejoin="round"/><path d="m14 28 18-12 18 8 24-14" fill="none" stroke="hsl(73 58% 28%)" stroke-width="4" stroke-linecap="round" stroke-linejoin="round"/></g><g transform="translate(100 100)"><rect x="2" y="2" width="96" height="96" rx="12" fill="hsl(37 75% 96%)" stroke="hsl(37 45% 84%)" stroke-width="2"/><rect x="17" y="55" width="14" height="27" rx="4" fill="hsl(37 72% 52%)" stroke="hsl(37 58% 28%)" stroke-width="4" stroke-linecap="round" stroke-linejoin="round"/><rect x="43" y="39" width="14" height="43" rx="4" fill="hsl(85 82% 56%)" stroke="hsl(37 58% 28%)" stroke-width="4" stroke-linecap="round" stroke-linejoin="round"/><rect x="69" y="22" width="14" height="60" rx="4" fill="hsl(37 72% 52%)" stroke="hsl(37 58% 28%)" stroke-width="4" stroke-linecap="round" stroke-linejoin="round"/><path d="m14 28 18-12 18 8 24-14" fill="none" stroke="hsl(37 58% 28%)" stroke-width="4" stroke-linecap="round" stroke-linejoin="round"/></g><g transform="translate(200 100)"><rect x="2" y="2" width="96" height="96" rx="12" fill="hsl(155 75% 96%)" stroke="hsl(155 45% 84%)" stroke-width="2"/><path d="M50 13 79 24v23q0 24-29 39Q21 71 21 47V24Z" fill="hsl(155 72% 52%)" stroke="hsl(155 58% 28%)" stroke-width="4" stroke-linecap="round" stroke-linejoin="round"/><path d="m34 50 10 10 23-25" fill="none" stroke="white" stroke-width="7" stroke-linecap="round" stroke-linejoin="round"/></g><g transform="translate(300 100)"><rect x="2" y="2" width="96" height="96" rx="12" fill="hsl(354 75% 96%)" stroke="hsl(354 45% 84%)" stroke-width="2"/><circle cx="22" cy="50" r="10" fill="hsl(42 82% 56%)" stroke="hsl(354 58% 28%)" stroke-width="4" stroke-linecap="round" stroke-linejoin="round"/><circle cx="78" cy="25" r="10" fill="hsl(354 72% 52%)" stroke="hsl(354 58% 28%)" stroke-width="4" stroke-linecap="round" stroke-linejoin="round"/><circle cx="78" cy="75" r="10" fill="hsl(354 72% 52%)" stroke="hsl(354 58% 28%)" stroke-width="4" stroke-linecap="round" stroke-linejoin="round"/><path d="M32 50h17m0 0 19-22M49 50l19 22" fill="none" stroke="hsl(354 58% 28%)" stroke-width="4" stroke-linecap="round" stroke-linejoin="round"/></g><g transform="translate(400 100)"><rect x="2" y="2" width="96" height="96" rx="12" fill="hsl(202 75% 96%)" stroke="hsl(202 45% 84%)" stroke-width="2"/><circle cx="50" cy="50" r="34" fill="hsl(202 75% 93%)" stroke="hsl(202 58% 28%)" stroke-width="4" stroke-linecap="round" stroke-linejoin="round"/><circle cx="50" cy="50" r="23" fill="hsl(202 72% 52%)" stroke="hsl(202 58% 28%)" stroke-width="4" stroke-linecap="round" stroke-linejoin="round"/><circle cx="50" cy="50" r="11" fill="hsl(250 82% 56%)" stroke="hsl(202 58% 28%)" stroke-width="4" stroke-linecap="round" stroke-linejoin="round"/><path d="m77 23 11-11m-12 1 12-1-1 12" fill="none" stroke="hsl(202 58% 28%)" stroke-width="4" stroke-linecap="round" stroke-linejoin="round"/></g><g transform="translate(500 100)"><rect x="2" y="2" width="96" height="96" rx="12" fill="hsl(134 75% 96%)" stroke="hsl(134 45% 84%)" stroke-width="2"/><circle cx="22" cy="50" r="10" fill="hsl(182 82% 56%)" stroke="hsl(134 58% 28%)" stroke-width="4" stroke-linecap="round" stroke-linejoin="round"/><circle cx="78" cy="25" r="10" fill="hsl(134 72% 52%)" stroke="hsl(134 58% 28%)" stroke-width="4" stroke-linecap="round" stroke-linejoin="round"/><circle cx="78" cy="75" r="10" fill="hsl(134 72% 52%)" stroke="hsl(134 58% 28%)" stroke-width="4" stroke-linecap="round" stroke-linejoin="round"/><path d="M32 50h17m0 0 19-22M49 50l19 22" fill="none" stroke="hsl(134 58% 28%)" stroke-width="4" stroke-linecap="round" stroke-linejoin="round"/></g><g transform="translate(0 200)"><rect x="2" y="2" width="96" height="96" rx="12" fill="hsl(97 75% 96%)" stroke="hsl(97 45% 84%)" stroke-width="2"/><circle cx="75" cy="25" r="10" fill="hsl(145 82% 56%)" stroke="hsl(97 58% 28%)" stroke-width="4" stroke-linecap="round" stroke-linejoin="round"/><path d="M8 78 34 41l17 22 12-14 29 29Z" fill="hsl(97 72% 52%)" stroke="hsl(97 58% 28%)" stroke-width="4" stroke-linecap="round" stroke-linejoin="round"/><path d="M34 41 45 56l6 7" fill="none" stroke="white" stroke-width="4"/></g><g transform="translate(100 200)"><rect x="2" y="2" width="96" height="96" rx="12" fill="hsl(175 75% 96%)" stroke="hsl(175 45% 84%)" stroke-width="2"/><circle cx="27" cy="31" r="9" fill="hsl(223 82% 56%)" stroke="hsl(175 58% 28%)" stroke-width="4" stroke-linecap="round" stroke-linejoin="round"/><path d="M27 42v24m0-14 14 8M27 51 15 62m12 4-10 15m10-15 13 14" fill="none" stroke="hsl(175 58% 28%)" stroke-width="4" stroke-linecap="round" stroke-linejoin="round"/><path d="M48 35h34m-12-10 12 10-12 10" fill="none" stroke="hsl(175 58% 28%)" stroke-width="4" stroke-linecap="round" stroke-linejoin="round"/></g><g transform="translate(200 200)"><rect x="2" y="2" width="96" height="96" rx="12" fill="hsl(300 75% 96%)" stroke="hsl(300 45% 84%)" stroke-width="2"/><path d="M35 64q-13-9-13-25a28 28 0 0 1 56 0q0 16-13 25l-4 18H39Z" fill="hsl(348 82% 56%)" stroke="hsl(300 58% 28%)" stroke-width="4" stroke-linecap="round" stroke-linejoin="round"/><path d="M39 69h22M39 77h22M50 11v-7M17 19l-6-6m72 6 6-6" fill="none" stroke="hsl(300 58% 28%)" stroke-width="4" stroke-linecap="round" stroke-linejoin="round"/></g><g transform="translate(300 200)"><rect x="2" y="2" width="96" height="96" rx="12" fill="hsl(231 75% 96%)" stroke="hsl(231 45% 84%)" stroke-width="2"/><circle cx="50" cy="31" r="13" fill="hsl(279 82% 56%)" stroke="hsl(231 58% 28%)" stroke-width="4" stroke-linecap="round" stroke-linejoin="round"/><path d="M27 78c2-22 11-32 23-32s21 10 23 32" fill="hsl(231 72% 52%)" stroke="hsl(231 58% 28%)" stroke-width="4" stroke-linecap="round" stroke-linejoin="round"/><circle cx="26" cy="47" r="8" fill="hsl(231 75% 93%)" stroke="hsl(231 58% 28%)" stroke-width="4" stroke-linecap="round" stroke-linejoin="round"/><circle cx="74" cy="47" r="8" fill="hsl(231 75% 93%)" stroke="hsl(231 58% 28%)" stroke-width="4" stroke-linecap="round" stroke-linejoin="round"/></g><g transform="translate(400 200)"><rect x="2" y="2" width="96" height="96" rx="12" fill="hsl(313 75% 96%)" stroke="hsl(313 45% 84%)" stroke-width="2"/><path d="M39 17h22v22h22v22H61v22H39V61H17V39h22Z" fill="hsl(1 82% 56%)" stroke="hsl(313 58% 28%)" stroke-width="4" stroke-linecap="round" stroke-linejoin="round"/><path d="M25 50h13l7-12 10 27 8-15h14" fill="none" stroke="white" stroke-width="4"/></g><g transform="translate(500 200)"><rect x="2" y="2" width="96" height="96" rx="12" fill="hsl(324 75% 96%)" stroke="hsl(324 45% 84%)" stroke-width="2"/><path d="m50 12 10 22 24 3-18 17 5 24-21-12-21 12 5-24-18-17 24-3Z" fill="hsl(12 82% 56%)" stroke="hsl(324 58% 28%)" stroke-width="4" stroke-linecap="round" stroke-linejoin="round"/><path d="M16 19c19-11 47-11 68 0M16 81c19 11 47 11 68 0" fill="none" stroke="hsl(324 58% 28%)" stroke-width="4" stroke-linecap="round" stroke-linejoin="round"/></g><g transform="translate(0 300)"><rect x="2" y="2" width="96" height="96" rx="12" fill="hsl(217 75% 96%)" stroke="hsl(217 45% 84%)" stroke-width="2"/><path d="M50 13 79 24v23q0 24-29 39Q21 71 21 47V24Z" fill="hsl(217 72% 52%)" stroke="hsl(217 58% 28%)" stroke-width="4" stroke-linecap="round" stroke-linejoin="round"/><path d="m34 50 10 10 23-25" fill="none" stroke="white" stroke-width="7" stroke-linecap="round" stroke-linejoin="round"/></g><g transform="translate(100 300)"><rect x="2" y="2" width="96" height="96" rx="12" fill="hsl(328 75% 96%)" stroke="hsl(328 45% 84%)" stroke-width="2"/><circle cx="75" cy="25" r="10" fill="hsl(16 82% 56%)" stroke="hsl(328 58% 28%)" stroke-width="4" stroke-linecap="round" stroke-linejoin="round"/><path d="M8 78 34 41l17 22 12-14 29 29Z" fill="hsl(328 72% 52%)" stroke="hsl(328 58% 28%)" stroke-width="4" stroke-linecap="round" stroke-linejoin="round"/><path d="M34 41 45 56l6 7" fill="none" stroke="white" stroke-width="4"/></g><g transform="translate(200 300)"><rect x="2" y="2" width="96" height="96" rx="12" fill="hsl(250 75% 96%)" stroke="hsl(250 45% 84%)" stroke-width="2"/><circle cx="50" cy="49" r="29" fill="hsl(250 75% 93%)" stroke="hsl(250 58% 28%)" stroke-width="4" stroke-linecap="round" stroke-linejoin="round"/><circle cx="50" cy="49" r="12" fill="hsl(298 82% 56%)" stroke="hsl(250 58% 28%)" stroke-width="4" stroke-linecap="round" stroke-linejoin="round"/><path d="M50 12v10m0 54v10M13 49h10m54 0h10M24 23l8 8m36 36 8 8m0-52-8 8M32 67l-8 8" fill="none" stroke="hsl(250 58% 28%)" stroke-width="4" stroke-linecap="round" stroke-linejoin="round"/></g><g transform="translate(300 300)"><rect x="2" y="2" width="96" height="96" rx="12" fill="hsl(103 75% 96%)" stroke="hsl(103 45% 84%)" stroke-width="2"/><circle cx="50" cy="22" r="12" fill="hsl(151 82% 56%)" stroke="hsl(103 58% 28%)" stroke-width="4" stroke-linecap="round" stroke-linejoin="round"/><circle cx="24" cy="72" r="12" fill="hsl(103 72% 52%)" stroke="hsl(103 58% 28%)" stroke-width="4" stroke-linecap="round" stroke-linejoin="round"/><circle cx="76" cy="72" r="12" fill="hsl(103 72% 52%)" stroke="hsl(103 58% 28%)" stroke-width="4" stroke-linecap="round" stroke-linejoin="round"/><path d="m44 33-14 27m26-27 14 27M36 72h28" fill="none" stroke="hsl(103 58% 28%)" stroke-width="4" stroke-linecap="round" stroke-linejoin="round"/></g><g transform="translate(400 300)"><rect x="2" y="2" width="96" height="96" rx="12" fill="hsl(199 75% 96%)" stroke="hsl(199 45% 84%)" stroke-width="2"/><circle cx="50" cy="51" r="32" fill="hsl(199 75% 93%)" stroke="hsl(199 58% 28%)" stroke-width="4" stroke-linecap="round" stroke-linejoin="round"/><path d="M50 51V31m0 20 17 10" fill="none" stroke="hsl(199 58% 28%)" stroke-width="4" stroke-linecap="round" stroke-linejoin="round"/><circle cx="50" cy="51" r="3" fill="hsl(199 58% 28%)"/></g><g transform="translate(500 300)"><rect x="2" y="2" width="96" height="96" rx="12" fill="hsl(4 75% 96%)" stroke="hsl(4 45% 84%)" stroke-width="2"/><circle cx="22" cy="50" r="10" fill="hsl(52 82% 56%)" stroke="hsl(4 58% 28%)" stroke-width="4" stroke-linecap="round" stroke-linejoin="round"/><circle cx="78" cy="25" r="10" fill="hsl(4 72% 52%)" stroke="hsl(4 58% 28%)" stroke-width="4" stroke-linecap="round" stroke-linejoin="round"/><circle cx="78" cy="75" r="10" fill="hsl(4 72% 52%)" stroke="hsl(4 58% 28%)" stroke-width="4" stroke-linecap="round" stroke-linejoin="round"/><path d="M32 50h17m0 0 19-22M49 50l19 22" fill="none" stroke="hsl(4 58% 28%)" stroke-width="4" stroke-linecap="round" stroke-linejoin="round"/></g><g transform="translate(0 400)"><rect x="2" y="2" width="96" height="96" rx="12" fill="hsl(235 75% 96%)" stroke="hsl(235 45% 84%)" stroke-width="2"/><circle cx="50" cy="50" r="34" fill="hsl(235 75% 93%)" stroke="hsl(235 58% 28%)" stroke-width="4" stroke-linecap="round" stroke-linejoin="round"/><circle cx="50" cy="50" r="23" fill="hsl(235 72% 52%)" stroke="hsl(235 58% 28%)" stroke-width="4" stroke-linecap="round" stroke-linejoin="round"/><circle cx="50" cy="50" r="11" fill="hsl(283 82% 56%)" stroke="hsl(235 58% 28%)" stroke-width="4" stroke-linecap="round" stroke-linejoin="round"/><path d="m77 23 11-11m-12 1 12-1-1 12" fill="none" stroke="hsl(235 58% 28%)" stroke-width="4" stroke-linecap="round" stroke-linejoin="round"/></g><g transform="translate(100 400)"><rect x="2" y="2" width="96" height="96" rx="12" fill="hsl(152 75% 96%)" stroke="hsl(152 45% 84%)" stroke-width="2"/><circle cx="50" cy="50" r="34" fill="hsl(152 75% 93%)" stroke="hsl(152 58% 28%)" stroke-width="4" stroke-linecap="round" stroke-linejoin="round"/><circle cx="50" cy="50" r="23" fill="hsl(152 72% 52%)" stroke="hsl(152 58% 28%)" stroke-width="4" stroke-linecap="round" stroke-linejoin="round"/><circle cx="50" cy="50" r="11" fill="hsl(200 82% 56%)" stroke="hsl(152 58% 28%)" stroke-width="4" stroke-linecap="round" stroke-linejoin="round"/><path d="m77 23 11-11m-12 1 12-1-1 12" fill="none" stroke="hsl(152 58% 28%)" stroke-width="4" stroke-linecap="round" stroke-linejoin="round"/></g><g transform="translate(200 400)"><rect x="2" y="2" width="96" height="96" rx="12" fill="hsl(264 75% 96%)" stroke="hsl(264 45% 84%)" stroke-width="2"/><circle cx="50" cy="51" r="32" fill="hsl(264 75% 93%)" stroke="hsl(264 58% 28%)" stroke-width="4" stroke-linecap="round" stroke-linejoin="round"/><path d="M50 51V31m0 20 17 10" fill="none" stroke="hsl(264 58% 28%)" stroke-width="4" stroke-linecap="round" stroke-linejoin="round"/><circle cx="50" cy="51" r="3" fill="hsl(264 58% 28%)"/></g><g transform="translate(300 400)"><rect x="2" y="2" width="96" height="96" rx="12" fill="hsl(329 75% 96%)" stroke="hsl(329 45% 84%)" stroke-width="2"/><circle cx="50" cy="22" r="12" fill="hsl(17 82% 56%)" stroke="hsl(329 58% 28%)" stroke-width="4" stroke-linecap="round" stroke-linejoin="round"/><circle cx="24" cy="72" r="12" fill="hsl(329 72% 52%)" stroke="hsl(329 58% 28%)" stroke-width="4" stroke-linecap="round" stroke-linejoin="round"/><circle cx="76" cy="72" r="12" fill="hsl(329 72% 52%)" stroke="hsl(329 58% 28%)" stroke-width="4" stroke-linecap="round" stroke-linejoin="round"/><path d="m44 33-14 27m26-27 14 27M36 72h28" fill="none" stroke="hsl(329 58% 28%)" stroke-width="4" stroke-linecap="round" stroke-linejoin="round"/></g><g transform="translate(400 400)"><rect x="2" y="2" width="96" height="96" rx="12" fill="hsl(123 75% 96%)" stroke="hsl(123 45% 84%)" stroke-width="2"/><path d="m50 12 10 22 24 3-18 17 5 24-21-12-21 12 5-24-18-17 24-3Z" fill="hsl(171 82% 56%)" stroke="hsl(123 58% 28%)" stroke-width="4" stroke-linecap="round" stroke-linejoin="round"/><path d="M16 19c19-11 47-11 68 0M16 81c19 11 47 11 68 0" fill="none" stroke="hsl(123 58% 28%)" stroke-width="4" stroke-linecap="round" stroke-linejoin="round"/></g><g transform="translate(500 400)"><rect x="2" y="2" width="96" height="96" rx="12" fill="hsl(159 75% 96%)" stroke="hsl(159 45% 84%)" stroke-width="2"/><path d="M35 64q-13-9-13-25a28 28 0 0 1 56 0q0 16-13 25l-4 18H39Z" fill="hsl(207 82% 56%)" stroke="hsl(159 58% 28%)" stroke-width="4" stroke-linecap="round" stroke-linejoin="round"/><path d="M39 69h22M39 77h22M50 11v-7M17 19l-6-6m72 6 6-6" fill="none" stroke="hsl(159 58% 28%)" stroke-width="4" stroke-linecap="round" stroke-linejoin="round"/></g><g transform="translate(0 500)"><rect x="2" y="2" width="96" height="96" rx="12" fill="hsl(235 75% 96%)" stroke="hsl(235 45% 84%)" stroke-width="2"/><path d="M50 18v61M24 30h52M20 72h60M31 30 18 56h26Zm38 0L56 56h26Z" fill="hsl(235 75% 93%)" stroke="hsl(235 58% 28%)" stroke-width="4" stroke-linecap="round" stroke-linejoin="round"/><circle cx="50" cy="16" r="7" fill="hsl(283 82% 56%)" stroke="hsl(235 58% 28%)" stroke-width="4" stroke-linecap="round" stroke-linejoin="round"/></g><g transform="translate(100 500)"><rect x="2" y="2" width="96" height="96" rx="12" fill="hsl(15 75% 96%)" stroke="hsl(15 45% 84%)" stroke-width="2"/><circle cx="50" cy="50" r="34" fill="hsl(15 75% 93%)" stroke="hsl(15 58% 28%)" stroke-width="4" stroke-linecap="round" stroke-linejoin="round"/><circle cx="50" cy="50" r="23" fill="hsl(15 72% 52%)" stroke="hsl(15 58% 28%)" stroke-width="4" stroke-linecap="round" stroke-linejoin="round"/><circle cx="50" cy="50" r="11" fill="hsl(63 82% 56%)" stroke="hsl(15 58% 28%)" stroke-width="4" stroke-linecap="round" stroke-linejoin="round"/><path d="m77 23 11-11m-12 1 12-1-1 12" fill="none" stroke="hsl(15 58% 28%)" stroke-width="4" stroke-linecap="round" stroke-linejoin="round"/></g><g transform="translate(200 500)"><rect x="2" y="2" width="96" height="96" rx="12" fill="hsl(49 75% 96%)" stroke="hsl(49 45% 84%)" stroke-width="2"/><path d="M50 13 79 24v23q0 24-29 39Q21 71 21 47V24Z" fill="hsl(49 72% 52%)" stroke="hsl(49 58% 28%)" stroke-width="4" stroke-linecap="round" stroke-linejoin="round"/><path d="m34 50 10 10 23-25" fill="none" stroke="white" stroke-width="7" stroke-linecap="round" stroke-linejoin="round"/></g><g transform="translate(300 500)"><rect x="2" y="2" width="96" height="96" rx="12" fill="hsl(353 75% 96%)" stroke="hsl(353 45% 84%)" stroke-width="2"/><circle cx="50" cy="22" r="12" fill="hsl(41 82% 56%)" stroke="hsl(353 58% 28%)" stroke-width="4" stroke-linecap="round" stroke-linejoin="round"/><circle cx="24" cy="72" r="12" fill="hsl(353 72% 52%)" stroke="hsl(353 58% 28%)" stroke-width="4" stroke-linecap="round" stroke-linejoin="round"/><circle cx="76" cy="72" r="12" fill="hsl(353 72% 52%)" stroke="hsl(353 58% 28%)" stroke-width="4" stroke-linecap="round" stroke-linejoin="round"/><path d="m44 33-14 27m26-27 14 27M36 72h28" fill="none" stroke="hsl(353 58% 28%)" stroke-width="4" stroke-linecap="round" stroke-linejoin="round"/></g><g transform="translate(400 500)"><rect x="2" y="2" width="96" height="96" rx="12" fill="hsl(296 75% 96%)" stroke="hsl(296 45% 84%)" stroke-width="2"/><path d="m50 12 10 22 24 3-18 17 5 24-21-12-21 12 5-24-18-17 24-3Z" fill="hsl(344 82% 56%)" stroke="hsl(296 58% 28%)" stroke-width="4" stroke-linecap="round" stroke-linejoin="round"/><path d="M16 19c19-11 47-11 68 0M16 81c19 11 47 11 68 0" fill="none" stroke="hsl(296 58% 28%)" stroke-width="4" stroke-linecap="round" stroke-linejoin="round"/></g><g transform="translate(500 500)"><rect x="2" y="2" width="96" height="96" rx="12" fill="hsl(260 75% 96%)" stroke="hsl(260 45% 84%)" stroke-width="2"/><path d="m50 12 10 22 24 3-18 17 5 24-21-12-21 12 5-24-18-17 24-3Z" fill="hsl(308 82% 56%)" stroke="hsl(260 58% 28%)" stroke-width="4" stroke-linecap="round" stroke-linejoin="round"/><path d="M16 19c19-11 47-11 68 0M16 81c19 11 47 11 68 0" fill="none" stroke="hsl(260 58% 28%)" stroke-width="4" stroke-linecap="round" stroke-linejoin="round"/></g></svg>
