<svg xmlns="http://www.w3.org/2000/svg" viewBox="0 0 600 600" width="600" height="600" role="img" aria-label="SmartLingo beginner semantic picture sprite"><rect width="600" height="600" fill="#f8fbff"/><g transform="translate(0 0)"><rect x="2" y="2" width="96" height="96" rx="12" fill="hsl(194 75% 96%)" stroke="hsl(194 45% 84%)" stroke-width="2"/><path d="M35 64q-13-9-13-25a28 28 0 0 1 56 0q0 16-13 25l-4 18H39Z" fill="hsl(242 82% 56%)" stroke="hsl(194 58% 28%)" stroke-width="4" stroke-linecap="round" stroke-linejoin="round"/><path d="M39 69h22M39 77h22M50 11v-7M17 19l-6-6m72 6 6-6" fill="none" stroke="hsl(194 58% 28%)" stroke-width="4" stroke-linecap="round" stroke-linejoin="round"/></g><g transform="translate(100 0)"><rect x="2" y="2" width="96" height="96" rx="12" fill="hsl(163 75% 96%)" stroke="hsl(163 45% 84%)" stroke-width="2"/><path d="M50 13 79 24v23q0 24-29 39Q21 71 21 47V24Z" fill="hsl(163 72% 52%)" stroke="hsl(163 58% 28%)" stroke-width="4" stroke-linecap="round" stroke-linejoin="round"/><path d="m34 50 10 10 23-25" fill="none" stroke="white" stroke-width="7" stroke-linecap="round" stroke-linejoin="round"/></g><g transform="translate(200 0)"><rect x="2" y="2" width="96" height="96" rx="12" fill="hsl(203 75% 96%)" stroke="hsl(203 45% 84%)" stroke-width="2"/><circle cx="50" cy="51" r="32" fill="hsl(203 75% 93%)" stroke="hsl(203 58% 28%)" stroke-width="4" stroke-linecap="round" stroke-linejoin="round"/><path d="M50 51V31m0 20 17 10" fill="none" stroke="hsl(203 58% 28%)" stroke-width="4" stroke-linecap="round" stroke-linejoin="round"/><circle cx="50" cy="51" r="3" fill="hsl(203 58% 28%)"/></g><g transform="translate(300 0)"><rect x="2" y="2" width="96" height="96" rx="12" fill="hsl(70 75% 96%)" stroke="hsl(70 45% 84%)" stroke-width="2"/><circle cx="50" cy="31" r="13" fill="hsl(118 82% 56%)" stroke="hsl(70 58% 28%)" stroke-width="4" stroke-linecap="round" stroke-linejoin="round"/><path d="M27 78c2-22 11-32 23-32s21 10 23 32" fill="hsl(70 72% 52%)" stroke="hsl(70 58% 28%)" stroke-width="4" stroke-linecap="round" stroke-linejoin="round"/><circle cx="26" cy="47" r="8" fill="hsl(70 75% 93%)" stroke="hsl(70 58% 28%)" stroke-width="4" stroke-linecap="round" stroke-linejoin="round"/><circle cx="74" cy="47" r="8" fill="hsl(70 75% 93%)" stroke="hsl(70 58% 28%)" stroke-width="4" stroke-linecap="round" stroke-linejoin="round"/></g><g transform="translate(400 0)"><rect x="2" y="2" width="96" height="96" rx="12" fill="hsl(281 75% 96%)" stroke="hsl(281 45% 84%)" stroke-width="2"/><circle cx="50" cy="49" r="29" fill="hsl(281 75% 93%)" stroke="hsl(281 58% 28%)" stroke-width="4" stroke-linecap="round" stroke-linejoin="round"/><circle cx="50" cy="49" r="12" fill="hsl(329 82% 56%)" stroke="hsl(281 58% 28%)" stroke-width="4" stroke-linecap="round" stroke-linejoin="round"/><path d="M50 12v10m0 54v10M13 49h10m54 0h10M24 23l8 8m36 36 8 8m0-52-8 8M32 67l-8 8" fill="none" stroke="hsl(281 58% 28%)" stroke-width="4" stroke-linecap="round" stroke-linejoin="round"/></g><g transform="translate(500 0)"><rect x="2" y="2" width="96" height="96" rx="12" fill="hsl(231 75% 96%)" stroke="hsl(231 45% 84%)" stroke-width="2"/><path d="M50 18v61M24 30h52M20 72h60M31 30 18 56h26Zm38 0L56 56h26Z" fill="hsl(231 75% 93%)" stroke="hsl(231 58% 28%)" stroke-width="4" stroke-linecap="round" stroke-linejoin="round"/><circle cx="50" cy="16" r="7" fill="hsl(279 82% 56%)" stroke="hsl(231 58% 28%)" stroke-width="4" stroke-linecap="round" stroke-linejoin="round"/></g><g transform="translate(0 100)"><rect x="2" y="2" width="96" height="96" rx="12" fill="hsl(86 75% 96%)" stroke="hsl(86 45% 84%)" stroke-width="2"/><circle cx="50" cy="49" r="29" fill="hsl(86 75% 93%)" stroke="hsl(86 58% 28%)" stroke-width="4" stroke-linecap="round" stroke-linejoin="round"/><circle cx="50" cy="49" r="12" fill="hsl(134 82% 56%)" stroke="hsl(86 58% 28%)" stroke-width="4" stroke-linecap="round" stroke-linejoin="round"/><path d="M50 12v10m0 54v10M13 49h10m54 0h10M24 23l8 8m36 36 8 8m0-52-8 8M32 67l-8 8" fill="none" stroke="hsl(86 58% 28%)" stroke-width="4" stroke-linecap="round" stroke-linejoin="round"/></g><g transform="translate(100 100)"><rect x="2" y="2" width="96" height="96" rx="12" fill="hsl(255 75% 96%)" stroke="hsl(255 45% 84%)" stroke-width="2"/><circle cx="50" cy="50" r="34" fill="hsl(255 75% 93%)" stroke="hsl(255 58% 28%)" stroke-width="4" stroke-linecap="round" stroke-linejoin="round"/><circle cx="50" cy="50" r="23" fill="hsl(255 72% 52%)" stroke="hsl(255 58% 28%)" stroke-width="4" stroke-linecap="round" stroke-linejoin="round"/><circle cx="50" cy="50" r="11" fill="hsl(303 82% 56%)" stroke="hsl(255 58% 28%)" stroke-width="4" stroke-linecap="round" stroke-linejoin="round"/><path d="m77 23 11-11m-12 1 12-1-1 12" fill="none" stroke="hsl(255 58% 28%)" stroke-width="4" stroke-linecap="round" stroke-linejoin="round"/></g><g transform="translate(200 100)"><rect x="2" y="2" width="96" height="96" rx="12" fill="hsl(245 75% 96%)" stroke="hsl(245 45% 84%)" stroke-width="2"/><path d="M50 18v61M24 30h52M20 72h60M31 30 18 56h26Zm38 0L56 56h26Z" fill="hsl(245 75% 93%)" stroke="hsl(245 58% 28%)" stroke-width="4" stroke-linecap="round" stroke-linejoin="round"/><circle cx="50" cy="16" r="7" fill="hsl(293 82% 56%)" stroke="hsl(245 58% 28%)" stroke-width="4" stroke-linecap="round" stroke-linejoin="round"/></g><g transform="translate(300 100)"><rect x="2" y="2" width="96" height="96" rx="12" fill="hsl(116 75% 96%)" stroke="hsl(116 45% 84%)" stroke-width="2"/><path d="m50 12 10 22 24 3-18 17 5 24-21-12-21 12 5-24-18-17 24-3Z" fill="hsl(164 82% 56%)" stroke="hsl(116 58% 28%)" stroke-width="4" stroke-linecap="round" stroke-linejoin="round"/><path d="M16 19c19-11 47-11 68 0M16 81c19 11 47 11 68 0" fill="none" stroke="hsl(116 58% 28%)" stroke-width="4" stroke-linecap="round" stroke-linejoin="round"/></g><g transform="translate(400 100)"><rect x="2" y="2" width="96" height="96" rx="12" fill="hsl(348 75% 96%)" stroke="hsl(348 45% 84%)" stroke-width="2"/><path d="M50 18v61M24 30h52M20 72h60M31 30 18 56h26Zm38 0L56 56h26Z" fill="hsl(348 75% 93%)" stroke="hsl(348 58% 28%)" stroke-width="4" stroke-linecap="round" stroke-linejoin="round"/><circle cx="50" cy="16" r="7" fill="hsl(36 82% 56%)" stroke="hsl(348 58% 28%)" stroke-width="4" stroke-linecap="round" stroke-linejoin="round"/></g><g transform="translate(500 100)"><rect x="2" y="2" width="96" height="96" rx="12" fill="hsl(203 75% 96%)" stroke="hsl(203 45% 84%)" stroke-width="2"/><path d="M50 18v61M24 30h52M20 72h60M31 30 18 56h26Zm38 0L56 56h26Z" fill="hsl(203 75% 93%)" stroke="hsl(203 58% 28%)" stroke-width="4" stroke-linecap="round" stroke-linejoin="round"/><circle cx="50" cy="16" r="7" fill="hsl(251 82% 56%)" stroke="hsl(203 58% 28%)" stroke-width="4" stroke-linecap="round" stroke-linejoin="round"/></g><g transform="translate(0 200)"><rect x="2" y="2" width="96" height="96" rx="12" fill="hsl(234 75% 96%)" stroke="hsl(234 45% 84%)" stroke-width="2"/><circle cx="27" cy="31" r="9" fill="hsl(282 82% 56%)" stroke="hsl(234 58% 28%)" stroke-width="4" stroke-linecap="round" stroke-linejoin="round"/><path d="M27 42v24m0-14 14 8M27 51 15 62m12 4-10 15m10-15 13 14" fill="none" stroke="hsl(234 58% 28%)" stroke-width="4" stroke-linecap="round" stroke-linejoin="round"/><path d="M48 35h34m-12-10 12 10-12 10" fill="none" stroke="hsl(234 58% 28%)" stroke-width="4" stroke-linecap="round" stroke-linejoin="round"/></g><g transform="translate(100 200)"><rect x="2" y="2" width="96" height="96" rx="12" fill="hsl(210 75% 96%)" stroke="hsl(210 45% 84%)" stroke-width="2"/><circle cx="75" cy="25" r="10" fill="hsl(258 82% 56%)" stroke="hsl(210 58% 28%)" stroke-width="4" stroke-linecap="round" stroke-linejoin="round"/><path d="M8 78 34 41l17 22 12-14 29 29Z" fill="hsl(210 72% 52%)" stroke="hsl(210 58% 28%)" stroke-width="4" stroke-linecap="round" stroke-linejoin="round"/><path d="M34 41 45 56l6 7" fill="none" stroke="white" stroke-width="4"/></g><g transform="translate(200 200)"><rect x="2" y="2" width="96" height="96" rx="12" fill="hsl(265 75% 96%)" stroke="hsl(265 45% 84%)" stroke-width="2"/><circle cx="27" cy="31" r="9" fill="hsl(313 82% 56%)" stroke="hsl(265 58% 28%)" stroke-width="4" stroke-linecap="round" stroke-linejoin="round"/><path d="M27 42v24m0-14 14 8M27 51 15 62m12 4-10 15m10-15 13 14" fill="none" stroke="hsl(265 58% 28%)" stroke-width="4" stroke-linecap="round" stroke-linejoin="round"/><path d="M48 35h34m-12-10 12 10-12 10" fill="none" stroke="hsl(265 58% 28%)" stroke-width="4" stroke-linecap="round" stroke-linejoin="round"/></g><g transform="translate(300 200)"><rect x="2" y="2" width="96" height="96" rx="12" fill="hsl(20 75% 96%)" stroke="hsl(20 45% 84%)" stroke-width="2"/><path d="m50 12 10 22 24 3-18 17 5 24-21-12-21 12 5-24-18-17 24-3Z" fill="hsl(68 82% 56%)" stroke="hsl(20 58% 28%)" stroke-width="4" stroke-linecap="round" stroke-linejoin="round"/><path d="M16 19c19-11 47-11 68 0M16 81c19 11 47 11 68 0" fill="none" stroke="hsl(20 58% 28%)" stroke-width="4" stroke-linecap="round" stroke-linejoin="round"/></g><g transform="translate(400 200)"><rect x="2" y="2" width="96" height="96" rx="12" fill="hsl(320 75% 96%)" stroke="hsl(320 45% 84%)" stroke-width="2"/><path d="M35 64q-13-9-13-25a28 28 0 0 1 56 0q0 16-13 25l-4 18H39Z" fill="hsl(8 82% 56%)" stroke="hsl(320 58% 28%)" stroke-width="4" stroke-linecap="round" stroke-linejoin="round"/><path d="M39 69h22M39 77h22M50 11v-7M17 19l-6-6m72 6 6-6" fill="none" stroke="hsl(320 58% 28%)" stroke-width="4" stroke-linecap="round" stroke-linejoin="round"/></g><g transform="translate(500 200)"><rect x="2" y="2" width="96" height="96" rx="12" fill="hsl(176 75% 96%)" stroke="hsl(176 45% 84%)" stroke-width="2"/><circle cx="50" cy="49" r="29" fill="hsl(176 75% 93%)" stroke="hsl(176 58% 28%)" stroke-width="4" stroke-linecap="round" stroke-linejoin="round"/><circle cx="50" cy="49" r="12" fill="hsl(224 82% 56%)" stroke="hsl(176 58% 28%)" stroke-width="4" stroke-linecap="round" stroke-linejoin="round"/><path d="M50 12v10m0 54v10M13 49h10m54 0h10M24 23l8 8m36 36 8 8m0-52-8 8M32 67l-8 8" fill="none" stroke="hsl(176 58% 28%)" stroke-width="4" stroke-linecap="round" stroke-linejoin="round"/></g><g transform="translate(0 300)"><rect x="2" y="2" width="96" height="96" rx="12" fill="hsl(275 75% 96%)" stroke="hsl(275 45% 84%)" stroke-width="2"/><path d="M13 28q20-9 37 5v50q-17-14-37-5Zm74 0q-20-9-37 5v50q17-14 37-5Z" fill="hsl(275 75% 93%)" stroke="hsl(275 58% 28%)" stroke-width="4" stroke-linecap="round" stroke-linejoin="round"/><path d="M50 33v50m-27-40h17m-17 12h17m20-12h17m-17 12h17" fill="none" stroke="hsl(275 58% 28%)" stroke-width="4" stroke-linecap="round" stroke-linejoin="round"/></g><g transform="translate(100 300)"><rect x="2" y="2" width="96" height="96" rx="12" fill="hsl(298 75% 96%)" stroke="hsl(298 45% 84%)" stroke-width="2"/><path d="m50 12 10 22 24 3-18 17 5 24-21-12-21 12 5-24-18-17 24-3Z" fill="hsl(346 82% 56%)" stroke="hsl(298 58% 28%)" stroke-width="4" stroke-linecap="round" stroke-linejoin="round"/><path d="M16 19c19-11 47-11 68 0M16 81c19 11 47 11 68 0" fill="none" stroke="hsl(298 58% 28%)" stroke-width="4" stroke-linecap="round" stroke-linejoin="round"/></g><g transform="translate(200 300)"><rect x="2" y="2" width="96" height="96" rx="12" fill="hsl(135 75% 96%)" stroke="hsl(135 45% 84%)" stroke-width="2"/><circle cx="50" cy="49" r="29" fill="hsl(135 75% 93%)" stroke="hsl(135 58% 28%)" stroke-width="4" stroke-linecap="round" stroke-linejoin="round"/><circle cx="50" cy="49" r="12" fill="hsl(183 82% 56%)" stroke="hsl(135 58% 28%)" stroke-width="4" stroke-linecap="round" stroke-linejoin="round"/><path d="M50 12v10m0 54v10M13 49h10m54 0h10M24 23l8 8m36 36 8 8m0-52-8 8M32 67l-8 8" fill="none" stroke="hsl(135 58% 28%)" stroke-width="4" stroke-linecap="round" stroke-linejoin="round"/></g><g transform="translate(300 300)"><rect x="2" y="2" width="96" height="96" rx="12" fill="hsl(77 75% 96%)" stroke="hsl(77 45% 84%)" stroke-width="2"/><circle cx="50" cy="49" r="29" fill="hsl(77 75% 93%)" stroke="hsl(77 58% 28%)" stroke-width="4" stroke-linecap="round" stroke-linejoin="round"/><circle cx="50" cy="49" r="12" fill="hsl(125 82% 56%)" stroke="hsl(77 58% 28%)" stroke-width="4" stroke-linecap="round" stroke-linejoin="round"/><path d="M50 12v10m0 54v10M13 49h10m54 0h10M24 23l8 8m36 36 8 8m0-52-8 8M32 67l-8 8" fill="none" stroke="hsl(77 58% 28%)" stroke-width="4" stroke-linecap="round" stroke-linejoin="round"/></g><g transform="translate(400 300)"><rect x="2" y="2" width="96" height="96" rx="12" fill="hsl(129 75% 96%)" stroke="hsl(129 45% 84%)" stroke-width="2"/><path d="M50 18v61M24 30h52M20 72h60M31 30 18 56h26Zm38 0L56 56h26Z" fill="hsl(129 75% 93%)" stroke="hsl(129 58% 28%)" stroke-width="4" stroke-linecap="round" stroke-linejoin="round"/><circle cx="50" cy="16" r="7" fill="hsl(177 82% 56%)" stroke="hsl(129 58% 28%)" stroke-width="4" stroke-linecap="round" stroke-linejoin="round"/></g><g transform="translate(500 300)"><rect x="2" y="2" width="96" height="96" rx="12" fill="hsl(196 75% 96%)" stroke="hsl(196 45% 84%)" stroke-width="2"/><circle cx="50" cy="22" r="12" fill="hsl(244 82% 56%)" stroke="hsl(196 58% 28%)" stroke-width="4" stroke-linecap="round" stroke-linejoin="round"/><circle cx="24" cy="72" r="12" fill="hsl(196 72% 52%)" stroke="hsl(196 58% 28%)" stroke-width="4" stroke-linecap="round" stroke-linejoin="round"/><circle cx="76" cy="72" r="12" fill="hsl(196 72% 52%)" stroke="hsl(196 58% 28%)" stroke-width="4" stroke-linecap="round" stroke-linejoin="round"/><path d="m44 33-14 27m26-27 14 27M36 72h28" fill="none" stroke="hsl(196 58% 28%)" stroke-width="4" stroke-linecap="round" stroke-linejoin="round"/></g><g transform="translate(0 400)"><rect x="2" y="2" width="96" height="96" rx="12" fill="hsl(357 75% 96%)" stroke="hsl(357 45% 84%)" stroke-width="2"/><path d="m50 12 10 22 24 3-18 17 5 24-21-12-21 12 5-24-18-17 24-3Z" fill="hsl(45 82% 56%)" stroke="hsl(357 58% 28%)" stroke-width="4" stroke-linecap="round" stroke-linejoin="round"/><path d="M16 19c19-11 47-11 68 0M16 81c19 11 47 11 68 0" fill="none" stroke="hsl(357 58% 28%)" stroke-width="4" stroke-linecap="round" stroke-linejoin="round"/></g><g transform="translate(100 400)"><rect x="2" y="2" width="96" height="96" rx="12" fill="hsl(227 75% 96%)" stroke="hsl(227 45% 84%)" stroke-width="2"/><circle cx="50" cy="31" r="13" fill="hsl(275 82% 56%)" stroke="hsl(227 58% 28%)" stroke-width="4" stroke-linecap="round" stroke-linejoin="round"/><path d="M27 78c2-22 11-32 23-32s21 10 23 32" fill="hsl(227 72% 52%)" stroke="hsl(227 58% 28%)" stroke-width="4" stroke-linecap="round" stroke-linejoin="round"/><circle cx="26" cy="47" r="8" fill="hsl(227 75% 93%)" stroke="hsl(227 58% 28%)" stroke-width="4" stroke-linecap="round" stroke-linejoin="round"/><circle cx="74" cy="47" r="8" fill="hsl(227 75% 93%)" stroke="hsl(227 58% 28%)" stroke-width="4" stroke-linecap="round" stroke-linejoin="round"/></g><g transform="translate(200 400)"><rect x="2" y="2" width="96" height="96" rx="12" fill="hsl(120 75% 96%)" stroke="hsl(120 45% 84%)" stroke-width="2"/><path d="M50 18v61M24 30h52M20 72h60M31 30 18 56h26Zm38 0L56 56h26Z" fill="hsl(120 75% 93%)" stroke="hsl(120 58% 28%)" stroke-width="4" stroke-linecap="round" stroke-linejoin="round"/><circle cx="50" cy="16" r="7" fill="hsl(168 82% 56%)" stroke="hsl(120 58% 28%)" stroke-width="4" stroke-linecap="round" stroke-linejoin="round"/></g><g transform="translate(300 400)"><rect x="2" y="2" width="96" height="96" rx="12" fill="hsl(301 75% 96%)" stroke="hsl(301 45% 84%)" stroke-width="2"/><circle cx="50" cy="22" r="12" fill="hsl(349 82% 56%)" stroke="hsl(301 58% 28%)" stroke-width="4" stroke-linecap="round" stroke-linejoin="round"/><circle cx="24" cy="72" r="12" fill="hsl(301 72% 52%)" stroke="hsl(301 58% 28%)" stroke-width="4" stroke-linecap="round" stroke-linejoin="round"/><circle cx="76" cy="72" r="12" fill="hsl(301 72% 52%)" stroke="hsl(301 58% 28%)" stroke-width="4" stroke-linecap="round" stroke-linejoin="round"/><path d="m44 33-14 27m26-27 14 27M36 72h28" fill="none" stroke="hsl(301 58% 28%)" stroke-width="4" stroke-linecap="round" stroke-linejoin="round"/></g><g transform="translate(400 400)"><rect x="2" y="2" width="96" height="96" rx="12" fill="hsl(50 75% 96%)" stroke="hsl(50 45% 84%)" stroke-width="2"/><path d="M50 13 79 24v23q0 24-29 39Q21 71 21 47V24Z" fill="hsl(50 72% 52%)" stroke="hsl(50 58% 28%)" stroke-width="4" stroke-linecap="round" stroke-linejoin="round"/><path d="m34 50 10 10 23-25" fill="none" stroke="white" stroke-width="7" stroke-linecap="round" stroke-linejoin="round"/></g><g transform="translate(500 400)"><rect x="2" y="2" width="96" height="96" rx="12" fill="hsl(124 75% 96%)" stroke="hsl(124 45% 84%)" stroke-width="2"/><path d="M35 64q-13-9-13-25a28 28 0 0 1 56 0q0 16-13 25l-4 18H39Z" fill="hsl(172 82% 56%)" stroke="hsl(124 58% 28%)" stroke-width="4" stroke-linecap="round" stroke-linejoin="round"/><path d="M39 69h22M39 77h22M50 11v-7M17 19l-6-6m72 6 6-6" fill="none" stroke="hsl(124 58% 28%)" stroke-width="4" stroke-linecap="round" stroke-linejoin="round"/></g><g transform="translate(0 500)"><rect x="2" y="2" width="96" height="96" rx="12" fill="hsl(315 75% 96%)" stroke="hsl(315 45% 84%)" stroke-width="2"/><circle cx="50" cy="50" r="34" fill="hsl(315 75% 93%)" stroke="hsl(315 58% 28%)" stroke-width="4" stroke-linecap="round" stroke-linejoin="round"/><circle cx="50" cy="50" r="23" fill="hsl(315 72% 52%)" stroke="hsl(315 58% 28%)" stroke-width="4" stroke-linecap="round" stroke-linejoin="round"/><circle cx="50" cy="50" r="11" fill="hsl(3 82% 56%)" stroke="hsl(315 58% 28%)" stroke-width="4" stroke-linecap="round" stroke-linejoin="round"/><path d="m77 23 11-11m-12 1 12-1-1 12" fill="none" stroke="hsl(315 58% 28%)" stroke-width="4" stroke-linecap="round" stroke-linejoin="round"/></g><g transform="translate(100 500)"><rect x="2" y="2" width="96" height="96" rx="12" fill="hsl(238 75% 96%)" stroke="hsl(238 45% 84%)" stroke-width="2"/><path d="M50 13 79 24v23q0 24-29 39Q21 71 21 47V24Z" fill="hsl(238 72% 52%)" stroke="hsl(238 58% 28%)" stroke-width="4" stroke-linecap="round" stroke-linejoin="round"/><path d="m34 50 10 10 23-25" fill="none" stroke="white" stroke-width="7" stroke-linecap="round" stroke-linejoin="round"/></g><g transform="translate(200 500)"><rect x="2" y="2" width="96" height="96" rx="12" fill="hsl(186 75% 96%)" stroke="hsl(186 45% 84%)" stroke-width="2"/><circle cx="22" cy="50" r="10" fill="hsl(234 82% 56%)" stroke="hsl(186 58% 28%)" stroke-width="4" stroke-linecap="round" stroke-linejoin="round"/><circle cx="78" cy="25" r="10" fill="hsl(186 72% 52%)" stroke="hsl(186 58% 28%)" stroke-width="4" stroke-linecap="round" stroke-linejoin="round"/><circle cx="78" cy="75" r="10" fill="hsl(186 72% 52%)" stroke="hsl(186 58% 28%)" stroke-width="4" stroke-linecap="round" stroke-linejoin="round"/><path d="M32 50h17m0 0 19-22M49 50l19 22" fill="none" stroke="hsl(186 58% 28%)" stroke-width="4" stroke-linecap="round" stroke-linejoin="round"/></g><g transform="translate(300 500)"><rect x="2" y="2" width="96" height="96" rx="12" fill="hsl(287 75% 96%)" stroke="hsl(287 45% 84%)" stroke-width="2"/><circle cx="50" cy="22" r="12" fill="hsl(335 82% 56%)" stroke="hsl(287 58% 28%)" stroke-width="4" stroke-linecap="round" stroke-linejoin="round"/><circle cx="24" cy="72" r="12" fill="hsl(287 72% 52%)" stroke="hsl(287 58% 28%)" stroke-width="4" stroke-linecap="round" stroke-linejoin="round"/><circle cx="76" cy="72" r="12" fill="hsl(287 72% 52%)" stroke="hsl(287 58% 28%)" stroke-width="4" stroke-linecap="round" stroke-linejoin="round"/><path d="m44 33-14 27m26-27 14 27M36 72h28" fill="none" stroke="hsl(287 58% 28%)" stroke-width="4" stroke-linecap="round" stroke-linejoin="round"/></g><g transform="translate(400 500)"><rect x="2" y="2" width="96" height="96" rx="12" fill="hsl(103 75% 96%)" stroke="hsl(103 45% 84%)" stroke-width="2"/><path d="M50 13 79 24v23q0 24-29 39Q21 71 21 47V24Z" fill="hsl(103 72% 52%)" stroke="hsl(103 58% 28%)" stroke-width="4" stroke-linecap="round" stroke-linejoin="round"/><path d="m34 50 10 10 23-25" fill="none" stroke="white" stroke-width="7" stroke-linecap="round" stroke-linejoin="round"/></g><g transform="translate(500 500)"><rect x="2" y="2" width="96" height="96" rx="12" fill="hsl(243 75% 96%)" stroke="hsl(243 45% 84%)" stroke-width="2"/><circle cx="50" cy="31" r="13" fill="hsl(291 82% 56%)" stroke="hsl(243 58% 28%)" stroke-width="4" stroke-linecap="round" stroke-linejoin="round"/><path d="M27 78c2-22 11-32 23-32s21 10 23 32" fill="hsl(243 72% 52%)" stroke="hsl(243 58% 28%)" stroke-width="4" stroke-linecap="round" stroke-linejoin="round"/><circle cx="26" cy="47" r="8" fill="hsl(243 75% 93%)" stroke="hsl(243 58% 28%)" stroke-width="4" stroke-linecap="round" stroke-linejoin="round"/><circle cx="74" cy="47" r="8" fill="hsl(243 75% 93%)" stroke="hsl(243 58% 28%)" stroke-width="4" stroke-linecap="round" stroke-linejoin="round"/></g></svg>
